<svg xmlns="http://www.w3.org/2000/svg" viewBox="0 0 440 477"><defs><style>.cls-1{fill:#f5f9ff;}.cls-2,.cls-3,.cls-4,.cls-5{fill:none;}.cls-2,.cls-3,.cls-4{stroke:#a9c9e8;stroke-miterlimit:10;stroke-width:1.44px;}.cls-3,.cls-4,.cls-5,.cls-6,.cls-7,.cls-8{stroke-linecap:round;}.cls-4{stroke-dasharray:7.67 7.67;}.cls-5,.cls-6,.cls-7,.cls-8{stroke:#174799;stroke-linejoin:round;}.cls-5,.cls-6,.cls-7{stroke-width:5.67px;}.cls-6,.cls-8{fill:#90b1da;}.cls-7{fill:#fff;}.cls-8{stroke-width:4.35px;}</style></defs><title>icon trang ho tro</title><g id="Layer_1" data-name="Layer 1"><circle class="cls-1" cx="227.12" cy="227.59" r="206.69"/><circle class="cls-2" cx="319.56" cy="94.2" r="4.08"/><circle class="cls-2" cx="157.56" cy="70.2" r="4.08"/><line class="cls-3" x1="379.36" y1="122.28" x2="379.36" y2="127.56"/><line class="cls-3" x1="379.36" y1="130.2" x2="379.36" y2="135.48"/><line class="cls-3" x1="385.96" y1="128.88" x2="380.68" y2="128.88"/><line class="cls-3" x1="378.04" y1="128.88" x2="372.76" y2="128.88"/><line class="cls-3" x1="344.84" y1="186.68" x2="344.84" y2="191.96"/><line class="cls-3" x1="344.84" y1="194.6" x2="344.84" y2="199.88"/><line class="cls-3" x1="351.44" y1="193.28" x2="346.16" y2="193.28"/><line class="cls-3" x1="343.52" y1="193.28" x2="338.24" y2="193.28"/><line class="cls-3" x1="344.28" y1="311.32" x2="344.28" y2="316.6"/><line class="cls-3" x1="344.28" y1="319.24" x2="344.28" y2="324.52"/><line class="cls-3" x1="350.88" y1="317.92" x2="345.6" y2="317.92"/><line class="cls-3" x1="342.96" y1="317.92" x2="337.68" y2="317.92"/><line class="cls-3" x1="368.5" y1="250.5" x2="374.5" y2="250.5"/><line class="cls-4" x1="382.17" y1="250.5" x2="393.67" y2="250.5"/><line class="cls-3" x1="397.5" y1="250.5" x2="403.5" y2="250.5"/><line class="cls-3" x1="218.5" y1="55.5" x2="224.5" y2="55.5"/><line class="cls-4" x1="232.17" y1="55.5" x2="243.67" y2="55.5"/><line class="cls-3" x1="247.5" y1="55.5" x2="253.5" y2="55.5"/><line class="cls-5" x1="57.87" y1="343.39" x2="141.63" y2="343.39"/><line class="cls-5" x1="64.95" y1="359.53" x2="134.55" y2="359.53"/><path class="cls-6" d="M73.25,374.68a28.39,28.39,0,0,0,53,0Z"/><path class="cls-7" d="M176.6,249.55a89.79,89.79,0,0,0,13.4-47.3s0-.06,0-.09c0-1.46,0-2.91-.11-4.35,0-.49-.07-1-.1-1.48-.06-1-.13-1.95-.22-2.91-.06-.57-.13-1.14-.19-1.71-.1-.88-.21-1.76-.34-2.63-.09-.59-.18-1.18-.28-1.77q-.21-1.27-.46-2.52c-.11-.59-.23-1.17-.36-1.75-.18-.84-.38-1.68-.59-2.52-.14-.56-.27-1.11-.42-1.67-.24-.88-.5-1.76-.76-2.63-.15-.49-.28-1-.44-1.46-.37-1.16-.77-2.3-1.18-3.44-.07-.19-.13-.38-.2-.56-.49-1.3-1-2.59-1.55-3.86-.2-.47-.41-.92-.62-1.38-.36-.82-.73-1.63-1.12-2.44-.25-.52-.52-1-.78-1.56-.37-.73-.74-1.45-1.13-2.16-.29-.54-.59-1.07-.89-1.6q-.58-1-1.19-2c-.32-.53-.64-1.05-1-1.57s-.85-1.32-1.28-2-.67-1-1-1.51c-.46-.66-.94-1.32-1.43-2-.34-.46-.68-.93-1-1.39-.59-.77-1.2-1.51-1.81-2.26-.33-.41-.66-.82-1-1.22q-1.19-1.4-2.43-2.75c-.4-.43-.81-.84-1.21-1.27s-1.09-1.14-1.66-1.7-.92-.89-1.39-1.33-1.07-1-1.61-1.5-1-.88-1.49-1.31-1.09-.93-1.64-1.39-1-.85-1.56-1.26-1.13-.87-1.7-1.3-1.07-.81-1.62-1.2-1.18-.83-1.78-1.23-1.09-.75-1.64-1.11-1.33-.83-2-1.24-1.56-.94-2.35-1.4-1.75-1-2.64-1.47c-.59-.31-1.19-.6-1.79-.9s-1.29-.65-1.94-1-1.27-.57-1.91-.86-1.28-.56-1.92-.83-1.31-.53-2-.78l-1.95-.73-2-.7c-.66-.22-1.32-.43-2-.63s-1.37-.42-2.06-.62-1.37-.37-2.06-.54-1.37-.36-2.06-.52-1.5-.32-2.25-.47A89.73,89.73,0,0,0,36.2,138.39l-.26.26c-.81.81-1.59,1.64-2.37,2.48l-.53.56c-.7.78-1.39,1.57-2.07,2.37l-.69.81c-.62.75-1.22,1.51-1.82,2.28l-.79,1c-.55.73-1.09,1.48-1.62,2.23l-.84,1.19c-.49.72-1,1.45-1.44,2.18-.29.45-.58.9-.86,1.35q-.66,1.06-1.28,2.15-.43.75-.85,1.5-.58,1.05-1.14,2.12-.42.81-.83,1.63-.52,1-1,2.09c-.27.58-.53,1.17-.79,1.76s-.6,1.38-.88,2.08-.49,1.24-.73,1.87-.52,1.37-.77,2.06-.45,1.32-.67,2-.45,1.35-.65,2-.4,1.4-.59,2.1-.37,1.33-.54,2-.34,1.47-.51,2.21-.3,1.31-.43,2-.28,1.55-.42,2.33-.23,1.28-.33,1.92c-.12.83-.22,1.67-.32,2.5-.07.61-.16,1.21-.22,1.82-.09.94-.15,1.89-.22,2.83,0,.52-.09,1-.11,1.55q-.11,2.08-.11,4.18c0,.08,0,.16,0,.25a91,91,0,0,0,.74,11.56,89.94,89.94,0,0,0,24.27,51,28.5,28.5,0,0,1,7.88,19.7v18.56a24.35,24.35,0,0,0,21.88,24.24,24.64,24.64,0,0,0,2.49.13h66a24.64,24.64,0,0,0,2.49-.13,24.21,24.21,0,0,0,9-2.78l.08,0a24.37,24.37,0,0,0,12.75-21.43V284.31a28.57,28.57,0,0,1,4.4-15.1,30.45,30.45,0,0,1,3.75-4.88A90.6,90.6,0,0,0,176.6,249.55Z"/><polygon class="cls-6" points="128.52 207.86 94.21 207.86 113.76 146 65.15 221.14 98.63 221.14 78.26 283 128.52 207.86"/><path class="cls-5" d="M99.75,408.8v25.07a29.63,29.63,0,0,0,29.63,29.63h34.06a29.63,29.63,0,0,0,29.63-29.63v-98a29.63,29.63,0,0,1,29.63-29.63h35.66a29.64,29.64,0,0,1,27.17,17.8"/><path class="cls-7" d="M296.76,306.81,210.86,455.58A7.61,7.61,0,0,0,217.46,467H389.24a7.61,7.61,0,0,0,6.59-11.42L309.94,306.81A7.61,7.61,0,0,0,296.76,306.81Z"/><circle class="cls-8" cx="303.35" cy="441.28" r="8.06"/><path class="cls-8" d="M303.73,423.23h0a4.12,4.12,0,0,1-4.11-3.83l-4-57.8a4.12,4.12,0,0,1,4.11-4.4h8.07a4.12,4.12,0,0,1,4.11,4.4l-4,57.8A4.12,4.12,0,0,1,303.73,423.23Z"/></g></svg>