<svg xmlns="http://www.w3.org/2000/svg" viewBox="0 0 440 456"><defs><style>.cls-1{fill:#f5f9ff;}.cls-2,.cls-3,.cls-4{fill:none;stroke:#a9c9e8;stroke-miterlimit:10;stroke-width:1.44px;}.cls-3,.cls-4,.cls-5,.cls-6{stroke-linecap:round;}.cls-4{stroke-dasharray:7.67 7.67;}.cls-5{fill:#90b1da;}.cls-5,.cls-6{stroke:#174799;stroke-linejoin:round;stroke-width:5.67px;}.cls-6{fill:#fff;}</style></defs><title>icon trang ho tro</title><g id="Layer_1" data-name="Layer 1"><circle class="cls-1" cx="224.12" cy="227.59" r="206.69"/><circle class="cls-2" cx="316.56" cy="94.2" r="4.08"/><circle class="cls-2" cx="154.56" cy="70.2" r="4.08"/><line class="cls-3" x1="376.36" y1="122.28" x2="376.36" y2="127.56"/><line class="cls-3" x1="376.36" y1="130.2" x2="376.36" y2="135.48"/><line class="cls-3" x1="382.96" y1="128.88" x2="377.68" y2="128.88"/><line class="cls-3" x1="375.04" y1="128.88" x2="369.76" y2="128.88"/><line class="cls-3" x1="341.84" y1="186.68" x2="341.84" y2="191.96"/><line class="cls-3" x1="341.84" y1="194.6" x2="341.84" y2="199.88"/><line class="cls-3" x1="348.44" y1="193.28" x2="343.16" y2="193.28"/><line class="cls-3" x1="340.52" y1="193.28" x2="335.24" y2="193.28"/><line class="cls-3" x1="341.28" y1="311.32" x2="341.28" y2="316.6"/><line class="cls-3" x1="341.28" y1="319.24" x2="341.28" y2="324.52"/><line class="cls-3" x1="347.88" y1="317.92" x2="342.6" y2="317.92"/><line class="cls-3" x1="339.96" y1="317.92" x2="334.68" y2="317.92"/><line class="cls-3" x1="365.5" y1="250.5" x2="371.5" y2="250.5"/><line class="cls-4" x1="379.17" y1="250.5" x2="390.67" y2="250.5"/><line class="cls-3" x1="394.5" y1="250.5" x2="400.5" y2="250.5"/><line class="cls-3" x1="215.5" y1="55.5" x2="221.5" y2="55.5"/><line class="cls-4" x1="229.17" y1="55.5" x2="240.67" y2="55.5"/><line class="cls-3" x1="244.5" y1="55.5" x2="250.5" y2="55.5"/><rect class="cls-5" x="13.74" y="133.83" width="232.55" height="284.22"/><polygon class="cls-6" points="276 445.18 43.45 445.18 43.45 160.96 223.4 160.96 276 204.32 276 445.18"/><polygon class="cls-5" points="224.32 160.96 224.32 205.25 276 205.25 224.32 160.96"/><line class="cls-5" x1="72.98" y1="208.94" x2="140.35" y2="208.94"/><line class="cls-5" x1="72.98" y1="266.53" x2="244.62" y2="266.53"/><line class="cls-5" x1="72.98" y1="303.44" x2="246.29" y2="303.44"/><line class="cls-5" x1="72.98" y1="340.35" x2="248.32" y2="340.35"/><line class="cls-5" x1="189.44" y1="393.51" x2="248.32" y2="393.51"/></g></svg>