<svg xmlns="http://www.w3.org/2000/svg" viewBox="0 0 440 477"><defs><style>.cls-1{fill:#f5f9ff;}.cls-2,.cls-3,.cls-4{fill:none;stroke:#a9c9e8;stroke-miterlimit:10;stroke-width:1.44px;}.cls-3,.cls-4,.cls-5,.cls-6{stroke-linecap:round;}.cls-4{stroke-dasharray:7.67 7.67;}.cls-5{fill:#fff;}.cls-5,.cls-6{stroke:#174799;stroke-linejoin:round;stroke-width:4.26px;}.cls-6{fill:#90b1da;}</style></defs><title>icon trang ho tro</title><g id="Layer_1" data-name="Layer 1"><circle class="cls-1" cx="222.12" cy="227.59" r="206.69"/><circle class="cls-2" cx="314.56" cy="94.2" r="4.08"/><circle class="cls-2" cx="152.56" cy="70.2" r="4.08"/><line class="cls-3" x1="374.36" y1="122.28" x2="374.36" y2="127.56"/><line class="cls-3" x1="374.36" y1="130.2" x2="374.36" y2="135.48"/><line class="cls-3" x1="380.96" y1="128.88" x2="375.68" y2="128.88"/><line class="cls-3" x1="373.04" y1="128.88" x2="367.76" y2="128.88"/><line class="cls-3" x1="339.84" y1="186.68" x2="339.84" y2="191.96"/><line class="cls-3" x1="339.84" y1="194.6" x2="339.84" y2="199.88"/><line class="cls-3" x1="346.44" y1="193.28" x2="341.16" y2="193.28"/><line class="cls-3" x1="338.52" y1="193.28" x2="333.24" y2="193.28"/><line class="cls-3" x1="339.28" y1="311.32" x2="339.28" y2="316.6"/><line class="cls-3" x1="339.28" y1="319.24" x2="339.28" y2="324.52"/><line class="cls-3" x1="345.88" y1="317.92" x2="340.6" y2="317.92"/><line class="cls-3" x1="337.96" y1="317.92" x2="332.68" y2="317.92"/><line class="cls-3" x1="363.5" y1="250.5" x2="369.5" y2="250.5"/><line class="cls-4" x1="377.17" y1="250.5" x2="388.67" y2="250.5"/><line class="cls-3" x1="392.5" y1="250.5" x2="398.5" y2="250.5"/><line class="cls-3" x1="213.5" y1="55.5" x2="219.5" y2="55.5"/><line class="cls-4" x1="227.17" y1="55.5" x2="238.67" y2="55.5"/><line class="cls-3" x1="242.5" y1="55.5" x2="248.5" y2="55.5"/><path class="cls-5" d="M261.78,258.06H202.16a7.22,7.22,0,0,1-7.22-7.22V191.22a7.22,7.22,0,0,0-7.22-7.22H90.28a7.22,7.22,0,0,0-7.22,7.22v59.62a7.22,7.22,0,0,1-7.22,7.22H16.22A7.22,7.22,0,0,0,9,265.28v97.43a7.22,7.22,0,0,0,7.22,7.22H75.84a7.22,7.22,0,0,1,7.22,7.22v59.62A7.22,7.22,0,0,0,90.28,444h97.43a7.22,7.22,0,0,0,7.22-7.22V377.16a7.22,7.22,0,0,1,7.22-7.22h59.62a7.22,7.22,0,0,0,7.22-7.22V265.28A7.22,7.22,0,0,0,261.78,258.06Z"/><polygon class="cls-6" points="180.76 331.97 156.97 331.97 156.97 355.76 121.03 355.76 121.03 331.97 97.24 331.97 97.24 296.03 121.03 296.03 121.03 272.24 156.97 272.24 156.97 296.03 180.76 296.03 180.76 331.97"/></g></svg>