<svg xmlns="http://www.w3.org/2000/svg" viewBox="0 0 186.4 60"><defs><style>.cls-1{fill:#2a3a90;}.cls-1,.cls-2,.cls-3{fill-rule:evenodd;}.cls-2,.cls-5{fill:#ed1c24;}.cls-3{fill:#fff200;}.cls-4{fill:#000f9f;}</style></defs><title>logo</title><g id="Layer_1" data-name="Layer 1"><polygon class="cls-1" points="58.59 29.99 35.06 35.03 30.01 58.57 24.97 35.03 1.43 29.99 24.97 24.95 30.01 1.43 35.06 24.95 58.59 29.99"/><polygon class="cls-2" points="30.01 47.14 26.66 33.35 12.86 29.99 26.66 26.63 30.01 12.86 33.36 26.63 47.16 29.99 33.36 33.35 30.01 47.14"/><path class="cls-1" d="M30,0A30,30,0,1,1,0,30,30,30,0,0,1,30,0m0,1.43A28.57,28.57,0,1,0,58.59,30,28.58,28.58,0,0,0,30,1.43"/><polygon class="cls-3" points="30.01 37.13 28.33 31.67 22.87 29.99 28.33 28.31 30.01 22.85 31.68 28.31 37.15 29.99 31.68 31.67 30.01 37.13"/><path class="cls-4" d="M110.41,12.07V30.12h5.66V24.4l-.22-4.11,6.44,9.83h5.54v-18h-5.66v5.74l.22,4.11L116,12.07Zm-8.58,18.05,6.27-18h-6l-3.28,12-3.16-12h-6l6.17,18.05ZM88,25.91H78.89V23.08h7.45V18.86H78.89V16.28h8.8V12.07H73V30.12H88Z"/><path class="cls-5" d="M186.4,18.19a6.1,6.1,0,0,0-2-4.88q-2-1.72-5.84-1.72a10.08,10.08,0,0,0-6.82,2.56,11.33,11.33,0,0,0-3.84,6.92,13.25,13.25,0,0,0-.2,2.21,6.92,6.92,0,0,0,2.12,5.37,8.51,8.51,0,0,0,6,2,10,10,0,0,0,9.93-7.47h-5.69q-.93,3-3.56,3.05c-1.92,0-2.89-1-2.89-3a11.68,11.68,0,0,1,.18-1.88q.93-5.26,4.26-5.27a2.7,2.7,0,0,1,2.11.78,2.73,2.73,0,0,1,.57,2.18h5.62ZM156,24.5h3q7.5,0,8.63-6.34a6.86,6.86,0,0,0,.12-1.25,4.15,4.15,0,0,0-1.65-3.54,8.38,8.38,0,0,0-5.09-1.3h-8.7l-3.19,18.05H155Zm1.45-8.22h1.68c1.91,0,2.86.52,2.86,1.56l0,.35a2.45,2.45,0,0,1-2.76,2.1h-2.46Zm-10.28-3q-1.72-1.68-5.29-1.68A10.86,10.86,0,0,0,136,13.05a6,6,0,0,0-3,4.31,5.51,5.51,0,0,0-.1,1,3.94,3.94,0,0,0,2.45,3.68,35.06,35.06,0,0,0,4.49,1.41c1.56.41,2.27,1,2.16,1.63-.15.88-1.05,1.32-2.68,1.32a2.73,2.73,0,0,1-1.63-.47,1.67,1.67,0,0,1-.71-1.41h-5.66l-.05.73A4.62,4.62,0,0,0,133.15,29a8,8,0,0,0,5.16,1.56,11.94,11.94,0,0,0,6.35-1.53,6.66,6.66,0,0,0,3.18-4.69,4.65,4.65,0,0,0,.1-.95,3.88,3.88,0,0,0-2.48-3.59,40.58,40.58,0,0,0-4.49-1.4c-1.55-.44-2.27-1-2.16-1.66s.81-1,2.06-1a3,3,0,0,1,1.52.36,1.23,1.23,0,0,1,.59,1.2h5.61A5.05,5.05,0,0,0,147.16,13.27Z"/><path class="cls-4" d="M120.55,44.37h4.17l-.92,5.21h4.41l2.37-13.44h-4.41l-.8,4.53H121.2l.81-4.53H117.6l-2.37,13.44h4.41Zm-15.8,5.21.75-4.25,1.25-1.11L109,49.58h5.28l-4-8.38,5.81-5.06H111l-4.63,4.35.76-4.35h-4.4l-2.38,13.44ZM99.13,37a5.48,5.48,0,0,0-3.94-1.25,8.11,8.11,0,0,0-4.35,1.08,4.52,4.52,0,0,0-2.23,3.22l-.07.76a2.94,2.94,0,0,0,1.83,2.75,24.88,24.88,0,0,0,3.34,1c1.16.32,1.7.72,1.61,1.22-.11.66-.78,1-2,1a2,2,0,0,1-1.21-.36,1.24,1.24,0,0,1-.53-1H87.36l0,.54a3.44,3.44,0,0,0,1.36,2.8,6,6,0,0,0,3.85,1.16,8.87,8.87,0,0,0,4.72-1.14,5,5,0,0,0,2.37-3.49l.08-.71a2.89,2.89,0,0,0-1.85-2.67,27,27,0,0,0-3.34-1c-1.16-.32-1.7-.73-1.61-1.23s.6-.77,1.53-.77a2.28,2.28,0,0,1,1.13.26A.92.92,0,0,1,96,40h4.18A3.78,3.78,0,0,0,99.13,37ZM87.42,40.69a4.52,4.52,0,0,0-1.48-3.63,6.47,6.47,0,0,0-4.35-1.28,7.56,7.56,0,0,0-5.08,1.91,8.47,8.47,0,0,0-2.86,5.15,10.58,10.58,0,0,0-.14,1.64,5.16,5.16,0,0,0,1.57,4,6.35,6.35,0,0,0,4.46,1.45,7.59,7.59,0,0,0,4.66-1.49,7.5,7.5,0,0,0,2.73-4.08H82.69c-.46,1.52-1.34,2.28-2.65,2.28s-2.15-.75-2.15-2.26A8.69,8.69,0,0,1,78,43c.46-2.61,1.51-3.92,3.17-3.92a2,2,0,0,1,1.57.58,2,2,0,0,1,.43,1.62h4.18Z"/></g></svg>