<svg xmlns="http://www.w3.org/2000/svg" viewBox="0 0 443 449"><defs><style>.cls-1{fill:#f5f9ff;}.cls-2,.cls-3,.cls-4,.cls-7{fill:none;}.cls-2,.cls-3,.cls-4{stroke:#a9c9e8;stroke-miterlimit:10;stroke-width:1.44px;}.cls-3,.cls-4,.cls-5,.cls-6,.cls-7{stroke-linecap:round;}.cls-4{stroke-dasharray:7.67 7.67;}.cls-5{fill:#90b1da;stroke:#174799;}.cls-5,.cls-6,.cls-7{stroke-linejoin:round;stroke-width:5.67px;}.cls-6{fill:#fff;}.cls-6,.cls-7{stroke:#17479a;}</style></defs><title>web CSKH EVNSPC-icon trang ho tro</title><g id="Layer_1" data-name="Layer 1"><circle class="cls-1" cx="229.12" cy="209.59" r="206.69"/><circle class="cls-2" cx="321.56" cy="76.2" r="4.08"/><circle class="cls-2" cx="159.56" cy="52.2" r="4.08"/><line class="cls-3" x1="381.36" y1="104.28" x2="381.36" y2="109.56"/><line class="cls-3" x1="381.36" y1="112.2" x2="381.36" y2="117.48"/><line class="cls-3" x1="387.96" y1="110.88" x2="382.68" y2="110.88"/><line class="cls-3" x1="380.04" y1="110.88" x2="374.76" y2="110.88"/><line class="cls-3" x1="346.84" y1="168.68" x2="346.84" y2="173.96"/><line class="cls-3" x1="346.84" y1="176.6" x2="346.84" y2="181.88"/><line class="cls-3" x1="353.44" y1="175.28" x2="348.16" y2="175.28"/><line class="cls-3" x1="345.52" y1="175.28" x2="340.24" y2="175.28"/><line class="cls-3" x1="346.28" y1="293.32" x2="346.28" y2="298.6"/><line class="cls-3" x1="346.28" y1="301.24" x2="346.28" y2="306.52"/><line class="cls-3" x1="352.88" y1="299.92" x2="347.6" y2="299.92"/><line class="cls-3" x1="344.96" y1="299.92" x2="339.68" y2="299.92"/><line class="cls-3" x1="370.5" y1="232.5" x2="376.5" y2="232.5"/><line class="cls-4" x1="384.17" y1="232.5" x2="395.67" y2="232.5"/><line class="cls-3" x1="399.5" y1="232.5" x2="405.5" y2="232.5"/><line class="cls-3" x1="220.5" y1="37.5" x2="226.5" y2="37.5"/><line class="cls-4" x1="234.17" y1="37.5" x2="245.67" y2="37.5"/><line class="cls-3" x1="249.5" y1="37.5" x2="255.5" y2="37.5"/><path class="cls-5" d="M241.23,440.54h-182a18.68,18.68,0,0,1-18.68-18.68L25.11,318.59a18.68,18.68,0,0,1,18.68-18.68H256.71a18.68,18.68,0,0,1,18.68,18.68L259.91,421.86A18.68,18.68,0,0,1,241.23,440.54Z"/><circle class="cls-6" cx="150.25" cy="230.25" r="136.75"/><path class="cls-5" d="M150.25,138.65A91.58,91.58,0,0,0,87.91,297.33H212.59a91.58,91.58,0,0,0-62.34-158.68Z"/><path class="cls-7" d="M217.33,227a67.08,67.08,0,0,0-134.17,0"/><circle class="cls-6" cx="151.54" cy="298.62" r="16.77"/><line class="cls-6" x1="161.45" y1="283.52" x2="201.08" y2="223.12"/></g></svg>