<svg xmlns="http://www.w3.org/2000/svg" viewBox="0 0 93.26 87.27"><defs><style>.cls-1,.cls-2{fill:none;}.cls-2{stroke:#fff;stroke-linecap:round;stroke-linejoin:round;stroke-width:2.27px;}</style></defs><title>icon-ttht-white</title><g id="Layer_1" data-name="Layer 1"><circle class="cls-1" cx="70.87" cy="64.88" r="21.25"/><path class="cls-2" d="M49.62,64.88A21.24,21.24,0,0,1,70.68,43.64V5a3.86,3.86,0,0,0-3.86-3.87H5A3.87,3.87,0,0,0,1.13,5V82.27A3.86,3.86,0,0,0,5,86.13H70.68A21.25,21.25,0,0,1,49.62,64.88Z"/><line class="cls-2" x1="11.76" y1="48.85" x2="38.8" y2="48.85"/><line class="cls-2" x1="11.76" y1="56.58" x2="38.8" y2="56.58"/><line class="cls-2" x1="11.76" y1="64.3" x2="38.8" y2="64.3"/><line class="cls-2" x1="11.76" y1="72.03" x2="38.8" y2="72.03"/><path class="cls-2" d="M92.12,64.88A21.25,21.25,0,1,1,82.81,47.3"/><polyline class="cls-2" points="90.8 52.93 70.8 72.93 61.09 63.22"/><rect class="cls-2" x="11.86" y="9.81" width="18.03" height="23.18"/><line class="cls-2" x1="37.61" y1="9.81" x2="60.79" y2="9.81"/><line class="cls-2" x1="37.61" y1="17.53" x2="50.49" y2="17.53"/></g></svg>