<svg xmlns="http://www.w3.org/2000/svg" viewBox="0 0 115.27 88.39"><defs><style>.cls-1{fill:#90b1da;}.cls-1,.cls-2{stroke:#174799;stroke-linecap:round;stroke-linejoin:round;stroke-width:2.27px;}.cls-2{fill:#fff;}.cls-3{fill:#174799;}</style></defs><title>icon-ttht</title><g id="Layer_1" data-name="Layer 1"><path class="cls-1" d="M55.07,49H88.82L102.88,60.2V49h5.63a5.62,5.62,0,0,0,5.62-5.63V6.76a5.62,5.62,0,0,0-5.62-5.63H55.07a5.62,5.62,0,0,0-5.62,5.63V43.32A5.62,5.62,0,0,0,55.07,49Z"/><path class="cls-2" d="M60.2,76H26.45L12.38,87.26V76H6.76a5.63,5.63,0,0,1-5.63-5.63V33.82A5.62,5.62,0,0,1,6.76,28.2H60.2a5.62,5.62,0,0,1,5.62,5.62V70.38A5.63,5.63,0,0,1,60.2,76Z"/><path class="cls-3" d="M40.54,63.89l-3-2.38A8.24,8.24,0,0,1,32,63.56a8.64,8.64,0,0,1-4.29-1.12,7.9,7.9,0,0,1-3.09-3.11,6.53,6.53,0,0,1-.79-2.28,43.46,43.46,0,0,1-.23-5.46,43.38,43.38,0,0,1,.23-5.45A7.33,7.33,0,0,1,27.34,41,8.42,8.42,0,0,1,32,39.62a8.59,8.59,0,0,1,4.28,1.13,7.87,7.87,0,0,1,3.09,3.1,6.53,6.53,0,0,1,.79,2.28,41.25,41.25,0,0,1,.24,5.46c0,2.14,0,3.38,0,3.73A9.46,9.46,0,0,1,39.55,59l3.11,2.48Zm-5.88-4.74-3-2.37,2.12-2.45,2.74,2.19a22.34,22.34,0,0,0,.33-4.93c0-1.89,0-3.05-.06-3.47a6.18,6.18,0,0,0-1.36-3.5A4.31,4.31,0,0,0,32,43.19a4.32,4.32,0,0,0-3.41,1.43,6.11,6.11,0,0,0-1.35,3.5c-.05.42-.07,1.58-.07,3.47s0,3.06.07,3.48a6.14,6.14,0,0,0,1.35,3.5A4.32,4.32,0,0,0,32,60,4.22,4.22,0,0,0,34.66,59.15Z"/><path class="cls-3" d="M88,37l-1.85-5.26H77.18L75.35,37H71.58l8.57-23.54h3L91.69,37ZM78.19,28.6h6.88l-3.4-10.29H81.6Z"/></g></svg>