<svg xmlns="http://www.w3.org/2000/svg" viewBox="0 0 104.33 109.08"><defs><style>.cls-1{fill:none;}.cls-1,.cls-2{stroke:#17479b;stroke-linecap:round;stroke-linejoin:round;stroke-width:2.83px;}.cls-2{fill:#92b3dc;}</style></defs><title>icon_bangiamdoc</title><g id="Layer_1" data-name="Layer 1"><path class="cls-1" d="M3.39,66.24a50.76,50.76,0,1,1,48.78,36.68"/><circle class="cls-2" cx="52.17" cy="102.92" r="4.74"/><path class="cls-2" d="M3.39,66.24H5.65a4.09,4.09,0,0,0,4.09-4.09V42.48a4.09,4.09,0,0,0-4.09-4.09H3.33A50.51,50.51,0,0,0,1.42,52.17,51,51,0,0,0,3.39,66.24Z"/><path class="cls-2" d="M100.94,66.24H98.68a4.09,4.09,0,0,1-4.09-4.09V42.48a4.09,4.09,0,0,1,4.09-4.09H101a50.82,50.82,0,0,1-.07,27.85Z"/><path class="cls-1" d="M52.17,20.15a32,32,0,0,0-25,52L18.74,91.9l20.9-10.26h0A32,32,0,1,0,52.17,20.15Z"/></g></svg>