<svg xmlns="http://www.w3.org/2000/svg" viewBox="0 0 104.33 104.33"><defs><style>.cls-1{fill:none;}.cls-1,.cls-2{stroke:#17479b;stroke-linecap:round;stroke-linejoin:round;stroke-width:2.83px;}.cls-2{fill:#92b3dc;}</style></defs><title>icon_bangiamdoc</title><g id="Layer_1" data-name="Layer 1"><circle class="cls-1" cx="52.17" cy="52.17" r="50.75"/><path class="cls-1" d="M52.17,43.36V23.45a7.1,7.1,0,0,0-7.09-7.09H15.92"/><path class="cls-1" d="M66.72,3.53V35.06A4.25,4.25,0,0,0,71,39.31h2.24a4.26,4.26,0,0,1,4.26,4.26V60.06"/><circle class="cls-2" cx="77.47" cy="64.47" r="4.4"/><path class="cls-1" d="M1.75,57.31h21A4.25,4.25,0,0,1,27,61.56v3.3a4.25,4.25,0,0,0,4.26,4.25H47.76"/><circle class="cls-2" cx="52.17" cy="69.51" r="4.4"/><circle class="cls-2" cx="52.17" cy="47.76" r="4.4"/><line class="cls-1" x1="1.75" y1="47.76" x2="27.11" y2="47.76"/><circle class="cls-2" cx="31.51" cy="47.76" r="4.4"/><circle class="cls-2" cx="23.18" cy="80.43" r="4.4"/><path class="cls-1" d="M89.32,17.6V51.65a7.1,7.1,0,0,0,7.09,7.09h6.06"/><path class="cls-1" d="M27.58,80.43H41.33a7.09,7.09,0,0,1,7.09,7.09v15.4"/><path class="cls-1" d="M58.78,102.49V83.2a7.09,7.09,0,0,1,7.08-7.09H96.74"/></g></svg>