<svg xmlns="http://www.w3.org/2000/svg" viewBox="0 0 104.33 101.55"><defs><style>.cls-1{fill:none;}.cls-1,.cls-2{stroke:#17479b;stroke-linecap:round;stroke-linejoin:round;stroke-width:2.83px;}.cls-2{fill:#92b3dc;}</style></defs><title>icon_bangiamdoc</title><g id="Layer_1" data-name="Layer 1"><path class="cls-1" d="M59.14,10.72V1.42H42.4v9.3a40.82,40.82,0,0,0-14,5.82L21.79,10,10,21.79l6.58,6.59a40.82,40.82,0,0,0-5.82,14H1.42V59.14h9.3a40.87,40.87,0,0,0,5.82,14L10,79.76,21.79,91.59,28.38,85a40.43,40.43,0,0,0,14,5.82v9.31H59.14V90.82"/><polyline class="cls-1" points="61 23.27 65.03 23.27 77.89 15.05"/><line class="cls-1" x1="55.19" y1="23.27" x2="56.89" y2="23.27"/><path class="cls-1" d="M50.77,78.28a27.51,27.51,0,0,1,0-55"/><path class="cls-1" d="M50.77,65.49a14.72,14.72,0,0,1,0-29.44H69.68l9.76-6.58H90.75"/><circle class="cls-2" cx="82.76" cy="11.68" r="6.08"/><circle class="cls-2" cx="96.84" cy="29.47" r="6.08"/><path class="cls-1" d="M50.77,23.25a27.51,27.51,0,0,0,0,55H65l12.86,8.21"/><polyline class="cls-1" points="67.04 65.48 69.68 65.48 79.44 72.06 90.75 72.06"/><line class="cls-1" x1="62.78" y1="65.48" x2="64.49" y2="65.48"/><path class="cls-1" d="M50.77,36a14.73,14.73,0,0,0,0,29.45H60"/><circle class="cls-2" cx="82.76" cy="89.85" r="6.08"/><circle class="cls-2" cx="96.84" cy="72.06" r="6.08"/><circle class="cls-2" cx="96.84" cy="50.77" r="6.08"/><line class="cls-1" x1="62.51" y1="50.77" x2="90.75" y2="50.77"/><line class="cls-1" x1="57.51" y1="50.77" x2="58.91" y2="50.77"/><line class="cls-1" x1="46.74" y1="50.77" x2="53.62" y2="50.77"/></g></svg>