<svg xmlns="http://www.w3.org/2000/svg" viewBox="0 0 70.9 96.06"><defs><style>.cls-1{fill:none;}.cls-1,.cls-2{stroke:#fff;stroke-linecap:round;stroke-linejoin:round;stroke-width:1.73px;}.cls-2{fill:#90b1da;}.cls-3{font-size:17.82px;fill:#fff;font-family:MyriadPro-Regular, Myriad Pro;}.cls-4{letter-spacing:0.01em;}</style></defs><title>icon_dvtt</title><g id="Layer_1" data-name="Layer 1"><path class="cls-1" d="M4.53,7.56H9.19a0,0,0,0,1,0,0v10.1A2.33,2.33,0,0,1,6.86,20h0a2.33,2.33,0,0,1-2.33-2.33V7.56a0,0,0,0,1,0,0Z" transform="translate(21.44 18.65) rotate(135)"/><path class="cls-1" d="M17.16-5.07h4.66a0,0,0,0,1,0,0V5a2.33,2.33,0,0,1-2.33,2.33h0A2.33,2.33,0,0,1,17.16,5V-5.07a0,0,0,0,1,0,0Z" transform="translate(34.07 -11.84) rotate(135)"/><rect class="cls-1" x="3.96" y="11.05" width="31.06" height="5.44" transform="translate(43 9.72) rotate(135)"/><path class="cls-1" d="M21.36,15.74l.1-.1,9.33-9.33,4.91,4.91a6.91,6.91,0,0,1,1.45,7.64l-.1.24a5.18,5.18,0,0,0,1.08,5.72l3,3-3.75,3.75-.09.09-3.75,3.75-3-3a5.18,5.18,0,0,0-5.72-1.08l-.24.1A6.91,6.91,0,0,1,16.94,30L12,25.07Z"/><polygon class="cls-2" points="27.51 20.78 26.5 15.54 23.61 18.43 26.11 25.81 29.15 22.79 32.09 27.52 30.26 18.03 27.51 20.78"/><path class="cls-1" d="M21.91,92.89l4.67-4.67L10.25,71.88A9.51,9.51,0,0,1,23.7,58.43l4.94,4.94A16.11,16.11,0,0,0,51.43,40.58l-9.75-9.75L37,35.5l9.75,9.75A9.51,9.51,0,0,1,33.31,58.7l-4.94-4.94A16.11,16.11,0,0,0,5.58,76.55Z"/><text class="cls-3" transform="translate(35.09 91.61)"><tspan class="cls-4">H</tspan><tspan x="11.8" y="0">igh</tspan></text></g></svg>