<svg xmlns="http://www.w3.org/2000/svg" viewBox="0 0 91.73 91.74"><defs><style>.cls-1{fill:none;stroke:#fff;stroke-linecap:round;stroke-linejoin:round;stroke-width:1.73px;}.cls-2{fill:#fff;}</style></defs><title>icon-dvtt-white</title><g id="Layer_1" data-name="Layer 1"><g id="Layer_1-2" data-name="Layer 1-2"><rect class="cls-1" x="48.82" y="27.5" width="6.42" height="36.68"/><path class="cls-1" d="M48.81,45.92V30.18H40.62A8.16,8.16,0,0,0,33,35.35l-.11.28a6.11,6.11,0,0,1-5.68,3.87h-5V52.19h5a6.12,6.12,0,0,1,5.68,3.87l.11.28a8.15,8.15,0,0,0,7.6,5.17h8.2Z"/><path class="cls-1" d="M69.91,56.39h0a2.75,2.75,0,0,1-2.75,2.75H55.23v-5.5H67.15a2.74,2.74,0,0,1,2.75,2.74Z"/><path class="cls-1" d="M69.89,35.3h0a2.75,2.75,0,0,1-2.75,2.75H55.24v-5.5H67.16A2.75,2.75,0,0,1,69.89,35.3Z"/><polygon class="cls-1" points="39.47 45.76 44.67 49.3 44.67 44.48 36.42 40.4 36.41 45.46 30 43.97 39.47 50.37 39.47 45.76"/><path class="cls-1" d="M18.72,10A45,45,0,1,1,.87,45.84h14"/><polygon class="cls-2" points="27.52 12.51 27.77 10.8 19.32 9.66 21.07 1.32 19.39 0.96 17.25 11.12 27.52 12.51"/></g></g></svg>