<svg xmlns="http://www.w3.org/2000/svg" viewBox="0 0 104.64 56.82"><defs><style>.cls-1{fill:none;stroke:#fff;stroke-linecap:round;stroke-linejoin:round;stroke-width:1.73px;}</style></defs><title>icon-dvtt-white</title><g id="Layer_1" data-name="Layer 1"><g id="Layer_1-2" data-name="Layer 1-2"><path class="cls-1" d="M103.78,51.61a51.46,51.46,0,0,0-102.91,0Z"/><path class="cls-1" d="M56.37,11.58V25.92a25.8,25.8,0,0,1,11.26,4.66L77.77,20.45A40,40,0,0,0,56.37,11.58Z"/><path class="cls-1" d="M73.35,36.3a25.91,25.91,0,0,1,5,15.31h14.2a40.2,40.2,0,0,0-9.07-25.45Z"/><path class="cls-1" d="M37,30.58a25.79,25.79,0,0,1,11.27-4.66V11.58a40,40,0,0,0-21.4,8.87Z"/><path class="cls-1" d="M21.16,26.16a40,40,0,0,0-9.07,25.45h14.2a25.78,25.78,0,0,1,5-15.31Z"/><line class="cls-1" x1="52.32" y1="51.09" x2="36.89" y2="20.73"/><circle class="cls-1" cx="52.32" cy="51.09" r="4.87"/></g></g></svg>