<svg xmlns="http://www.w3.org/2000/svg" viewBox="0 0 93.26 87.27"><defs><style>.cls-1{fill:#90b1da;}.cls-1,.cls-2{stroke:#174799;stroke-linecap:round;stroke-linejoin:round;stroke-width:2.27px;}.cls-2{fill:none;}</style></defs><title>icon</title><g id="Layer_1" data-name="Layer 1"><circle class="cls-1" cx="70.87" cy="64.88" r="21.25"/><path class="cls-2" d="M49.62,64.88A21.24,21.24,0,0,1,70.68,43.64V5a3.86,3.86,0,0,0-3.86-3.87H5A3.87,3.87,0,0,0,1.13,5V82.27A3.86,3.86,0,0,0,5,86.13H70.68A21.25,21.25,0,0,1,49.62,64.88Z"/><line class="cls-1" x1="28.6" y1="13.88" x2="60.54" y2="13.88"/><line class="cls-1" x1="28.6" y1="21.61" x2="60.54" y2="21.61"/><line class="cls-1" x1="28.6" y1="29.34" x2="60.54" y2="29.34"/><line class="cls-1" x1="28.6" y1="37.07" x2="60.54" y2="37.07"/><line class="cls-1" x1="28.6" y1="65.4" x2="45.34" y2="65.4"/><line class="cls-1" x1="22.16" y1="72.03" x2="46.31" y2="72.03"/><path class="cls-1" d="M11.88,16.61v46l4.49,8.86,4.5-8.86v-46c0-1.51-.93-2.73-2.08-2.73H14C12.8,13.88,11.88,15.1,11.88,16.61Z"/><path class="cls-1" d="M59.6,67.57a11.59,11.59,0,0,0,22.55,0"/><polyline class="cls-2" points="57.06 71.28 58.92 66.64 63.56 68.51"/><path class="cls-1" d="M82.15,62.19a11.59,11.59,0,0,0-22.55,0"/><polyline class="cls-2" points="84.69 58.49 82.82 63.13 78.18 61.26"/></g></svg>