<svg xmlns="http://www.w3.org/2000/svg" viewBox="0 0 72.65 91.72"><defs><style>.cls-1{fill:none;stroke:#fff;stroke-linecap:round;stroke-linejoin:round;stroke-width:1.73px;}</style></defs><title>icon-dvtt-white</title><g id="Layer_1" data-name="Layer 1"><g id="Layer_1-2" data-name="Layer 1-2"><path class="cls-1" d="M59.91,90.85H12.72A4.83,4.83,0,0,1,7.88,86v0l-4-26.78a4.84,4.84,0,0,1,4.83-4.82H63.93a4.84,4.84,0,0,1,4.84,4.84L64.76,86A4.82,4.82,0,0,1,60,90.85S59.93,90.86,59.91,90.85Z"/><circle class="cls-1" cx="36.32" cy="36.32" r="35.46"/><path class="cls-1" d="M36.32,12.56A23.75,23.75,0,0,0,20.15,53.72H52.49A23.76,23.76,0,0,0,36.32,12.56Z"/><path class="cls-1" d="M53.72,35.47a17.4,17.4,0,0,0-34.8,0"/><circle class="cls-1" cx="36.65" cy="54.05" r="4.35"/><line class="cls-1" x1="39.22" y1="50.13" x2="49.5" y2="34.47"/></g></g></svg>