<svg xmlns="http://www.w3.org/2000/svg" viewBox="0 0 84.35 87.27"><defs><style>.cls-1{fill:#fff;}.cls-1,.cls-2,.cls-3{stroke:#174799;stroke-linecap:round;stroke-linejoin:round;stroke-width:2.27px;}.cls-2{fill:#90b1da;}.cls-3{fill:none;}</style></defs><title>icon</title><g id="Layer_1" data-name="Layer 1"><path class="cls-1" d="M66.61,1.13H5.08A3.85,3.85,0,0,0,1.23,5l-.1,45V82.29A3.85,3.85,0,0,0,5,86.13H66.52a3.84,3.84,0,0,0,3.84-3.84l.1-38.84V5A3.85,3.85,0,0,0,66.61,1.13Z"/><line class="cls-1" x1="11.71" y1="40.75" x2="55.87" y2="40.75"/><line class="cls-1" x1="11.71" y1="58.06" x2="34.82" y2="58.06"/><line class="cls-1" x1="11.71" y1="14.79" x2="34.82" y2="14.79"/><line class="cls-1" x1="11.71" y1="23.44" x2="55.87" y2="23.44"/><line class="cls-1" x1="11.71" y1="32.1" x2="55.87" y2="32.1"/><path class="cls-2" d="M74.19,32.84l-32.1,32.1L40,75.25l10.3-2.06,32.1-32.1a2.7,2.7,0,0,0,0-3.81L78,32.84A2.69,2.69,0,0,0,74.19,32.84Z"/><line class="cls-3" x1="79.1" y1="43.8" x2="74.75" y2="39.45"/><path class="cls-1" d="M11.75,74.06l2.89-1.45a3.48,3.48,0,0,1,4,.65h0a1.13,1.13,0,0,0,1.6,0l3.55-3.55a3.87,3.87,0,0,1,6,.59l.28.41a7.51,7.51,0,0,0,6.25,3.35h1.11"/></g></svg>