<svg xmlns="http://www.w3.org/2000/svg" viewBox="0 0 84.21 87.27"><defs><style>.cls-1{fill:none;}.cls-1,.cls-2{stroke:#174799;stroke-linecap:round;stroke-linejoin:round;stroke-width:2.27px;}.cls-2{fill:#90b1da;}</style></defs><title>icon</title><g id="Layer_1" data-name="Layer 1"><path class="cls-1" d="M29.05,56.26V27.85a3.26,3.26,0,0,1,3.27-3.27H49.58V6.9a5.77,5.77,0,0,0-5.77-5.77H6.9A5.77,5.77,0,0,0,1.13,6.9V80.37A5.76,5.76,0,0,0,6.9,86.13H43.81a5.76,5.76,0,0,0,5.77-5.76V59.54H32.32A3.27,3.27,0,0,1,29.05,56.26Z"/><path class="cls-2" d="M79.8,24.58H32.32a3.26,3.26,0,0,0-3.27,3.27V56.26a3.27,3.27,0,0,0,3.27,3.28H79.8a3.27,3.27,0,0,0,3.27-3.28V27.85A3.26,3.26,0,0,0,79.8,24.58Z"/><rect class="cls-2" x="34.19" y="38.06" width="11.82" height="8.29" rx="1.57"/><line class="cls-2" x1="34.19" y1="53.31" x2="42.01" y2="53.31"/><line class="cls-2" x1="46.1" y1="53.31" x2="53.92" y2="53.31"/><line class="cls-2" x1="58.01" y1="53.31" x2="65.83" y2="53.31"/><line class="cls-2" x1="69.92" y1="53.31" x2="77.74" y2="53.31"/><line class="cls-2" x1="77.74" y1="30.82" x2="50.01" y2="30.82"/><line class="cls-2" x1="1.13" y1="7.98" x2="49.58" y2="7.98"/><line class="cls-2" x1="1.13" y1="75.33" x2="49.58" y2="75.33"/><line class="cls-2" x1="19.95" y1="80.55" x2="30.76" y2="80.55"/></g></svg>