<svg xmlns="http://www.w3.org/2000/svg" viewBox="0 0 59.58 91.7"><defs><style>.cls-1{fill:none;stroke:#fff;stroke-linecap:round;stroke-linejoin:round;stroke-width:1.73px;}</style></defs><title>icon-dvtt-white</title><g id="Layer_1" data-name="Layer 1"><g id="Layer_1-2" data-name="Layer 1-2"><line class="cls-1" x1="16.35" y1="74.99" x2="43.23" y2="74.99"/><line class="cls-1" x1="18.62" y1="80.17" x2="40.96" y2="80.17"/><path class="cls-1" d="M21.29,85a9.11,9.11,0,0,0,17,0Z"/><path class="cls-1" d="M35,1.18l-4.17,16L37,30.29,29.17,58l2.47-22.62-9-16.06L27,.87A29,29,0,0,0,8.85,49.71,9.06,9.06,0,0,1,11.38,56v6a7.82,7.82,0,0,0,7.82,7.82H40.38A7.82,7.82,0,0,0,48.2,62h0V56a9.33,9.33,0,0,1,2.62-6.4A29,29,0,0,0,35,1.18Z"/></g></g></svg>