<svg xmlns="http://www.w3.org/2000/svg" viewBox="0 0 77.54 91.73"><defs><style>.cls-1{fill:none;stroke:#fff;stroke-linecap:round;stroke-linejoin:round;stroke-width:1.73px;}</style></defs><title>icon-dvtt-white</title><g id="Layer_1" data-name="Layer 1"><g id="Layer_1-2" data-name="Layer 1-2"><rect class="cls-1" x="0.87" y="0.87" width="67.22" height="82.16"/><polygon class="cls-1" points="76.67 90.86 9.46 90.86 9.46 8.71 36.59 8.71 35.03 25.61 40.02 40.55 37.52 53.01 44.99 40.55 42.51 28.11 47.02 8.71 61.48 8.71 76.67 21.25 76.67 90.86"/><polygon class="cls-1" points="61.73 8.71 61.73 21.52 76.67 21.52 61.73 8.71"/><line class="cls-1" x1="17.99" y1="22.58" x2="30.05" y2="22.58"/><line class="cls-1" x1="52.67" y1="39.23" x2="67.6" y2="39.23"/><line class="cls-1" x1="17.99" y1="39.23" x2="33.17" y2="39.23"/><line class="cls-1" x1="49.98" y1="49.89" x2="68.09" y2="49.89"/><line class="cls-1" x1="17.99" y1="49.89" x2="32.55" y2="49.89"/><line class="cls-1" x1="17.99" y1="60.57" x2="68.67" y2="60.57"/><line class="cls-1" x1="51.66" y1="75.94" x2="68.67" y2="75.94"/></g></g></svg>