<svg xmlns="http://www.w3.org/2000/svg" viewBox="0 0 73.2 92.27"><defs><style>.cls-1{fill:none;stroke:#174799;stroke-linecap:round;stroke-linejoin:round;stroke-width:2.27px;}</style></defs><title>icon</title><g id="Layer_1" data-name="Layer 1"><path class="cls-1" d="M60.19,91.13H13a4.84,4.84,0,0,1-4.84-4.84l-4-26.78A4.83,4.83,0,0,1,9,54.67H64.21a4.84,4.84,0,0,1,4.84,4.84L65,86.29A4.84,4.84,0,0,1,60.19,91.13Z"/><circle class="cls-1" cx="36.6" cy="36.6" r="35.46"/><path class="cls-1" d="M36.6,12.84A23.75,23.75,0,0,0,20.43,54H52.77A23.76,23.76,0,0,0,36.6,12.84Z"/><path class="cls-1" d="M54,35.75a17.4,17.4,0,0,0-34.8,0"/><circle class="cls-1" cx="36.93" cy="54.33" r="4.35"/><line class="cls-1" x1="39.5" y1="50.41" x2="49.78" y2="34.75"/></g></svg>