<svg xmlns="http://www.w3.org/2000/svg" viewBox="0 0 92.78 93.76"><defs><style>.cls-1{fill:none;stroke:#fff;stroke-linecap:round;stroke-linejoin:round;stroke-width:1.73px;}</style></defs><title>icon-dvtt-white</title><g id="Layer_1" data-name="Layer 1"><g id="Layer_1-2" data-name="Layer 1-2"><path class="cls-1" d="M16.33,60.49s11.89-17.23,30-8.33l19.87.41a14.79,14.79,0,0,0,8.23-2.3l8.42-5.37a10.35,10.35,0,0,1,5.73-1.6h.57a2.85,2.85,0,0,1,2.77,2.91,2.93,2.93,0,0,1-.39,1.36l-7,11.81a27.41,27.41,0,0,1-4.67,5.89L69.31,75.41A9.51,9.51,0,0,1,62.5,78l-29.18-.61"/><path class="cls-1" d="M46.3,52.16l18.25.38a6.1,6.1,0,0,1,6,6.18v0h0a6.09,6.09,0,0,1-6.18,6h0l-18.29-.42"/><rect class="cls-1" x="10.9" y="55.96" width="16.3" height="37.53" rx="2.06" transform="translate(-47.28 35.4) rotate(-45.04)"/><path class="cls-1" d="M68.85,15.38a14.49,14.49,0,1,0-24.95,10,4.59,4.59,0,0,1,1.26,3.16v3a3.91,3.91,0,0,0,3.91,3.91H59.66a3.91,3.91,0,0,0,3.92-3.9h0v-3a4.71,4.71,0,0,1,1.3-3.21A14.43,14.43,0,0,0,68.85,15.38Z"/><line class="cls-1" x1="47.65" y1="39.86" x2="61.09" y2="39.86"/><line class="cls-1" x1="48.78" y1="43.91" x2="59.95" y2="43.91"/><path class="cls-1" d="M44.41,12.39a10.43,10.43,0,0,1,10-7.4"/></g></g></svg>