<svg xmlns="http://www.w3.org/2000/svg" viewBox="0 0 86.05 95.04"><defs><style>.cls-1{fill:none;}.cls-1,.cls-2{stroke:#174799;stroke-linecap:round;stroke-linejoin:round;stroke-width:2.27px;}.cls-2{fill:#90b1da;}</style></defs><title>icon</title><g id="Layer_1" data-name="Layer 1"><line class="cls-1" x1="13.9" y1="62.2" x2="36.01" y2="62.2"/><line class="cls-1" x1="15.77" y1="66.46" x2="34.14" y2="66.46"/><path class="cls-2" d="M18,70.46a7.5,7.5,0,0,0,14,0Z"/><path class="cls-1" d="M45.23,37.44A23.72,23.72,0,0,0,48.77,25v0c0-.39,0-.77,0-1.15,0-.13,0-.26,0-.39l-.06-.77c0-.15,0-.3,0-.45l-.09-.69c0-.16-.05-.32-.08-.47l-.12-.67-.09-.46c0-.22-.1-.44-.16-.66s-.07-.3-.11-.44-.13-.47-.2-.7-.07-.26-.11-.38c-.1-.31-.21-.61-.32-.91a.88.88,0,0,0,0-.15c-.13-.34-.26-.68-.41-1l-.16-.36c-.1-.22-.19-.43-.3-.65l-.2-.41-.3-.57-.23-.42-.32-.54-.25-.41c-.11-.18-.23-.35-.34-.52l-.27-.4-.38-.52-.27-.37c-.15-.2-.32-.39-.48-.59a4,4,0,0,0-.26-.32c-.21-.25-.42-.49-.64-.73l-.32-.33c-.15-.15-.29-.31-.44-.45l-.37-.35-.42-.4-.4-.35-.43-.36-.41-.34-.45-.34-.43-.32-.47-.32L37.9,5l-.53-.33-.62-.37-.7-.39-.47-.23-.51-.25-.51-.23-.5-.22-.52-.21L33,2.54l-.53-.18L32,2.19,31.42,2l-.54-.15-.55-.13-.59-.13a24.31,24.31,0,0,0-5.36-.48,23.7,23.7,0,0,0-16.2,7l-.07.07c-.21.21-.42.43-.62.65L7.35,9c-.19.2-.37.41-.55.62l-.18.22q-.24.28-.48.6l-.21.27-.42.58-.22.32-.39.58-.22.35c-.12.19-.23.38-.34.57l-.23.4-.3.56-.22.43c-.09.18-.18.36-.26.55l-.21.46c-.08.19-.16.37-.23.55l-.2.5-.2.54-.18.52c-.05.18-.11.36-.17.54L2,18.68l-.15.53c-.05.2-.09.39-.13.59l-.12.52c0,.2-.07.41-.11.61s-.06.34-.08.51-.06.44-.09.66l-.06.48c0,.25,0,.5-.05.75s0,.27,0,.41c0,.36,0,.73,0,1.1,0,0,0,0,0,.07a24,24,0,0,0,6.6,16.5,7.51,7.51,0,0,1,2.08,5.2v4.9a6.46,6.46,0,0,0,5.78,6.4q.32,0,.66,0H33.66q.33,0,.66,0a6.48,6.48,0,0,0,2.39-.74h0a6.43,6.43,0,0,0,3.36-5.65v-4.9a7.6,7.6,0,0,1,1.16-4,8.75,8.75,0,0,1,1-1.28A23.6,23.6,0,0,0,45.23,37.44Z"/><rect class="cls-1" x="64.25" y="82.02" width="20.66" height="3.62" transform="translate(149.17 167.66) rotate(180)"/><path class="cls-2" d="M74.54,82h8.87V77.41a4.6,4.6,0,0,0-2.92-4.28l-.16-.06a3.44,3.44,0,0,1-2.17-3.2V67H71v2.83a3.44,3.44,0,0,1-2.18,3.2l-.16.06a4.61,4.61,0,0,0-2.91,4.28V82Z"/><path class="cls-2" d="M68.64,85.64h0a1.55,1.55,0,0,1,1.55,1.55V93.9a0,0,0,0,1,0,0h-3.1a0,0,0,0,1,0,0V87.19A1.55,1.55,0,0,1,68.64,85.64Z" transform="translate(137.29 179.54) rotate(180)"/><path class="cls-2" d="M80.52,85.64h0a1.55,1.55,0,0,1,1.55,1.55V93.9a0,0,0,0,1,0,0H79a0,0,0,0,1,0,0V87.19a1.55,1.55,0,0,1,1.55-1.55Z" transform="translate(161.05 179.54) rotate(180)"/><path class="cls-1" d="M25,79.47v6.61a7.82,7.82,0,0,0,7.82,7.82h9a7.82,7.82,0,0,0,7.82-7.82V60.22A7.82,7.82,0,0,1,57.4,52.4h9.41a7.82,7.82,0,0,1,7.82,7.82V62.4"/></g></svg>