<svg xmlns="http://www.w3.org/2000/svg" viewBox="0 0 85.38 94.5"><defs><style>.cls-1{fill:none;stroke:#fff;stroke-linecap:round;stroke-linejoin:round;stroke-width:1.73px;}</style></defs><title>icon-dvtt-white</title><g id="Layer_1" data-name="Layer 1"><g id="Layer_1-2" data-name="Layer 1-2"><line class="cls-1" x1="13.5" y1="61.93" x2="35.61" y2="61.93"/><line class="cls-1" x1="15.37" y1="66.19" x2="33.73" y2="66.19"/><path class="cls-1" d="M17.56,70.19a7.5,7.5,0,0,0,14,0Z"/><path class="cls-1" d="M44.87,37.17a23.82,23.82,0,0,0,3.5-12.49h0V23.14l-.07-.77v-.45l-.09-.69a1,1,0,0,0-.08-.47,3,3,0,0,1-.12-.67l-.14-.48c0-.22-.1-.44-.16-.66s-.07-.3-.12-.44-.13-.47-.2-.7-.07-.26-.11-.38c-.1-.31-.21-.61-.32-.91a.44.44,0,0,0-.05-.15c-.13-.34-.25-.68-.41-1L46.3,15a6.28,6.28,0,0,0-.3-.65l-.2-.41-.3-.57L45.27,13,45,12.41,44.71,12l-.34-.52-.28-.4-.38-.52-.27-.36c-.15-.21-.32-.4-.48-.6a3.92,3.92,0,0,0-.25-.32c-.21-.25-.42-.49-.64-.73l-.32-.33c-.16-.15-.29-.31-.44-.45s-.24-.24-.37-.35L40.52,7l-.4-.35-.44-.36L39.27,6l-.4-.38-.44-.31c-.15-.12-.31-.22-.47-.33l-.43-.29L37,4.36,36.39,4l-.71-.39-.47-.23-.5-.25-.51-.23-.5-.22-.52-.21-.52-.19-.53-.18-.53-.17-.54-.16-.55-.15L30,1.48l-.59-.13A24.5,24.5,0,0,0,24,.87a23.73,23.73,0,0,0-16.21,7l-.07.07c-.21.21-.42.43-.62.65l-.14.15c-.19.2-.36.41-.55.62l-.18.22-.48.6-.21.27L5.1,11l-.23.31-.39.58-.22.35c-.12.19-.23.38-.34.57l-.23.4-.3.56-.22.43c-.09.18-.18.36-.26.55l-.21.46c-.08.19-.16.37-.23.55l-.2.5-.2.54-.18.52-.18.54-.15.55-.15.53c0,.2-.09.39-.13.59l-.12.52a3.26,3.26,0,0,1-.11.61c0,.2-.05.34-.08.51s-.06.44-.09.66v2.81a24,24,0,0,0,6.59,16.5,7.52,7.52,0,0,1,2.09,5.2v4.9a6.45,6.45,0,0,0,5.78,6.4H33.91a6.47,6.47,0,0,0,2.39-.74h0a6.38,6.38,0,0,0,3.36-5.65v-4.9a7.66,7.66,0,0,1,1.16-4,9.57,9.57,0,0,1,1-1.28A24,24,0,0,0,44.87,37.17Z"/><rect class="cls-1" x="63.86" y="81.75" width="20.66" height="3.62"/><path class="cls-1" d="M74.13,81.75H83V77.14a4.59,4.59,0,0,0-2.91-4.28l-.16-.06a3.47,3.47,0,0,1-2.18-3.2V66.77H70.6V69.6a3.44,3.44,0,0,1-2.18,3.2l-.16.06a4.63,4.63,0,0,0-2.91,4.28v4.61Z"/><path class="cls-1" d="M68.24,93.63h0a1.55,1.55,0,0,1-1.55-1.55h0V85.37h3.1v6.71A1.54,1.54,0,0,1,68.24,93.63Z"/><path class="cls-1" d="M80.12,93.63h0a1.55,1.55,0,0,1-1.55-1.55h0V85.37h3.1v6.71a1.54,1.54,0,0,1-1.54,1.55Z"/><path class="cls-1" d="M24.55,79.2v6.61a7.82,7.82,0,0,0,7.82,7.82h9a7.82,7.82,0,0,0,7.81-7.82V60A7.82,7.82,0,0,1,57,52.18h9.42A7.83,7.83,0,0,1,74.23,60v2.18"/></g></g></svg>