<svg xmlns="http://www.w3.org/2000/svg" viewBox="0 0 93.3 94.27"><defs><style>.cls-1{fill:none;}.cls-1,.cls-2{stroke:#174799;stroke-linecap:round;stroke-linejoin:round;stroke-width:2.27px;}.cls-2{fill:#90b1da;}</style></defs><title>icon</title><g id="Layer_1" data-name="Layer 1"><path class="cls-1" d="M16.6,60.73s11.89-17.23,30-8.33l19.87.41a14.77,14.77,0,0,0,8.23-2.3l8.42-5.37a10.35,10.35,0,0,1,5.73-1.6h.57a2.84,2.84,0,0,1,2.38,4.27l-7,11.81a27.41,27.41,0,0,1-4.67,5.89L69.58,75.65a9.54,9.54,0,0,1-6.81,2.65l-29.18-.61"/><path class="cls-1" d="M46.57,52.4l18.25.38a6.09,6.09,0,0,1,6,6.21h0a6.09,6.09,0,0,1-6.21,6l-18.26-.38"/><rect class="cls-2" x="0.55" y="66.81" width="37.53" height="16.3" rx="2.06" transform="translate(58.62 8.27) rotate(44.96)"/><path class="cls-2" d="M69.12,15.62a14.49,14.49,0,1,0-25,10,4.57,4.57,0,0,1,1.26,3.16v3a3.91,3.91,0,0,0,3.91,3.91H59.93a3.92,3.92,0,0,0,3.92-3.91v-3a4.69,4.69,0,0,1,1.3-3.21A14.42,14.42,0,0,0,69.12,15.62Z"/><line class="cls-2" x1="47.92" y1="40.1" x2="61.36" y2="40.1"/><line class="cls-2" x1="49.05" y1="44.15" x2="60.22" y2="44.15"/><path class="cls-2" d="M44.68,12.63a10.41,10.41,0,0,1,10-7.4"/></g></svg>