<svg xmlns="http://www.w3.org/2000/svg" viewBox="0 0 92.27 94.13"><defs><style>.cls-1{fill:#90b1da;}.cls-1,.cls-2,.cls-3{stroke:#174799;stroke-linecap:round;stroke-linejoin:round;stroke-width:2.27px;}.cls-2{fill:#fff;}.cls-3{fill:none;}.cls-4{fill:#174799;}</style></defs><title>icon</title><g id="Layer_1" data-name="Layer 1"><rect class="cls-1" x="33.94" y="44.78" width="36.68" height="6.42" transform="translate(100.28 -4.29) rotate(90)"/><path class="cls-1" d="M49.07,48.07V32.33H40.88a8.16,8.16,0,0,0-7.6,5.17l-.11.28a6.1,6.1,0,0,1-5.68,3.87h-5V54.34h5a6.1,6.1,0,0,1,5.68,3.87l.11.28a8.16,8.16,0,0,0,7.6,5.17h8.19Z"/><path class="cls-2" d="M62.83,51.2h0A2.75,2.75,0,0,1,65.58,54V65.88a0,0,0,0,1,0,0h-5.5a0,0,0,0,1,0,0V54A2.75,2.75,0,0,1,62.83,51.2Z" transform="translate(121.37 -4.29) rotate(90)"/><path class="cls-2" d="M62.83,30.11h0a2.75,2.75,0,0,1,2.75,2.75V44.78a0,0,0,0,1,0,0h-5.5a0,0,0,0,1,0,0V32.86A2.75,2.75,0,0,1,62.83,30.11Z" transform="translate(100.28 -25.38) rotate(90)"/><polygon class="cls-2" points="39.73 47.91 44.95 51.45 44.95 46.63 36.69 42.55 36.68 47.61 30.27 46.12 39.73 52.52 39.73 47.91"/><path class="cls-3" d="M19.45,11.76A45,45,0,1,1,1.13,48h14"/><polygon class="cls-4" points="30.97 15.36 31.32 13.12 20.27 11.4 22.78 0.51 20.57 0 17.51 13.27 30.97 15.36"/></g></svg>