<svg xmlns="http://www.w3.org/2000/svg" viewBox="0 0 91.73 74.87"><defs><style>.cls-1{fill:none;stroke:#fff;stroke-linecap:round;stroke-linejoin:round;stroke-width:1.73px;}</style></defs><title>icon-dvtt-white</title><g id="Layer_1" data-name="Layer 1"><g id="Layer_1-2" data-name="Layer 1-2"><path class="cls-1" d="M59.94,62.75H26.19L12.11,74V62.75H6.49A5.63,5.63,0,0,1,.87,57.12h0V20.55a5.61,5.61,0,0,1,5.61-5.62H59.94a5.62,5.62,0,0,1,5.62,5.62h0V57.12A5.64,5.64,0,0,1,59.94,62.75Z"/><path class="cls-1" d="M31.8,48.69H65.56L79.62,59.94V48.69h5.62a5.63,5.63,0,0,0,5.63-5.62V6.49A5.62,5.62,0,0,0,85.26.87H31.8a5.61,5.61,0,0,0-5.62,5.61V43.05a5.6,5.6,0,0,0,5.6,5.63Z"/><path class="cls-1" d="M58.64,10.72c4.17,0,8,2.19,8,6.8,0,3.28-2,4.87-3.79,6.31-2.25,1.73-3.08,2.4-3.08,4.63v1.12H56.09V28.06c-.07-2.83,1.66-4.53,3.65-6,1.81-1.4,3-2.29,3-4.28,0-2.67-2-3.75-4.23-3.75-2.92,0-4.36,1.93-4.38,4.45H50.35C50.28,12.62,54.73,10.72,58.64,10.72ZM58,33.55a2.29,2.29,0,1,1-.18,0Z"/></g></g></svg>