<svg xmlns="http://www.w3.org/2000/svg" viewBox="0 0 83.78 86.71"><defs><style>.cls-1{fill:none;stroke:#fff;stroke-linecap:round;stroke-linejoin:round;stroke-width:1.73px;}</style></defs><title>icon-dvtt-white</title><g id="Layer_1" data-name="Layer 1"><g id="Layer_1-2" data-name="Layer 1-2"><path class="cls-1" d="M66.3.87H4.77A3.83,3.83,0,0,0,1,4.72l-.1,45V82a3.83,3.83,0,0,0,3.85,3.84h61.5A3.83,3.83,0,0,0,70.05,82l.1-38.84V4.72A3.85,3.85,0,0,0,66.3.87Z"/><line class="cls-1" x1="11.4" y1="40.48" x2="55.56" y2="40.48"/><line class="cls-1" x1="11.4" y1="57.8" x2="34.51" y2="57.8"/><line class="cls-1" x1="11.4" y1="14.53" x2="34.51" y2="14.53"/><line class="cls-1" x1="11.4" y1="23.18" x2="55.56" y2="23.18"/><line class="cls-1" x1="11.4" y1="31.83" x2="55.56" y2="31.83"/><path class="cls-1" d="M73.88,32.57l-32.1,32.1L39.72,75,50,73l32.1-32.1a2.7,2.7,0,0,0,0-3.81L77.68,32.6A2.69,2.69,0,0,0,73.88,32.57Z"/><line class="cls-1" x1="78.8" y1="43.53" x2="74.45" y2="39.19"/><path class="cls-1" d="M11.44,73.8l2.89-1.45a3.45,3.45,0,0,1,4,.65h0a1.14,1.14,0,0,0,1.6,0l0,0,3.54-3.55a3.89,3.89,0,0,1,5.48,0,3.94,3.94,0,0,1,.52.64l.28.41A7.53,7.53,0,0,0,36,73.8h1.11"/></g></g></svg>