<svg xmlns="http://www.w3.org/2000/svg" viewBox="0 0 114.8 67.27"><defs><style>.cls-1{fill:#90b1da;}.cls-1,.cls-2{stroke:#174799;stroke-linecap:round;stroke-linejoin:round;stroke-width:2.27px;}.cls-2{fill:#fff;}</style></defs><title>icon</title><g id="Layer_1" data-name="Layer 1"><path class="cls-1" d="M63.62,12.11H5.16a4,4,0,0,0-4,4v35a4,4,0,0,0,4,4H63.62a4,4,0,0,0,4-4v-35A4,4,0,0,0,63.62,12.11Z"/><rect class="cls-2" x="7.47" y="28.71" width="14.55" height="10.21" rx="1.94"/><line class="cls-2" x1="7.47" y1="47.48" x2="17.09" y2="47.48"/><line class="cls-2" x1="22.13" y1="47.48" x2="31.75" y2="47.48"/><line class="cls-2" x1="36.8" y1="47.48" x2="46.42" y2="47.48"/><line class="cls-2" x1="51.46" y1="47.48" x2="61.08" y2="47.48"/><line class="cls-2" x1="61.08" y1="19.8" x2="26.94" y2="19.8"/><circle class="cls-2" cx="81.17" cy="33.63" r="32.5"/><path class="cls-1" d="M78.22,52l.28-4.7a46.75,46.75,0,0,1-6.93-1.47V39.37A25.22,25.22,0,0,0,80,41.28q3.94,0,4-2.43c0-.82-.83-1.57-2.47-2.23l-4.66-1.87A9.39,9.39,0,0,1,73,32a7.52,7.52,0,0,1-1.72-4.9A7.35,7.35,0,0,1,74,21.25,10.31,10.31,0,0,1,79,18.9l-.16-3.58h5.41L84,18.9a29.94,29.94,0,0,1,4.62.76v5.69a27.29,27.29,0,0,0-6.06-.87q-4.14,0-4.14,2.42c0,.88.72,1.58,2.15,2.11l3.7,1.36q6.81,2.5,6.81,8.24a8.08,8.08,0,0,1-2.58,6.17,10.13,10.13,0,0,1-5,2.47l.16,4.7Z"/></g></svg>