<svg xmlns="http://www.w3.org/2000/svg" viewBox="0 0 70.9 100.86"><defs><style>.cls-1{fill:none;}.cls-1,.cls-2{stroke:#174799;stroke-linecap:round;stroke-linejoin:round;stroke-width:1.73px;}.cls-2{fill:#90b1da;}.cls-3{font-size:17.82px;fill:#174799;font-family:MyriadPro-Regular, Myriad Pro;}.cls-4{letter-spacing:0.01em;}</style></defs><title>icon</title><g id="Layer_1" data-name="Layer 1"><rect class="cls-1" x="3.96" y="15.85" width="31.06" height="5.44" transform="translate(46.4 17.92) rotate(135)"/><path class="cls-1" d="M21.36,20.54l.1-.09,9.33-9.34L35.7,16a6.91,6.91,0,0,1,1.45,7.64l-.1.24a5.17,5.17,0,0,0,1.08,5.72l3,3-3.75,3.75-.09.09-3.75,3.75-3-3a5.18,5.18,0,0,0-5.72-1.08l-.24.1a6.91,6.91,0,0,1-7.64-1.45L12,29.87Z"/><path class="cls-2" d="M4.53,12.36H9.19a0,0,0,0,1,0,0v10.1a2.33,2.33,0,0,1-2.33,2.33h0a2.33,2.33,0,0,1-2.33-2.33V12.36a0,0,0,0,1,0,0Z" transform="translate(24.84 26.85) rotate(135)"/><path class="cls-2" d="M17.16-.27h4.66a0,0,0,0,1,0,0V9.82a2.33,2.33,0,0,1-2.33,2.33h0a2.33,2.33,0,0,1-2.33-2.33V-.27a0,0,0,0,1,0,0Z" transform="translate(37.47 -3.64) rotate(135)"/><polygon class="cls-2" points="27.51 25.58 26.5 20.34 23.61 23.23 26.11 30.61 29.15 27.59 32.09 32.32 30.26 22.83 27.51 25.58"/><path class="cls-2" d="M21.91,97.69,26.58,93,10.25,76.68A9.51,9.51,0,1,1,23.7,63.23l4.94,4.94A16.11,16.11,0,0,0,51.43,45.38l-9.75-9.74L37,40.3l9.75,9.75A9.51,9.51,0,0,1,33.31,63.5l-4.94-4.94A16.11,16.11,0,0,0,5.58,81.35Z"/><text class="cls-3" transform="translate(35.09 96.41)"><tspan class="cls-4">H</tspan><tspan x="11.8" y="0">igh</tspan></text></g></svg>