<svg xmlns="http://www.w3.org/2000/svg" viewBox="0 0 114.24 66.73"><defs><style>.cls-1{fill:none;stroke:#fff;stroke-linecap:round;stroke-linejoin:round;stroke-width:1.73px;}</style></defs><title>icon-dvtt-white</title><g id="Layer_1" data-name="Layer 1"><g id="Layer_1-2" data-name="Layer 1-2"><path class="cls-1" d="M63.32,11.84H4.87a4,4,0,0,0-4,4v35a4,4,0,0,0,4,4H63.32a4,4,0,0,0,4-4v-35A4,4,0,0,0,63.32,11.84Z"/><rect class="cls-1" x="7.17" y="28.44" width="14.55" height="10.21" rx="1.94"/><line class="cls-1" x1="7.17" y1="47.21" x2="16.79" y2="47.21"/><line class="cls-1" x1="21.84" y1="47.21" x2="31.45" y2="47.21"/><line class="cls-1" x1="36.5" y1="47.21" x2="46.13" y2="47.21"/><line class="cls-1" x1="51.16" y1="47.21" x2="60.79" y2="47.21"/><line class="cls-1" x1="60.79" y1="19.54" x2="26.65" y2="19.54"/><circle class="cls-1" cx="80.88" cy="33.37" r="32.5"/><path class="cls-1" d="M78,51.68l.27-4.7a45.69,45.69,0,0,1-6.93-1.47V39.1A25.06,25.06,0,0,0,79.67,41q3.94,0,4-2.43c0-.82-.83-1.57-2.47-2.23l-4.66-1.86a9.52,9.52,0,0,1-3.82-2.75A7.56,7.56,0,0,1,71,26.83,7.32,7.32,0,0,1,73.67,21a10.32,10.32,0,0,1,5.06-2.35l-.17-3.58H84l-.27,3.58a31.57,31.57,0,0,1,4.62.76V25.1a28.31,28.31,0,0,0-6.06-.87c-2.76,0-4.14.81-4.14,2.42,0,.88.72,1.58,2.15,2.11L84,30.1q6.81,2.5,6.8,8.24a8,8,0,0,1-2.58,6.18,10.14,10.14,0,0,1-5,2.47l.16,4.7Z"/></g></g></svg>