<svg xmlns="http://www.w3.org/2000/svg" viewBox="0 0 60.2 92.27"><defs><style>.cls-1{fill:#fff;}.cls-1,.cls-2{stroke:#174799;stroke-linecap:round;stroke-linejoin:round;stroke-width:2.27px;}.cls-2{fill:#90b1da;}</style></defs><title>icon</title><g id="Layer_1" data-name="Layer 1"><line class="cls-1" x1="16.66" y1="75.25" x2="43.54" y2="75.25"/><line class="cls-1" x1="18.93" y1="80.43" x2="41.27" y2="80.43"/><path class="cls-2" d="M21.6,85.29a9.11,9.11,0,0,0,17,0Z"/><path class="cls-1" d="M35.3,1.45l-4.17,16,6.16,13.14L29.48,58.29,32,35.66l-9-16.06L27.27,1.13A29,29,0,0,0,9.16,50a9.11,9.11,0,0,1,2.53,6.32v6a7.82,7.82,0,0,0,7.82,7.82H40.69a7.82,7.82,0,0,0,7.82-7.82v-6a9.33,9.33,0,0,1,2.62-6.41A29,29,0,0,0,35.3,1.45Z"/></g></svg>