<svg xmlns="http://www.w3.org/2000/svg" viewBox="0 0 83.67 86.73"><defs><style>.cls-1{fill:none;stroke:#fff;stroke-linecap:round;stroke-linejoin:round;stroke-width:1.73px;}</style></defs><title>icon-dvtt-white</title><g id="Layer_1" data-name="Layer 1"><g id="Layer_1-2" data-name="Layer 1-2"><path class="cls-1" d="M28.79,56V27.58A3.25,3.25,0,0,1,32,24.31H49.32V6.64A5.77,5.77,0,0,0,43.55.87H6.64A5.77,5.77,0,0,0,.87,6.64h0V80.1a5.75,5.75,0,0,0,5.75,5.77H43.55a5.75,5.75,0,0,0,5.76-5.75V59.28H32.05A3.27,3.27,0,0,1,28.79,56Z"/><path class="cls-1" d="M79.53,24.31H32.05a3.27,3.27,0,0,0-3.27,3.25V56A3.27,3.27,0,0,0,32,59.28H79.53A3.26,3.26,0,0,0,82.81,56V27.58a3.27,3.27,0,0,0-3.25-3.27Z"/><rect class="cls-1" x="33.92" y="37.8" width="11.82" height="8.29" rx="1.57"/><line class="cls-1" x1="33.92" y1="53.05" x2="41.75" y2="53.05"/><line class="cls-1" x1="45.84" y1="53.05" x2="53.66" y2="53.05"/><line class="cls-1" x1="57.75" y1="53.05" x2="65.56" y2="53.05"/><line class="cls-1" x1="69.66" y1="53.05" x2="77.48" y2="53.05"/><line class="cls-1" x1="77.48" y1="30.55" x2="49.75" y2="30.55"/><line class="cls-1" x1="0.87" y1="7.72" x2="49.32" y2="7.72"/><line class="cls-1" x1="0.87" y1="75.06" x2="49.32" y2="75.06"/><line class="cls-1" x1="19.69" y1="80.28" x2="30.49" y2="80.28"/></g></g></svg>