<svg xmlns="http://www.w3.org/2000/svg" viewBox="0 0 95.35 81.75"><defs><style>.cls-1{fill:none;stroke:#fff;stroke-linecap:round;stroke-linejoin:round;stroke-width:1.73px;}</style></defs><title>icon-dvtt-white</title><g id="Layer_1" data-name="Layer 1"><g id="Layer_1-2" data-name="Layer 1-2"><path class="cls-1" d="M47.82,1.62A33,33,0,0,1,87.07,26.87a32.26,32.26,0,0,1,.75,7.06h6.66L80.87,47.54,67.25,33.93h6.67a33,33,0,0,0-66.09,0"/><path class="cls-1" d="M21.73,33.93A33.07,33.07,0,0,1,47.82,1.62"/><path class="cls-1" d="M47.53,80.15a33.05,33.05,0,0,1-40-32.31H.87L14.48,34.23,28.1,47.84H21.45a33,33,0,0,0,66.08,0"/><path class="cls-1" d="M73.62,47.84A33.06,33.06,0,0,1,47.53,80.15"/><path class="cls-1" d="M43.48,67l.4-6.69A65.68,65.68,0,0,1,34,58.18V49q7.28,2.73,12,2.72,5.63,0,5.62-3.46c0-1.17-1.18-2.23-3.52-3.17l-6.64-2.67A13.46,13.46,0,0,1,36,38.56a10.74,10.74,0,0,1-2.43-7,10.44,10.44,0,0,1,3.86-8.33,14.56,14.56,0,0,1,7.2-3.35l-.23-5.1h7.71l-.39,5.1A44.12,44.12,0,0,1,58.28,21v8.11a38.49,38.49,0,0,0-8.62-1.25c-3.93,0-5.9,1.16-5.9,3.46q0,1.89,3.06,3l5.28,1.92q9.7,3.57,9.7,11.76a11.57,11.57,0,0,1-3.68,8.79A14.45,14.45,0,0,1,51,60.28L51.19,67Z"/></g></g></svg>