<svg xmlns="http://www.w3.org/2000/svg" viewBox="0 0 105.17 57.27"><defs><style>.cls-1{fill:none;}.cls-1,.cls-2{stroke:#174799;stroke-linecap:round;stroke-linejoin:round;stroke-width:2.27px;}.cls-2{fill:#90b1da;}</style></defs><title>icon</title><g id="Layer_1" data-name="Layer 1"><path class="cls-1" d="M104,51.79a51.46,51.46,0,0,0-102.9,0Z"/><path class="cls-2" d="M56.63,11.75V26.1a25.84,25.84,0,0,1,11.26,4.66L78,20.63A40.1,40.1,0,0,0,56.63,11.75Z"/><path class="cls-2" d="M73.61,36.48a25.86,25.86,0,0,1,5,15.31h14.2a40.12,40.12,0,0,0-9.07-25.45Z"/><path class="cls-2" d="M37.27,30.76A25.88,25.88,0,0,1,48.54,26.1V11.75a40,40,0,0,0-21.4,8.88Z"/><path class="cls-2" d="M21.42,26.34a40.07,40.07,0,0,0-9.07,25.45h14.2a25.86,25.86,0,0,1,5-15.31Z"/><line class="cls-2" x1="52.58" y1="51.27" x2="37.15" y2="20.91"/><circle class="cls-2" cx="52.58" cy="51.27" r="4.87"/></g></svg>