<svg xmlns="http://www.w3.org/2000/svg" viewBox="0 0 95.88 82.27"><defs><style>.cls-1,.cls-2{fill:#fff;}.cls-1,.cls-2,.cls-3{stroke:#174799;stroke-linecap:round;stroke-linejoin:round;stroke-width:2.27px;}.cls-2{stroke-dasharray:1.42 5.67;}.cls-3{fill:#90b1da;}</style></defs><title>icon</title><g id="Layer_1" data-name="Layer 1"><path class="cls-1" d="M48.09,1.87a33,33,0,0,1,40,32.31h6.66L81.13,47.79,67.52,34.18h6.66a33,33,0,1,0-66.09,0"/><path class="cls-2" d="M22,34.18A33,33,0,0,1,48.09,1.87"/><path class="cls-1" d="M47.79,80.4a33.09,33.09,0,0,1-40-32.31H1.13L14.75,34.48,28.36,48.09H21.71a33,33,0,0,0,66.08,0"/><path class="cls-2" d="M73.88,48.09A33.06,33.06,0,0,1,47.79,80.4"/><path class="cls-3" d="M43.74,67.22l.4-6.69a66.92,66.92,0,0,1-9.87-2.1V49.3Q41.53,52,46.24,52c3.74,0,5.62-1.15,5.62-3.46,0-1.17-1.18-2.23-3.52-3.17L41.7,42.72a13.4,13.4,0,0,1-5.44-3.91,10.72,10.72,0,0,1-2.44-7,10.45,10.45,0,0,1,3.86-8.33,14.56,14.56,0,0,1,7.2-3.35l-.23-5.1h7.71L52,20.15a43.62,43.62,0,0,1,6.58,1.08v8.11a38.66,38.66,0,0,0-8.62-1.25c-3.94,0-5.9,1.16-5.9,3.46q0,1.87,3.06,3l5.27,1.92q9.7,3.59,9.7,11.74A11.53,11.53,0,0,1,58.38,57a14.5,14.5,0,0,1-7.15,3.52l.23,6.69Z"/></g></svg>