<svg xmlns="http://www.w3.org/2000/svg" viewBox="0 0 94.67 100.27"><defs><style>.cls-1{fill:#90b1da;}.cls-1,.cls-2,.cls-3{stroke:#174799;stroke-linecap:round;stroke-linejoin:round;stroke-width:2.27px;}.cls-2{fill:#fff;}.cls-3{fill:none;}.cls-4{fill:#174799;}</style></defs><title>icon</title><g id="Layer_1" data-name="Layer 1"><rect class="cls-1" x="14.15" y="9.7" width="60.74" height="74.24"/><polygon class="cls-2" points="82.66 91.02 21.92 91.02 21.92 16.78 68.92 16.78 82.66 28.11 82.66 91.02"/><polygon class="cls-1" points="69.16 16.78 69.16 28.35 82.66 28.35 69.16 16.78"/><line class="cls-1" x1="29.63" y1="29.32" x2="47.23" y2="29.32"/><line class="cls-1" x1="29.63" y1="44.36" x2="74.46" y2="44.36"/><line class="cls-1" x1="29.63" y1="54" x2="74.9" y2="54"/><line class="cls-1" x1="29.63" y1="63.64" x2="75.43" y2="63.64"/><line class="cls-1" x1="60.05" y1="77.52" x2="75.43" y2="77.52"/><path class="cls-3" d="M68.56,1.13H86.75a4,4,0,0,1,4,4V18.38"/><polygon class="cls-4" points="86.75 17.22 90.71 24.08 94.67 17.22 86.75 17.22"/><path class="cls-3" d="M26.11,99.13H7.91A4,4,0,0,1,4,95.18V81.89"/><polygon class="cls-4" points="7.92 83.05 3.96 76.19 0 83.05 7.92 83.05"/></g></svg>