<svg xmlns="http://www.w3.org/2000/svg" viewBox="0 0 92.72 86.73"><defs><style>.cls-1{fill:none;stroke:#fff;stroke-linecap:round;stroke-linejoin:round;stroke-width:1.73px;}</style></defs><title>icon-dvtt-white</title><g id="Layer_1" data-name="Layer 1"><g id="Layer_1-2" data-name="Layer 1-2"><circle class="cls-1" cx="70.6" cy="64.62" r="21.25"/><path class="cls-1" d="M49.35,64.62A21.25,21.25,0,0,1,70.42,43.37V4.74A3.86,3.86,0,0,0,66.57.87H4.74A3.87,3.87,0,0,0,.87,4.74h0V82a3.85,3.85,0,0,0,3.85,3.87h65.7A21.26,21.26,0,0,1,49.35,64.62Z"/><line class="cls-1" x1="28.33" y1="13.61" x2="60.28" y2="13.61"/><line class="cls-1" x1="28.33" y1="21.35" x2="60.28" y2="21.35"/><line class="cls-1" x1="28.33" y1="29.07" x2="60.28" y2="29.07"/><line class="cls-1" x1="28.33" y1="36.8" x2="60.28" y2="36.8"/><line class="cls-1" x1="28.33" y1="65.13" x2="45.07" y2="65.13"/><line class="cls-1" x1="21.89" y1="71.77" x2="46.05" y2="71.77"/><path class="cls-1" d="M11.61,16.35v46L16.1,71.2l4.5-8.86v-46c0-1.51-.93-2.73-2.08-2.73H13.69C12.54,13.61,11.61,14.83,11.61,16.35Z"/><path class="cls-1" d="M59.34,67.31a11.59,11.59,0,0,0,22.55,0"/><polyline class="cls-1" points="56.8 71.02 58.66 66.38 63.3 68.25"/><path class="cls-1" d="M81.88,61.92a11.59,11.59,0,0,0-22.55,0"/><polyline class="cls-1" points="84.42 58.23 82.56 62.87 77.92 60.99"/></g></g></svg>