<svg xmlns="http://www.w3.org/2000/svg" viewBox="0 0 78.35 92.54"><defs><style>.cls-1{fill:#90b1da;}.cls-1,.cls-2{stroke:#174799;stroke-linecap:round;stroke-linejoin:round;stroke-width:2.54px;}.cls-2{fill:#fff;}</style></defs><title>icon</title><g id="Layer_1" data-name="Layer 1"><rect class="cls-1" x="1.27" y="1.27" width="67.22" height="82.16"/><polygon class="cls-2" points="77.08 91.27 9.86 91.27 9.86 9.11 37 9.11 35.44 26.02 40.42 40.96 37.93 53.41 45.4 40.96 42.91 28.51 47.42 9.11 61.88 9.11 77.08 21.65 77.08 91.27"/><polygon class="cls-1" points="62.14 9.11 62.14 21.92 77.08 21.92 62.14 9.11"/><line class="cls-1" x1="18.4" y1="22.98" x2="30.46" y2="22.98"/><line class="cls-1" x1="53.07" y1="39.63" x2="68.01" y2="39.63"/><line class="cls-1" x1="18.4" y1="39.63" x2="33.57" y2="39.63"/><line class="cls-1" x1="50.38" y1="50.3" x2="68.49" y2="50.3"/><line class="cls-1" x1="18.4" y1="50.3" x2="32.95" y2="50.3"/><line class="cls-1" x1="18.4" y1="60.97" x2="69.08" y2="60.97"/><line class="cls-1" x1="52.06" y1="76.33" x2="69.08" y2="76.33"/></g></svg>