<svg xmlns="http://www.w3.org/2000/svg" viewBox="0 0 92.27 75.39"><defs><style>.cls-1{fill:#90b1da;}.cls-1,.cls-2{stroke:#174799;stroke-linecap:round;stroke-linejoin:round;stroke-width:2.27px;}.cls-2{fill:#fff;}</style></defs><title>icon</title><g id="Layer_1" data-name="Layer 1"><path class="cls-1" d="M60.2,63H26.45L12.38,74.26V63H6.76a5.63,5.63,0,0,1-5.63-5.63V20.82A5.62,5.62,0,0,1,6.76,15.2H60.2a5.62,5.62,0,0,1,5.62,5.62V57.38A5.63,5.63,0,0,1,60.2,63Z"/><path class="cls-2" d="M32.07,49H65.82L79.88,60.2V49h5.63a5.62,5.62,0,0,0,5.62-5.63V6.76a5.62,5.62,0,0,0-5.62-5.63H32.07a5.62,5.62,0,0,0-5.62,5.63V43.32A5.62,5.62,0,0,0,32.07,49Z"/><path class="cls-1" d="M58.91,11c4.17,0,8,2.2,8,6.8,0,3.28-1.95,4.87-3.8,6.32-2.24,1.73-3.08,2.39-3.08,4.62v1.13H56.35l0-1.52c-.07-2.83,1.66-4.53,3.65-6,1.81-1.4,3-2.3,3-4.28,0-2.68-2-3.75-4.23-3.75-2.92,0-4.36,1.93-4.38,4.45H50.62C50.54,12.89,55,11,58.91,11Zm-.63,22.83a2.37,2.37,0,1,1-2.51,2.39A2.36,2.36,0,0,1,58.28,33.81Z"/></g></svg>