<svg width="48" height="48" viewBox="0 0 48 48" fill="none" xmlns="http://www.w3.org/2000/svg">
<rect x="32.5" y="10.5" width="27" height="17" rx="1.5" transform="rotate(90 32.5 10.5)" stroke="#6D6E70"/>
<circle cx="24" cy="33" r="2" fill="#666666"/>
<rect x="18.5" y="13.5" width="23" height="9" rx="0.5" fill="#F6F6F6" stroke="#666666" stroke-linejoin="round"/>
<path d="M23.7305 19.5586L23.666 18.1055L24.9141 18.8789L25.2012 18.3691L23.9004 17.7012L25.2012 17.0098L24.9141 16.5L23.666 17.3086L23.7305 15.8262H23.1562L23.2148 17.3086L21.9668 16.5L21.6797 17.0156L22.9746 17.7012L21.6797 18.3691L21.9668 18.8789L23.2148 18.0996L23.1562 19.5586H23.7305ZM28.1016 19.5586L28.0371 18.1055L29.2852 18.8789L29.5723 18.3691L28.2715 17.7012L29.5723 17.0098L29.2852 16.5L28.0371 17.3086L28.1016 15.8262H27.5273L27.5859 17.3086L26.3379 16.5L26.0508 17.0156L27.3457 17.7012L26.0508 18.3691L26.3379 18.8789L27.5859 18.0996L27.5273 19.5586H28.1016ZM32.4727 19.5586L32.4082 18.1055L33.6562 18.8789L33.9434 18.3691L32.6426 17.7012L33.9434 17.0098L33.6562 16.5L32.4082 17.3086L32.4727 15.8262H31.8984L31.957 17.3086L30.709 16.5L30.4219 17.0156L31.7168 17.7012L30.4219 18.3691L30.709 18.8789L31.957 18.0996L31.8984 19.5586H32.4727ZM36.8438 19.5586L36.7793 18.1055L38.0273 18.8789L38.3145 18.3691L37.0137 17.7012L38.3145 17.0098L38.0273 16.5L36.7793 17.3086L36.8438 15.8262H36.2695L36.3281 17.3086L35.0801 16.5L34.793 17.0156L36.0879 17.7012L34.793 18.3691L35.0801 18.8789L36.3281 18.0996L36.2695 19.5586H36.8438Z" fill="#666666"/>
</svg>
