<svg id="Layer_1" data-name="Layer 1" xmlns="http://www.w3.org/2000/svg" viewBox="0 0 118.41 122.67"><defs><style>.cls-1{fill:none;}.cls-1,.cls-2{stroke:#174798;stroke-linecap:round;stroke-linejoin:round;stroke-width:1.73px;}.cls-2{fill:#8fb0d9;}.cls-3{isolation:isolate;}.cls-4{fill:#174798;}</style></defs><title>icon-05</title><rect class="cls-1" x="3.96" y="38.35" width="31.06" height="5.44" transform="translate(-23.33 25.81) rotate(-45)"/><path class="cls-1" d="M21.36,43l.1-.09,9.33-9.34,4.91,4.91a6.91,6.91,0,0,1,1.45,7.64l-.1.24a5.17,5.17,0,0,0,1.08,5.72l3,3-3.75,3.75-.09.09-3.75,3.75-3-3a5.17,5.17,0,0,0-5.72-1.08l-.24.1a6.91,6.91,0,0,1-7.64-1.45L12,52.37Z" transform="translate(0 0)"/><path class="cls-2" d="M12.9,43.81l-3.3,3.3h0L2.43,39.94a2.34,2.34,0,0,1,0-3.3h0a2.34,2.34,0,0,1,3.3,0h0l7.17,7.17Z" transform="translate(0 0)"/><path class="cls-2" d="M25.53,31.18l-3.3,3.3h0l-7.14-7.14a2.34,2.34,0,0,1,0-3.3h0a2.34,2.34,0,0,1,3.3,0h0l7.14,7.14Z" transform="translate(0 0)"/><polygon class="cls-2" points="27.52 48.09 26.5 42.84 23.61 45.73 26.11 53.12 29.16 50.09 32.09 54.83 30.27 45.34 27.52 48.09"/><path class="cls-2" d="M21.91,120.19l4.67-4.67L10.25,99.18A9.51,9.51,0,0,1,23.7,85.73h0l4.94,4.94A16.11,16.11,0,0,0,51.43,67.88h0l-9.75-9.74L37,62.8l9.75,9.75A9.51,9.51,0,0,1,33.31,86l-4.94-4.94A16.11,16.11,0,0,0,5.58,103.85Z" transform="translate(0 0)"/><g class="cls-3"><g class="cls-3"><path class="cls-4" d="M36.52,118.91V106.15h1.69v5.24h6.62v-5.24h1.69v12.76H44.83v-6H38.21v6Z" transform="translate(0 0)"/></g><g class="cls-3"><path class="cls-4" d="M48.07,108v-1.81h1.57V108Zm0,11v-9.24h1.57v9.24Z" transform="translate(0 0)"/><path class="cls-4" d="M51.74,119.68l1.52.22a1.45,1.45,0,0,0,.53,1,2.61,2.61,0,0,0,1.59.43,2.78,2.78,0,0,0,1.68-.43,2.13,2.13,0,0,0,.8-1.22,10.4,10.4,0,0,0,.12-2,3.22,3.22,0,0,1-2.56,1.21,3.49,3.49,0,0,1-3-1.37,5.29,5.29,0,0,1-1-3.3,6.11,6.11,0,0,1,.48-2.44,3.82,3.82,0,0,1,1.39-1.73,3.73,3.73,0,0,1,2.14-.61,3.29,3.29,0,0,1,2.69,1.32v-1.11h1.45v8a7.63,7.63,0,0,1-.44,3.06,3.23,3.23,0,0,1-1.39,1.42,4.83,4.83,0,0,1-2.35.52,4.47,4.47,0,0,1-2.67-.74A2.51,2.51,0,0,1,51.74,119.68ZM53,114.12a4,4,0,0,0,.73,2.66,2.39,2.39,0,0,0,3.62,0,3.9,3.9,0,0,0,.73-2.6,3.8,3.8,0,0,0-.76-2.56,2.29,2.29,0,0,0-1.81-.86,2.26,2.26,0,0,0-1.78.85A3.78,3.78,0,0,0,53,114.12Z" transform="translate(0 0)"/><path class="cls-4" d="M61.93,118.91V106.15H63.5v4.58a3.49,3.49,0,0,1,2.77-1.27,3.71,3.71,0,0,1,1.78.41A2.28,2.28,0,0,1,69.13,111a5.13,5.13,0,0,1,.33,2.07v5.86H67.89v-5.86a2.48,2.48,0,0,0-.5-1.71,1.92,1.92,0,0,0-1.44-.53,2.51,2.51,0,0,0-1.31.36,2.08,2.08,0,0,0-.88,1,4.56,4.56,0,0,0-.26,1.7v5.06Z" transform="translate(0 0)"/></g></g><polyline class="cls-1" points="76.89 46.16 97.67 64.28 65.19 95.86 76.67 45.94 76.67 12.79 85.52 0.86 93.47 12.79 93.47 45.94 105.83 95.86 72.92 62.95 81.75 55.88"/><polygon class="cls-1" points="57.23 45.49 76.67 35.01 93.47 35.01 114.67 45.49 57.23 45.49"/><line class="cls-1" x1="114.67" y1="57.87" x2="114.67" y2="45.5"/><line class="cls-1" x1="111.8" y1="50.14" x2="117.54" y2="50.14"/><line class="cls-1" x1="111.8" y1="55" x2="117.54" y2="55"/><line class="cls-1" x1="57.45" y1="57.87" x2="57.45" y2="45.5"/><line class="cls-1" x1="54.58" y1="50.14" x2="60.32" y2="50.14"/><line class="cls-1" x1="54.58" y1="55" x2="60.32" y2="55"/><polygon class="cls-1" points="57.23 24.29 76.67 13.79 93.47 13.79 114.67 24.29 57.23 24.29"/><line class="cls-1" x1="114.67" y1="36.66" x2="114.67" y2="24.29"/><line class="cls-1" x1="111.8" y1="28.93" x2="117.54" y2="28.93"/><line class="cls-1" x1="111.8" y1="33.78" x2="117.54" y2="33.78"/><line class="cls-1" x1="57.45" y1="36.66" x2="57.45" y2="24.29"/><line class="cls-1" x1="54.58" y1="28.93" x2="60.32" y2="28.93"/><line class="cls-1" x1="54.58" y1="33.78" x2="60.32" y2="33.78"/></svg>