<svg id="Layer_1" data-name="Layer 1" xmlns="http://www.w3.org/2000/svg" viewBox="0 0 117.5 116.06"><defs><style>.cls-1{fill:none;}.cls-1,.cls-2{stroke:#174798;stroke-linecap:round;stroke-linejoin:round;stroke-width:1.73px;}.cls-2{fill:#8fb0d9;}.cls-3{isolation:isolate;}.cls-4{fill:#174798;}</style></defs><title>icon-03</title><path class="cls-1" d="M116.63,23.22c-24.07,0-43.84-5.16-48.14-17.2-3.58,10-17.85,15.26-36.4,16.75" transform="translate(0 0)"/><polygon class="cls-1" points="72.14 95.86 64.83 95.86 66.56 0.86 70.42 0.86 72.14 95.86"/><rect class="cls-1" x="3.95" y="33.35" width="31.06" height="5.44" transform="translate(-19.79 24.35) rotate(-45)"/><path class="cls-1" d="M21.36,38l.1-.09,9.33-9.34,4.91,4.91a6.91,6.91,0,0,1,1.45,7.64l-.1.24a5.17,5.17,0,0,0,1.08,5.72l3,3-3.75,3.75-.09.09-3.75,3.75-3-3a5.17,5.17,0,0,0-5.72-1.08l-.24.1a6.91,6.91,0,0,1-7.64-1.45L12,47.37Z" transform="translate(0 0)"/><path class="cls-2" d="M12.89,38.81,9.6,42.1h0L2.43,34.93a2.32,2.32,0,0,1,0-3.29h0a2.32,2.32,0,0,1,3.29,0h0l7.17,7.17Z" transform="translate(0 0)"/><path class="cls-2" d="M25.52,26.18l-3.29,3.3h0l-7.14-7.15a2.32,2.32,0,0,1,0-3.29h0a2.32,2.32,0,0,1,3.29,0l7.14,7.14Z" transform="translate(0 0)"/><polygon class="cls-2" points="27.52 43.09 26.5 37.84 23.61 40.73 26.11 48.12 29.16 45.09 32.09 49.83 30.27 40.34 27.52 43.09"/><path class="cls-2" d="M21.91,115.19l4.67-4.67L10.25,94.18A9.51,9.51,0,0,1,23.7,80.73h0l4.94,4.94A16.11,16.11,0,0,0,51.43,62.88l-9.75-9.74L37,57.8l9.75,9.75A9.51,9.51,0,0,1,33.31,81l-4.94-4.94A16.11,16.11,0,0,0,5.58,98.85Z" transform="translate(0 0)"/><g class="cls-3"><g class="cls-3"><path class="cls-4" d="M36.4,113.91V101.15h1.68v11.26h6.29v1.5Z" transform="translate(0 0)"/></g><g class="cls-3"><path class="cls-4" d="M43.84,109.29a4.76,4.76,0,0,1,1.43-3.8,4.26,4.26,0,0,1,2.9-1,4.16,4.16,0,0,1,3.12,1.25,4.73,4.73,0,0,1,1.21,3.45A6.1,6.1,0,0,1,52,112a3.69,3.69,0,0,1-1.55,1.58,4.52,4.52,0,0,1-2.24.57A4.18,4.18,0,0,1,45,112.88,5,5,0,0,1,43.84,109.29Zm1.61,0a3.93,3.93,0,0,0,.78,2.66,2.58,2.58,0,0,0,3.89,0,4,4,0,0,0,.77-2.7,3.81,3.81,0,0,0-.78-2.6,2.58,2.58,0,0,0-3.88,0A3.88,3.88,0,0,0,45.45,109.29Z" transform="translate(0 0)"/></g><g class="cls-3"><path class="cls-4" d="M55.79,113.91,53,104.67h1.62L56.05,110l.55,2c0-.1.18-.74.48-1.91l1.47-5.41h1.61L61.54,110,62,111.8l.53-1.79,1.59-5.34h1.52l-2.89,9.24H61.12l-1.47-5.53-.35-1.58-1.87,7.11Z" transform="translate(0 0)"/></g></g></svg>