<svg id="Layer_1" data-name="Layer 1" xmlns="http://www.w3.org/2000/svg" viewBox="0 0 99.96 118.06"><defs><style>.cls-1{fill:none;}.cls-1,.cls-2,.cls-5{stroke:#174798;stroke-linecap:round;stroke-linejoin:round;stroke-width:1.73px;}.cls-2{fill:#8fb0d9;}.cls-3{isolation:isolate;}.cls-4{fill:#174798;}.cls-5{fill:#fff;}</style></defs><title>icon-04</title><rect class="cls-1" x="3.96" y="35.35" width="31.06" height="5.44" transform="translate(-21.21 24.94) rotate(-45)"/><path class="cls-1" d="M21.36,40l.1-.09,9.33-9.34,4.91,4.91a6.91,6.91,0,0,1,1.45,7.64l-.1.24a5.17,5.17,0,0,0,1.08,5.72l3,3-3.75,3.75-.09.09-3.75,3.75-3-3a5.17,5.17,0,0,0-5.72-1.08l-.24.1a6.91,6.91,0,0,1-7.64-1.45L12,49.37Z" transform="translate(0 0)"/><path class="cls-2" d="M12.9,40.81l-3.3,3.3h0L2.43,36.94a2.34,2.34,0,0,1,0-3.3h0a2.34,2.34,0,0,1,3.3,0h0l7.17,7.17Z" transform="translate(0 0)"/><path class="cls-2" d="M25.53,28.19l-3.3,3.29h0l-7.14-7.14a2.34,2.34,0,0,1,0-3.3h0a2.34,2.34,0,0,1,3.3,0l7.14,7.15Z" transform="translate(0 0)"/><polygon class="cls-2" points="27.52 45.09 26.5 39.84 23.61 42.73 26.11 50.12 29.16 47.09 32.09 51.83 30.27 42.34 27.52 45.09"/><path class="cls-2" d="M21.91,117.19l4.67-4.67L10.25,96.18A9.51,9.51,0,0,1,23.7,82.73h0l4.94,4.94A16.11,16.11,0,0,0,51.43,64.88l-9.75-9.74L37,59.8l9.75,9.75A9.51,9.51,0,0,1,33.31,83l-4.94-4.94A16.11,16.11,0,0,0,5.58,100.85Z" transform="translate(0 0)"/><g class="cls-3"><g class="cls-3"><path class="cls-4" d="M36.41,115.91V103.15H39l3,9c.28.84.48,1.47.61,1.88.15-.46.37-1.14.68-2l3.05-8.88h2.28v12.76H47V105.23l-3.71,10.68H41.73L38,105.05v10.86Z" transform="translate(0 0)"/></g><g class="cls-3"><path class="cls-4" d="M57,112.93l1.62.2a4,4,0,0,1-1.42,2.21,4.81,4.81,0,0,1-5.86-.47,4.88,4.88,0,0,1-1.19-3.5,5.1,5.1,0,0,1,1.2-3.62,4.07,4.07,0,0,1,3.12-1.29,4,4,0,0,1,3,1.26,5,5,0,0,1,1.17,3.55c0,.1,0,.23,0,.42H51.79a3.58,3.58,0,0,0,.86,2.33,2.57,2.57,0,0,0,1.93.81,2.38,2.38,0,0,0,1.47-.45A3,3,0,0,0,57,112.93Zm-5.14-2.53H57a3.17,3.17,0,0,0-.59-1.75,2.41,2.41,0,0,0-1.94-.9,2.5,2.5,0,0,0-1.82.72A2.85,2.85,0,0,0,51.88,110.4Z" transform="translate(0 0)"/><path class="cls-4" d="M66.6,115.91v-1.17A2.88,2.88,0,0,1,64,116.12a3.62,3.62,0,0,1-2-.61,4.06,4.06,0,0,1-1.43-1.7A5.89,5.89,0,0,1,60,111.3a6.52,6.52,0,0,1,.46-2.51,3.69,3.69,0,0,1,1.38-1.73,3.74,3.74,0,0,1,2.07-.6,3.11,3.11,0,0,1,1.48.35,3.19,3.19,0,0,1,1.07.92v-4.58h1.55v12.76Zm-4.95-4.61A4,4,0,0,0,62.4,114a2.25,2.25,0,0,0,1.76.88,2.22,2.22,0,0,0,1.75-.84,3.85,3.85,0,0,0,.72-2.56,4.41,4.41,0,0,0-.73-2.79,2.26,2.26,0,0,0-1.81-.88,2.17,2.17,0,0,0-1.74.85A4.19,4.19,0,0,0,61.65,111.3Z" transform="translate(0 0)"/><path class="cls-4" d="M70.52,105v-1.81h1.57V105Zm0,11v-9.24h1.57v9.24Z" transform="translate(0 0)"/><path class="cls-4" d="M80.53,115.91v-1.36a3.38,3.38,0,0,1-2.93,1.57,3.87,3.87,0,0,1-1.53-.31,2.6,2.6,0,0,1-1-.79,2.9,2.9,0,0,1-.48-1.16,7.45,7.45,0,0,1-.1-1.47v-5.72H76v5.12a9.83,9.83,0,0,0,.09,1.66,1.66,1.66,0,0,0,.63,1,2,2,0,0,0,1.18.35,2.57,2.57,0,0,0,1.32-.36,2,2,0,0,0,.88-1,5,5,0,0,0,.26-1.81v-5h1.56v9.24Z" transform="translate(0 0)"/><path class="cls-4" d="M84.39,115.91v-9.24h1.4V108a3.2,3.2,0,0,1,2.8-1.51,3,3,0,0,1,1.68.43,2.26,2.26,0,0,1,.93,1.19,3.31,3.31,0,0,1,2.85-1.62,2.82,2.82,0,0,1,2.12.76,3.28,3.28,0,0,1,.74,2.35v6.34H95.35v-5.82a4.29,4.29,0,0,0-.15-1.35,1.35,1.35,0,0,0-.56-.67,1.69,1.69,0,0,0-.94-.25,2.13,2.13,0,0,0-1.61.65,2.84,2.84,0,0,0-.65,2.07v5.37H89.88v-6a2.61,2.61,0,0,0-.39-1.57,1.43,1.43,0,0,0-1.25-.52,2.19,2.19,0,0,0-1.22.35,2,2,0,0,0-.82,1,6,6,0,0,0-.25,1.94v4.79Z" transform="translate(0 0)"/></g></g><polygon class="cls-5" points="71.64 92.86 64.44 92.86 65.44 15.97 70.64 15.97 71.64 92.86"/><polygon class="cls-5" points="70.64 8.57 65.44 8.57 66.44 0.86 69.64 0.86 70.64 8.57"/><rect class="cls-2" x="37.86" y="11.37" width="61.23" height="1.8"/><line class="cls-1" x1="94.59" y1="11.37" x2="94.59" y2="4.62"/><line class="cls-1" x1="92.34" y1="5.97" x2="96.85" y2="5.97"/><line class="cls-1" x1="92.34" y1="7.77" x2="96.85" y2="7.77"/><line class="cls-1" x1="42.37" y1="11.37" x2="42.37" y2="4.62"/><line class="cls-1" x1="40.12" y1="5.97" x2="44.62" y2="5.97"/><line class="cls-1" x1="40.12" y1="7.77" x2="44.62" y2="7.77"/></svg>