<svg xmlns="http://www.w3.org/2000/svg" viewBox="0 0 117.5 116.05"><defs><style>.cls-1,.cls-2{fill:none;stroke:#fff;stroke-linecap:round;stroke-linejoin:round;}.cls-1{stroke-width:1.73px;}.cls-2{stroke-width:1.73px;}.cls-3{fill:#fff;}</style></defs><title>icon-white</title><g id="Layer_1" data-name="Layer 1"><path class="cls-1" d="M116.63,23.22c-24.07,0-43.84-5.16-48.14-17.2-3.58,10-17.85,15.26-36.4,16.75"/><polygon class="cls-1" points="72.14 95.86 64.83 95.86 66.56 0.86 70.42 0.86 72.14 95.86"/><rect class="cls-1" x="3.96" y="33.35" width="31.06" height="5.44" transform="translate(58.77 47.79) rotate(135)"/><path class="cls-2" d="M21.36,38l.1-.09,9.33-9.34,4.91,4.91a6.91,6.91,0,0,1,1.45,7.64l-.1.24a5.17,5.17,0,0,0,1.08,5.72l3,3-3.75,3.75-.09.09-3.75,3.75-3-3a5.18,5.18,0,0,0-5.72-1.08l-.24.1a6.91,6.91,0,0,1-7.64-1.45L12,47.37Z"/><path class="cls-2" d="M4.53,29.86H9.19a0,0,0,0,1,0,0V40a2.33,2.33,0,0,1-2.33,2.33h0A2.33,2.33,0,0,1,4.53,40V29.86a0,0,0,0,1,0,0Z" transform="translate(37.21 56.72) rotate(135)"/><path class="cls-2" d="M17.16,17.23h4.66a0,0,0,0,1,0,0v10.1a2.33,2.33,0,0,1-2.33,2.33h0a2.33,2.33,0,0,1-2.33-2.33V17.23A0,0,0,0,1,17.16,17.23Z" transform="translate(49.84 26.23) rotate(135)"/><polygon class="cls-2" points="27.51 43.08 26.5 37.84 23.61 40.73 26.11 48.11 29.15 45.09 32.09 49.82 30.26 40.33 27.51 43.08"/><path class="cls-2" d="M21.91,115.19l4.67-4.67L10.25,94.18A9.51,9.51,0,0,1,23.7,80.73l4.94,4.94A16.11,16.11,0,0,0,51.43,62.88l-9.75-9.74L37,57.8l9.75,9.75A9.51,9.51,0,0,1,33.31,81l-4.94-4.94A16.11,16.11,0,0,0,5.58,98.85Z"/><path class="cls-3" d="M36.44,101.9H38v10.71h5.13v1.3H36.44Z"/><path class="cls-3" d="M52.35,109.52a4.22,4.22,0,0,1-4.29,4.59,4.11,4.11,0,0,1-4.14-4.44c0-2.89,1.89-4.58,4.28-4.58S52.35,106.89,52.35,109.52Zm-6.84.09c0,1.89,1.09,3.32,2.62,3.32s2.62-1.41,2.62-3.35c0-1.46-.73-3.32-2.58-3.32S45.51,108,45.51,109.61Z"/><path class="cls-3" d="M54.83,105.28,56,109.67c.25,1,.48,1.85.64,2.74h.06c.19-.87.48-1.8.76-2.72l1.41-4.41h1.32l1.34,4.32c.32,1,.57,1.94.76,2.81h.06a26.84,26.84,0,0,1,.65-2.8l1.23-4.33h1.55L63,113.91H61.55l-1.32-4.12c-.3-1-.55-1.82-.77-2.83h0a25.71,25.71,0,0,1-.79,2.85l-1.39,4.1H55.83l-2.6-8.63Z"/></g></svg>