<svg xmlns="http://www.w3.org/2000/svg" viewBox="0 0 109.77 93.94"><defs><style>.cls-1{fill:#fff;stroke:#174799;stroke-linecap:round;stroke-linejoin:round;stroke-width:2.27px;}</style></defs><title>icon</title><g id="Layer_1" data-name="Layer 1"><path class="cls-1" d="M60.19,91.13H13a4.84,4.84,0,0,1-4.84-4.84l-4-26.78A4.83,4.83,0,0,1,9,54.67H64.21a4.84,4.84,0,0,1,4.84,4.84L65,86.29A4.84,4.84,0,0,1,60.19,91.13Z"/><circle class="cls-1" cx="36.6" cy="36.6" r="35.46"/><path class="cls-1" d="M36.6,12.84A23.75,23.75,0,0,0,20.43,54H52.77A23.76,23.76,0,0,0,36.6,12.84Z"/><path class="cls-1" d="M54,35.75a17.4,17.4,0,0,0-34.8,0"/><circle class="cls-1" cx="36.93" cy="54.33" r="4.35"/><line class="cls-1" x1="39.5" y1="50.41" x2="49.78" y2="34.75"/><path class="cls-1" d="M93.74,66.51a16.28,16.28,0,0,1-4.81-.87.69.69,0,0,0-.89.23Q76.69,78.14,65.3,90.38a7.29,7.29,0,0,1-12.16-2.09,7.31,7.31,0,0,1,1.75-8.13q12.2-11.52,24.41-23a.75.75,0,0,0,.23-.94A15,15,0,0,1,94.7,36.52a1.34,1.34,0,0,1,.93,2.41c-2.25,2.23-4.48,4.49-6.74,6.71a.76.76,0,0,0-.21.91q1.16,3.56,2.26,7.11a.77.77,0,0,0,.57.58q3.61,1.13,7.22,2.29a.64.64,0,0,0,.76-.21q3.33-3.34,6.69-6.68a2.21,2.21,0,0,1,.9-.59,1.24,1.24,0,0,1,1.55,1.31,18.42,18.42,0,0,1-.21,3.72c-1.34,6.41-5.21,10.45-11.59,12A26.39,26.39,0,0,1,93.74,66.51Z"/></g></svg>