<svg xmlns="http://www.w3.org/2000/svg" viewBox="0 0 118.41 123.36"><defs><style>.cls-1,.cls-5{fill:none;}.cls-1,.cls-2,.cls-5{stroke:#174798;stroke-linecap:round;stroke-linejoin:round;}.cls-1,.cls-2{stroke-width:1.73px;}.cls-2{fill:#8fb0d9;}.cls-3{font-size:17.82px;fill:#174798;font-family:MyriadPro-Regular, Myriad Pro;}.cls-4{letter-spacing:0.01em;}.cls-5{stroke-width:1.73px;}</style></defs><title>icon</title><g id="Layer_1" data-name="Layer 1"><rect class="cls-1" x="3.96" y="38.35" width="31.06" height="5.44" transform="translate(62.31 56.33) rotate(135)"/><path class="cls-1" d="M21.36,43l.1-.09,9.33-9.34,4.91,4.91a6.91,6.91,0,0,1,1.45,7.64l-.1.24a5.17,5.17,0,0,0,1.08,5.72l3,3-3.75,3.75-.09.09-3.75,3.75-3-3a5.18,5.18,0,0,0-5.72-1.08l-.24.1a6.91,6.91,0,0,1-7.64-1.45L12,52.37Z"/><path class="cls-2" d="M4.53,34.86H9.19a0,0,0,0,1,0,0V45a2.33,2.33,0,0,1-2.33,2.33h0A2.33,2.33,0,0,1,4.53,45V34.86a0,0,0,0,1,0,0Z" transform="translate(40.75 65.26) rotate(135)"/><path class="cls-2" d="M17.16,22.23h4.66a0,0,0,0,1,0,0v10.1a2.33,2.33,0,0,1-2.33,2.33h0a2.33,2.33,0,0,1-2.33-2.33V22.23a0,0,0,0,1,0,0Z" transform="translate(53.38 34.77) rotate(135)"/><polygon class="cls-2" points="27.51 48.08 26.5 42.84 23.61 45.73 26.11 53.11 29.15 50.09 32.09 54.82 30.26 45.33 27.51 48.08"/><path class="cls-2" d="M21.91,120.19l4.67-4.67L10.25,99.18A9.51,9.51,0,0,1,23.7,85.73l4.94,4.94A16.11,16.11,0,0,0,51.43,67.88l-9.75-9.74L37,62.8l9.75,9.75A9.51,9.51,0,0,1,33.31,86l-4.94-4.94A16.11,16.11,0,0,0,5.58,103.85Z"/><text class="cls-3" transform="translate(35.09 118.91)"><tspan class="cls-4">H</tspan><tspan x="11.8" y="0">igh</tspan></text><polyline class="cls-5" points="76.89 46.16 97.66 64.27 65.18 95.86 76.67 45.93 76.67 12.79 85.51 0.86 93.46 12.79 93.46 45.93 105.83 95.86 72.92 62.95 81.75 55.88"/><polygon class="cls-5" points="57.23 45.49 76.67 35 93.46 35 114.67 45.49 57.23 45.49"/><line class="cls-5" x1="114.67" y1="57.86" x2="114.67" y2="45.49"/><line class="cls-5" x1="111.8" y1="50.13" x2="117.54" y2="50.13"/><line class="cls-5" x1="111.8" y1="54.99" x2="117.54" y2="54.99"/><line class="cls-5" x1="57.45" y1="57.86" x2="57.45" y2="45.49"/><line class="cls-5" x1="54.58" y1="50.13" x2="60.32" y2="50.13"/><line class="cls-5" x1="54.58" y1="54.99" x2="60.32" y2="54.99"/><polygon class="cls-5" points="57.23 24.28 76.67 13.79 93.46 13.79 114.67 24.28 57.23 24.28"/><line class="cls-5" x1="114.67" y1="36.65" x2="114.67" y2="24.28"/><line class="cls-5" x1="111.8" y1="28.92" x2="117.54" y2="28.92"/><line class="cls-5" x1="111.8" y1="33.78" x2="117.54" y2="33.78"/><line class="cls-5" x1="57.45" y1="36.65" x2="57.45" y2="24.28"/><line class="cls-5" x1="54.58" y1="28.92" x2="60.32" y2="28.92"/><line class="cls-5" x1="54.58" y1="33.78" x2="60.32" y2="33.78"/></g></svg>