<svg xmlns="http://www.w3.org/2000/svg" viewBox="0 0 99.96 118.05"><defs><style>.cls-1,.cls-3{fill:none;stroke:#fff;stroke-linecap:round;stroke-linejoin:round;}.cls-1{stroke-width:1.73px;}.cls-2{fill:#fff;}.cls-3{stroke-width:1.73px;}</style></defs><title>icon-white</title><g id="Layer_1" data-name="Layer 1"><rect class="cls-1" x="3.96" y="35.35" width="31.06" height="5.44" transform="translate(60.19 51.21) rotate(135)"/><path class="cls-1" d="M21.36,40l.1-.09,9.33-9.34,4.91,4.91a6.91,6.91,0,0,1,1.45,7.64l-.1.24a5.17,5.17,0,0,0,1.08,5.72l3,3-3.75,3.75-.09.09-3.75,3.75-3-3a5.18,5.18,0,0,0-5.72-1.08l-.24.1a6.91,6.91,0,0,1-7.64-1.45L12,49.37Z"/><path class="cls-1" d="M4.53,31.86H9.19a0,0,0,0,1,0,0V42a2.33,2.33,0,0,1-2.33,2.33h0A2.33,2.33,0,0,1,4.53,42V31.86a0,0,0,0,1,0,0Z" transform="translate(38.63 60.14) rotate(135)"/><path class="cls-1" d="M17.16,19.23h4.66a0,0,0,0,1,0,0v10.1a2.33,2.33,0,0,1-2.33,2.33h0a2.33,2.33,0,0,1-2.33-2.33V19.23a0,0,0,0,1,0,0Z" transform="translate(51.26 29.65) rotate(135)"/><polygon class="cls-1" points="27.51 45.08 26.5 39.84 23.61 42.73 26.11 50.11 29.15 47.09 32.09 51.82 30.26 42.33 27.51 45.08"/><path class="cls-1" d="M21.91,117.19l4.67-4.67L10.25,96.18A9.51,9.51,0,0,1,23.7,82.73l4.94,4.94A16.11,16.11,0,0,0,51.43,64.88l-9.75-9.74L37,59.8l9.75,9.75A9.51,9.51,0,0,1,33.31,83l-4.94-4.94A16.11,16.11,0,0,0,5.58,100.85Z"/><path class="cls-2" d="M46.56,110.63c-.09-1.67-.19-3.69-.17-5.18h-.06c-.41,1.41-.91,2.9-1.51,4.56l-2.12,5.83H41.52l-1.94-5.72c-.57-1.7-1-3.25-1.39-4.67h0c0,1.49-.12,3.51-.23,5.31l-.32,5.15H36.12l.84-12h2L41,109.71c.49,1.48.9,2.79,1.21,4h0c.3-1.21.73-2.53,1.27-4l2.14-5.81h2l.75,12H46.87Z"/><path class="cls-2" d="M51.69,111.88a2.77,2.77,0,0,0,3,3,5.65,5.65,0,0,0,2.39-.45l.27,1.12a7,7,0,0,1-2.87.54,4,4,0,0,1-4.24-4.35c0-2.6,1.53-4.65,4-4.65,2.82,0,3.57,2.47,3.57,4.06a5.28,5.28,0,0,1-.06.73Zm4.6-1.12a2.23,2.23,0,0,0-2.17-2.55,2.6,2.6,0,0,0-2.41,2.55Z"/><path class="cls-2" d="M67.2,103.25v10.43c0,.77,0,1.64.07,2.23H65.86l-.07-1.5h0a3.2,3.2,0,0,1-2.94,1.7c-2.08,0-3.69-1.77-3.69-4.39,0-2.87,1.77-4.63,3.87-4.63a2.87,2.87,0,0,1,2.6,1.32h0v-5.16Zm-1.57,7.54a3,3,0,0,0-.07-.66,2.31,2.31,0,0,0-2.27-1.81c-1.62,0-2.58,1.42-2.58,3.33,0,1.75.86,3.19,2.55,3.19a2.37,2.37,0,0,0,2.3-1.87,3,3,0,0,0,.07-.68Z"/><path class="cls-2" d="M71.54,104.86a.92.92,0,0,1-1,1,.93.93,0,0,1-1-1,1,1,0,0,1,1-1A.93.93,0,0,1,71.54,104.86Zm-1.74,11v-8.63h1.57v8.63Z"/><path class="cls-2" d="M81.18,113.56c0,.89,0,1.67.08,2.35H79.87l-.09-1.41h0a3.24,3.24,0,0,1-2.85,1.61c-1.36,0-3-.75-3-3.78v-5h1.57v4.78c0,1.64.5,2.74,1.93,2.74a2.22,2.22,0,0,0,2.21-2.22v-5.3h1.56Z"/><path class="cls-2" d="M83.78,109.62c0-.89,0-1.62-.07-2.34h1.38l.07,1.39h0a3,3,0,0,1,2.71-1.58,2.54,2.54,0,0,1,2.44,1.73h0a3.38,3.38,0,0,1,1-1.13,3,3,0,0,1,1.91-.6c1.14,0,2.83.75,2.83,3.74v5.08H94.57V111c0-1.66-.61-2.66-1.87-2.66a2,2,0,0,0-1.86,1.43,2.56,2.56,0,0,0-.12.78v5.33H89.18v-5.17c0-1.37-.6-2.37-1.8-2.37a2.32,2.32,0,0,0-2.06,2.33v5.21H83.78Z"/><polygon class="cls-3" points="71.63 92.86 64.43 92.86 65.43 15.97 70.63 15.97 71.63 92.86"/><polygon class="cls-3" points="70.63 8.57 65.43 8.57 66.43 0.86 69.63 0.86 70.63 8.57"/><rect class="cls-3" x="37.86" y="11.37" width="61.23" height="1.8"/><line class="cls-3" x1="94.59" y1="11.37" x2="94.59" y2="4.62"/><line class="cls-3" x1="92.34" y1="5.97" x2="96.85" y2="5.97"/><line class="cls-3" x1="92.34" y1="7.77" x2="96.85" y2="7.77"/><line class="cls-3" x1="42.37" y1="11.37" x2="42.37" y2="4.62"/><line class="cls-3" x1="40.12" y1="5.97" x2="44.62" y2="5.97"/><line class="cls-3" x1="40.12" y1="7.77" x2="44.62" y2="7.77"/></g></svg>