<svg xmlns="http://www.w3.org/2000/svg" viewBox="0 0 118.41 122.63"><defs><style>.cls-1,.cls-3{fill:none;stroke:#fff;stroke-linecap:round;stroke-linejoin:round;}.cls-1{stroke-width:1.73px;}.cls-2{fill:#fff;}.cls-3{stroke-width:1.73px;}</style></defs><title>icon-white</title><g id="Layer_1" data-name="Layer 1"><rect class="cls-1" x="3.96" y="38.35" width="31.06" height="5.44" transform="translate(62.31 56.33) rotate(135)"/><path class="cls-1" d="M21.36,43l.1-.09,9.33-9.34,4.91,4.91a6.91,6.91,0,0,1,1.45,7.64l-.1.24a5.17,5.17,0,0,0,1.08,5.72l3,3-3.75,3.75-.09.09-3.75,3.75-3-3a5.18,5.18,0,0,0-5.72-1.08l-.24.1a6.91,6.91,0,0,1-7.64-1.45L12,52.37Z"/><path class="cls-1" d="M4.53,34.86H9.19a0,0,0,0,1,0,0V45a2.33,2.33,0,0,1-2.33,2.33h0A2.33,2.33,0,0,1,4.53,45V34.86a0,0,0,0,1,0,0Z" transform="translate(40.75 65.26) rotate(135)"/><path class="cls-1" d="M17.16,22.23h4.66a0,0,0,0,1,0,0v10.1a2.33,2.33,0,0,1-2.33,2.33h0a2.33,2.33,0,0,1-2.33-2.33V22.23A0,0,0,0,1,17.16,22.23Z" transform="translate(53.38 34.77) rotate(135)"/><polygon class="cls-1" points="27.51 48.08 26.5 42.84 23.61 45.73 26.11 53.11 29.15 50.09 32.09 54.82 30.26 45.33 27.51 48.08"/><path class="cls-1" d="M21.91,120.19l4.67-4.67L10.25,99.18A9.51,9.51,0,0,1,23.7,85.73l4.94,4.94A16.11,16.11,0,0,0,51.43,67.88l-9.75-9.74L37,62.8l9.75,9.75A9.51,9.51,0,0,1,33.31,86l-4.94-4.94A16.11,16.11,0,0,0,5.58,103.85Z"/><path class="cls-2" d="M38,106.9v5H43.8v-5h1.57v12H43.8v-5.63H38v5.63H36.44v-12Z"/><path class="cls-2" d="M49.93,107.86a1,1,0,0,1-1.94,0,1,1,0,0,1,1-1A.93.93,0,0,1,49.93,107.86Zm-1.75,11v-8.63h1.57v8.63Z"/><path class="cls-2" d="M59.78,110.28c0,.63-.07,1.32-.07,2.37v5c0,2-.39,3.19-1.23,3.94a4.57,4.57,0,0,1-3.13,1,5.57,5.57,0,0,1-2.87-.71l.39-1.19a4.92,4.92,0,0,0,2.53.67c1.6,0,2.78-.83,2.78-3v-1h0a3.07,3.07,0,0,1-2.74,1.44c-2.14,0-3.67-1.81-3.67-4.2,0-2.93,1.91-4.58,3.88-4.58a2.89,2.89,0,0,1,2.7,1.49h0l.07-1.3Zm-1.62,3.41a2.33,2.33,0,0,0-.09-.72,2.26,2.26,0,0,0-2.19-1.65c-1.5,0-2.56,1.26-2.56,3.26,0,1.69.85,3.1,2.54,3.1A2.3,2.3,0,0,0,58,116.07a2.65,2.65,0,0,0,.12-.83Z"/><path class="cls-2" d="M62.31,106.25h1.57v5.39h0A2.91,2.91,0,0,1,65,110.53a3.3,3.3,0,0,1,1.6-.44c1.16,0,3,.71,3,3.69v5.13H68.09v-5c0-1.39-.52-2.56-2-2.56A2.25,2.25,0,0,0,64,113a1.83,1.83,0,0,0-.11.74v5.21H62.31Z"/><polyline class="cls-3" points="76.89 46.16 97.66 64.27 65.18 95.86 76.67 45.93 76.67 12.79 85.51 0.86 93.46 12.79 93.46 45.93 105.83 95.86 72.92 62.95 81.75 55.88"/><polygon class="cls-3" points="57.23 45.49 76.67 35 93.46 35 114.67 45.49 57.23 45.49"/><line class="cls-3" x1="114.67" y1="57.86" x2="114.67" y2="45.49"/><line class="cls-3" x1="111.8" y1="50.13" x2="117.54" y2="50.13"/><line class="cls-3" x1="111.8" y1="54.99" x2="117.54" y2="54.99"/><line class="cls-3" x1="57.45" y1="57.86" x2="57.45" y2="45.49"/><line class="cls-3" x1="54.58" y1="50.13" x2="60.32" y2="50.13"/><line class="cls-3" x1="54.58" y1="54.99" x2="60.32" y2="54.99"/><polygon class="cls-3" points="57.23 24.28 76.67 13.79 93.46 13.79 114.67 24.28 57.23 24.28"/><line class="cls-3" x1="114.67" y1="36.65" x2="114.67" y2="24.28"/><line class="cls-3" x1="111.8" y1="28.92" x2="117.54" y2="28.92"/><line class="cls-3" x1="111.8" y1="33.78" x2="117.54" y2="33.78"/><line class="cls-3" x1="57.45" y1="36.65" x2="57.45" y2="24.28"/><line class="cls-3" x1="54.58" y1="28.92" x2="60.32" y2="28.92"/><line class="cls-3" x1="54.58" y1="33.78" x2="60.32" y2="33.78"/></g></svg>