<svg xmlns="http://www.w3.org/2000/svg" viewBox="0 0 117.5 118.36"><defs><style>.cls-1,.cls-2{fill:none;}.cls-1,.cls-2,.cls-3{stroke:#174798;stroke-linecap:round;stroke-linejoin:round;}.cls-1{stroke-width:1.73px;}.cls-2,.cls-3{stroke-width:1.73px;}.cls-3{fill:#8fb0d9;}.cls-4{font-size:17.82px;fill:#174798;font-family:MyriadPro-Regular, Myriad Pro;}.cls-5{letter-spacing:-0.01em;}.cls-6{letter-spacing:-0.01em;}</style></defs><title>icon</title><g id="Layer_1" data-name="Layer 1"><path class="cls-1" d="M116.63,23.22c-24.07,0-43.84-5.16-48.14-17.2-3.58,10-17.85,15.26-36.4,16.75"/><polygon class="cls-1" points="72.14 95.86 64.83 95.86 66.56 0.86 70.42 0.86 72.14 95.86"/><rect class="cls-1" x="3.96" y="33.35" width="31.06" height="5.44" transform="translate(58.77 47.79) rotate(135)"/><path class="cls-2" d="M21.36,38l.1-.09,9.33-9.34,4.91,4.91a6.91,6.91,0,0,1,1.45,7.64l-.1.24a5.17,5.17,0,0,0,1.08,5.72l3,3-3.75,3.75-.09.09-3.75,3.75-3-3a5.18,5.18,0,0,0-5.72-1.08l-.24.1a6.91,6.91,0,0,1-7.64-1.45L12,47.37Z"/><path class="cls-3" d="M4.53,29.86H9.19a0,0,0,0,1,0,0V40a2.33,2.33,0,0,1-2.33,2.33h0A2.33,2.33,0,0,1,4.53,40V29.86a0,0,0,0,1,0,0Z" transform="translate(37.21 56.72) rotate(135)"/><path class="cls-3" d="M17.16,17.23h4.66a0,0,0,0,1,0,0v10.1a2.33,2.33,0,0,1-2.33,2.33h0a2.33,2.33,0,0,1-2.33-2.33V17.23A0,0,0,0,1,17.16,17.23Z" transform="translate(49.84 26.23) rotate(135)"/><polygon class="cls-3" points="27.51 43.08 26.5 37.84 23.61 40.73 26.11 48.11 29.15 45.09 32.09 49.82 30.26 40.33 27.51 43.08"/><path class="cls-3" d="M21.91,115.19l4.67-4.67L10.25,94.18A9.51,9.51,0,0,1,23.7,80.73l4.94,4.94A16.11,16.11,0,0,0,51.43,62.88l-9.75-9.74L37,57.8l9.75,9.75A9.51,9.51,0,0,1,33.31,81l-4.94-4.94A16.11,16.11,0,0,0,5.58,98.85Z"/><text class="cls-4" transform="translate(35.09 113.91)"><tspan class="cls-5">L</tspan><tspan class="cls-6" x="8.16" y="0">o</tspan><tspan x="17.82" y="0">w</tspan></text></g></svg>