<svg xmlns="http://www.w3.org/2000/svg" viewBox="0 0 99.96 120.36"><defs><style>.cls-1,.cls-7{fill:none;}.cls-1,.cls-2,.cls-5,.cls-6,.cls-7{stroke:#174798;stroke-linecap:round;stroke-linejoin:round;}.cls-1,.cls-2{stroke-width:1.73px;}.cls-2,.cls-6{fill:#8fb0d9;}.cls-3{font-size:17.82px;fill:#174798;font-family:MyriadPro-Regular, Myriad Pro;letter-spacing:0.01em;}.cls-4{letter-spacing:0em;}.cls-5{fill:#fff;}.cls-5,.cls-6,.cls-7{stroke-width:1.73px;}</style></defs><title>icon</title><g id="Layer_1" data-name="Layer 1"><rect class="cls-1" x="3.96" y="35.35" width="31.06" height="5.44" transform="translate(60.19 51.21) rotate(135)"/><path class="cls-1" d="M21.36,40l.1-.09,9.33-9.34,4.91,4.91a6.91,6.91,0,0,1,1.45,7.64l-.1.24a5.17,5.17,0,0,0,1.08,5.72l3,3-3.75,3.75-.09.09-3.75,3.75-3-3a5.18,5.18,0,0,0-5.72-1.08l-.24.1a6.91,6.91,0,0,1-7.64-1.45L12,49.37Z"/><path class="cls-2" d="M4.53,31.86H9.19a0,0,0,0,1,0,0V42a2.33,2.33,0,0,1-2.33,2.33h0A2.33,2.33,0,0,1,4.53,42V31.86A0,0,0,0,1,4.53,31.86Z" transform="translate(38.63 60.14) rotate(135)"/><path class="cls-2" d="M17.16,19.23h4.66a0,0,0,0,1,0,0v10.1a2.33,2.33,0,0,1-2.33,2.33h0a2.33,2.33,0,0,1-2.33-2.33V19.23A0,0,0,0,1,17.16,19.23Z" transform="translate(51.26 29.65) rotate(135)"/><polygon class="cls-2" points="27.51 45.08 26.5 39.84 23.61 42.73 26.11 50.11 29.15 47.09 32.09 51.82 30.26 42.33 27.51 45.08"/><path class="cls-2" d="M21.91,117.19l4.67-4.67L10.25,96.18A9.51,9.51,0,0,1,23.7,82.73l4.94,4.94A16.11,16.11,0,0,0,51.43,64.88l-9.75-9.74L37,59.8l9.75,9.75A9.51,9.51,0,0,1,33.31,83l-4.94-4.94A16.11,16.11,0,0,0,5.58,100.85Z"/><text class="cls-3" transform="translate(35.09 115.91)">M<tspan class="cls-4" x="14.43" y="0">edium</tspan></text><polygon class="cls-5" points="71.63 92.86 64.43 92.86 65.43 15.97 70.63 15.97 71.63 92.86"/><polygon class="cls-5" points="70.63 8.57 65.43 8.57 66.43 0.86 69.63 0.86 70.63 8.57"/><rect class="cls-6" x="37.86" y="11.37" width="61.23" height="1.8"/><line class="cls-7" x1="94.59" y1="11.37" x2="94.59" y2="4.62"/><line class="cls-7" x1="92.34" y1="5.97" x2="96.85" y2="5.97"/><line class="cls-7" x1="92.34" y1="7.77" x2="96.85" y2="7.77"/><line class="cls-7" x1="42.37" y1="11.37" x2="42.37" y2="4.62"/><line class="cls-7" x1="40.12" y1="5.97" x2="44.62" y2="5.97"/><line class="cls-7" x1="40.12" y1="7.77" x2="44.62" y2="7.77"/></g></svg>