<svg xmlns="http://www.w3.org/2000/svg" viewBox="0 0 53.54 60.38"><defs><style>.cls-1{fill:#fff;}.cls-1,.cls-2,.cls-3{stroke:#17479b;stroke-linecap:round;stroke-linejoin:round;stroke-width:1.8px;}.cls-2{fill:#92b3dc;}.cls-3{fill:none;}</style></defs><title>icon-white</title><g id="Layer_1" data-name="Layer 1"><path class="cls-1" d="M46,.9H3.62A2.65,2.65,0,0,0,1,3.55l-.07,31V56.83a2.65,2.65,0,0,0,2.65,2.65H46a2.65,2.65,0,0,0,2.65-2.65l.07-26.77V3.55A2.65,2.65,0,0,0,46,.9Z"/><line class="cls-1" x1="8.19" y1="31.52" x2="38.62" y2="31.52"/><line class="cls-1" x1="8.19" y1="36.38" x2="38.62" y2="36.38"/><line class="cls-1" x1="8.19" y1="41.23" x2="38.62" y2="41.23"/><line class="cls-1" x1="8.19" y1="46.09" x2="21.01" y2="46.09"/><rect class="cls-2" x="8.37" y="19.37" width="7.29" height="7.29"/><rect class="cls-2" x="19.76" y="19.37" width="7.29" height="7.29"/><rect class="cls-2" x="31.33" y="19.37" width="7.29" height="7.29"/><rect class="cls-2" x="8.37" y="8.19" width="7.29" height="7.29"/><rect class="cls-2" x="19.76" y="8.19" width="7.29" height="7.29"/><rect class="cls-2" x="31.33" y="8.19" width="7.29" height="7.29"/><path class="cls-2" d="M44.6,22.17V53.45l4,6,4-6V22.17a1.85,1.85,0,0,0-1.86-1.85H46.46A1.85,1.85,0,0,0,44.6,22.17Z"/><line class="cls-3" x1="52.33" y1="25.12" x2="48.09" y2="25.12"/></g></svg>