<svg id="Layer_1" data-name="Layer 1" xmlns="http://www.w3.org/2000/svg" viewBox="0 0 53.47 60.38"><defs><style>.cls-1{fill:none;stroke:#fff;stroke-linecap:round;stroke-linejoin:round;stroke-width:1.8px;}</style></defs><title>icon-4</title><path class="cls-1" d="M46,.9H3.62A2.65,2.65,0,0,0,1,3.55l-.07,31V56.83a2.65,2.65,0,0,0,2.65,2.65H46a2.65,2.65,0,0,0,2.65-2.65h0l.07-26.77V3.55A2.65,2.65,0,0,0,46.07.9Z" transform="translate(-0.03 0)"/><line class="cls-1" x1="8.16" y1="31.52" x2="38.59" y2="31.52"/><line class="cls-1" x1="8.16" y1="36.38" x2="38.59" y2="36.38"/><line class="cls-1" x1="8.16" y1="41.23" x2="38.59" y2="41.23"/><line class="cls-1" x1="8.16" y1="46.09" x2="20.98" y2="46.09"/><rect class="cls-1" x="8.34" y="19.37" width="7.29" height="7.29"/><rect class="cls-1" x="19.73" y="19.37" width="7.29" height="7.29"/><rect class="cls-1" x="31.3" y="19.37" width="7.29" height="7.29"/><rect class="cls-1" x="8.34" y="8.19" width="7.29" height="7.29"/><rect class="cls-1" x="19.73" y="8.19" width="7.29" height="7.29"/><rect class="cls-1" x="31.3" y="8.19" width="7.29" height="7.29"/><path class="cls-1" d="M44.6,22.17V53.45l4,6,4-6V22.17a1.85,1.85,0,0,0-1.85-1.85H46.46a1.85,1.85,0,0,0-1.86,1.84Z" transform="translate(-0.03 0)"/><line class="cls-1" x1="52.3" y1="25.12" x2="48.06" y2="25.12"/></svg>