<svg xmlns="http://www.w3.org/2000/svg" viewBox="0 0 65.68 68.07"><defs><style>.cls-1{fill:none;}.cls-1,.cls-2{stroke:#17479b;stroke-linecap:round;stroke-linejoin:round;stroke-width:1.8px;}.cls-2{fill:#92b3dc;}</style></defs><title>icon-white</title><g id="Layer_1" data-name="Layer 1"><path class="cls-1" d="M22.66,43.88V21.73a2.55,2.55,0,0,1,2.55-2.55H38.67V5.39A4.49,4.49,0,0,0,34.17.9H5.39A4.49,4.49,0,0,0,.9,5.39V62.67a4.49,4.49,0,0,0,4.49,4.5H34.17a4.49,4.49,0,0,0,4.5-4.5V46.43H25.21A2.55,2.55,0,0,1,22.66,43.88Z"/><path class="cls-2" d="M62.23,19.18h-37a2.55,2.55,0,0,0-2.55,2.55V43.88a2.55,2.55,0,0,0,2.55,2.55h37a2.55,2.55,0,0,0,2.55-2.55V21.73A2.55,2.55,0,0,0,62.23,19.18Z"/><rect class="cls-2" x="26.67" y="29.69" width="9.21" height="6.46" rx="1.23"/><line class="cls-2" x1="26.67" y1="41.58" x2="32.76" y2="41.58"/><line class="cls-2" x1="35.96" y1="41.58" x2="42.05" y2="41.58"/><line class="cls-2" x1="45.24" y1="41.58" x2="51.34" y2="41.58"/><line class="cls-2" x1="54.53" y1="41.58" x2="60.62" y2="41.58"/><line class="cls-2" x1="60.62" y1="24.04" x2="39" y2="24.04"/><line class="cls-2" x1="0.9" y1="6.24" x2="38.67" y2="6.24"/><line class="cls-2" x1="0.9" y1="58.74" x2="38.67" y2="58.74"/><line class="cls-2" x1="15.57" y1="62.81" x2="24" y2="62.81"/></g></svg>