<svg xmlns="http://www.w3.org/2000/svg" viewBox="0 0 65.32 65.32"><defs><style>.cls-1{fill:#fff;stroke-width:1.7px;}.cls-1,.cls-2{stroke:#17479b;stroke-linecap:round;stroke-linejoin:round;}.cls-2{fill:#92b3dc;stroke-width:1.8px;}</style></defs><title>icon-white</title><g id="Layer_1" data-name="Layer 1"><path class="cls-1" d="M28.54,10.57H43.07L32.42,26.28h2.87l2.51-2.51,2.4-2.4L49,12.56A25.91,25.91,0,0,0,12.56,49L27.92,33.65l.71-.72-9.59,0Z"/><path class="cls-1" d="M52.76,16.31l-10,10h3.49L27,54.75,36.23,33h-.12l-2.86,2.87L28.9,40.16l-5,5.05-7.55,7.55A25.91,25.91,0,0,0,52.76,16.31Z"/><polygon class="cls-2" points="35.29 26.28 32.42 26.28 43.07 10.57 28.55 10.57 19.04 32.91 28.64 32.93 33.18 28.39 35.29 26.28"/><polygon class="cls-2" points="27.01 54.75 46.28 26.28 42.78 26.28 38.46 30.61 36.11 32.95 36.23 32.95 27.01 54.75"/><path class="cls-1" d="M32.66.85A31.81,31.81,0,1,0,64.47,32.66,31.81,31.81,0,0,0,32.66.85ZM6.75,32.66A25.91,25.91,0,0,1,49,12.56L40.2,21.37l-2.4,2.4-2.51,2.51-2.11,2.11-4.55,4.54-.71.72-5,5L12.56,49A25.81,25.81,0,0,1,6.75,32.66ZM32.66,58.57a25.81,25.81,0,0,1-16.35-5.81l7.55-7.55,5-5.05,4.35-4.34L36.11,33l2.35-2.34,4.33-4.33,10-10a25.91,25.91,0,0,1-20.1,42.26Z"/></g></svg>