<svg xmlns="http://www.w3.org/2000/svg" viewBox="0 0 47.45 72.81"><defs><style>.cls-1{fill:#92b3dc;}.cls-1,.cls-2{stroke:#17479b;stroke-miterlimit:10;stroke-width:1.85px;}.cls-2{fill:#fff;}</style></defs><title>icon-white</title><g id="Layer_1" data-name="Layer 1"><line class="cls-1" x1="13.14" y1="59.38" x2="34.31" y2="59.38"/><line class="cls-1" x1="14.93" y1="63.46" x2="32.52" y2="63.46"/><path class="cls-1" d="M17,67.29a7.18,7.18,0,0,0,13.39,0Z"/><path class="cls-2" d="M43.14,35.67a22.69,22.69,0,0,0,3.39-12v0l0-1.1,0-.37c0-.25,0-.49-.06-.74s0-.28,0-.43l-.09-.66c0-.15-.05-.3-.07-.45s-.07-.43-.12-.64S46,19,46,18.87s-.09-.42-.15-.64-.06-.28-.1-.42-.13-.44-.19-.66-.07-.25-.11-.37l-.3-.87,0-.14c-.12-.33-.25-.66-.39-1-.05-.11-.11-.23-.16-.35s-.18-.41-.28-.61l-.2-.39c-.09-.19-.19-.37-.28-.55l-.23-.4-.3-.52-.24-.4-.33-.49c-.08-.13-.17-.26-.26-.38a5.74,5.74,0,0,0-.36-.5c-.08-.12-.17-.24-.26-.35s-.3-.39-.45-.57L41.1,9c-.2-.24-.4-.47-.61-.7L40.18,8c-.14-.14-.27-.29-.42-.43l-.35-.33L39,6.81l-.38-.33-.42-.35-.39-.32-.43-.33c-.14-.1-.27-.21-.41-.3l-.45-.32-.42-.28-.5-.31L35,3.92l-.67-.37-.45-.23-.49-.24-.48-.22-.49-.21-.5-.19-.49-.19-.51-.18-.5-.16-.52-.15-.53-.14-.52-.13-.57-.12A22.66,22.66,0,0,0,7.67,7.59l-.07.07c-.2.2-.4.41-.59.62a1.85,1.85,0,0,1-.14.14L6.35,9l-.17.21c-.16.18-.31.38-.46.57s-.14.17-.2.26-.28.37-.41.56l-.21.3-.37.56-.21.34L4,12.36l-.21.38-.29.53-.21.42c-.09.17-.17.35-.25.53s-.14.29-.2.44-.16.35-.23.53l-.18.47c-.07.17-.13.34-.2.52s-.11.33-.16.5-.12.34-.17.51l-.15.53c-.05.17-.09.34-.14.51l-.12.56c0,.17-.08.33-.11.5s-.08.39-.11.59-.06.32-.08.48-.06.42-.08.64L1,21.45,1,22.17c0,.13,0,.26,0,.39,0,.35,0,.7,0,1.06,0,0,0,0,0,.06a23.48,23.48,0,0,0,.19,2.92A22.74,22.74,0,0,0,7.24,39.48a7.19,7.19,0,0,1,2,5v4.69a6.14,6.14,0,0,0,5.53,6.13l.63,0H32.06l.63,0a6.37,6.37,0,0,0,2.29-.7h0a6.19,6.19,0,0,0,3.22-5.42V44.46a7.21,7.21,0,0,1,1.11-3.82,7.48,7.48,0,0,1,1-1.23A23.28,23.28,0,0,0,43.14,35.67Z"/><path class="cls-1" d="M21.08,44.57l.25-4.22A40.71,40.71,0,0,1,15.1,39V33.26A22.48,22.48,0,0,0,22.65,35c2.36,0,3.54-.73,3.54-2.18,0-.74-.74-1.41-2.21-2l-4.19-1.69a8.43,8.43,0,0,1-3.43-2.46,6.77,6.77,0,0,1-1.54-4.4A6.6,6.6,0,0,1,17.25,17a9.18,9.18,0,0,1,4.54-2.11l-.14-3.23h4.87l-.25,3.23a26.27,26.27,0,0,1,4.15.68v5.11A24.69,24.69,0,0,0,25,19.88q-3.72,0-3.72,2.19c0,.78.64,1.42,1.93,1.89l3.33,1.22q6.11,2.25,6.11,7.41a7.25,7.25,0,0,1-2.32,5.54,9.19,9.19,0,0,1-4.51,2.22l.14,4.22Z"/></g></svg>