<svg xmlns="http://www.w3.org/2000/svg" viewBox="0 0 64.22 60.12"><defs><style>.cls-1,.cls-2{fill:none;stroke:#fff;stroke-linecap:round;stroke-linejoin:round;}.cls-1{stroke-width:1.8px;}.cls-2{stroke-width:1.89px;}</style></defs><title>icon</title><g id="Layer_1" data-name="Layer 1"><path class="cls-1" d="M34.17,44.64A14.57,14.57,0,0,1,48.61,30.06V3.55A2.65,2.65,0,0,0,46,.9H3.55A2.65,2.65,0,0,0,.9,3.55v53a2.65,2.65,0,0,0,2.65,2.65H48.61A14.57,14.57,0,0,1,34.17,44.64Z"/><line class="cls-1" x1="8.19" y1="17.73" x2="8.19" y2="23.56"/><line class="cls-1" x1="11.9" y1="15.61" x2="11.9" y2="23.56"/><line class="cls-1" x1="15.61" y1="14.55" x2="15.61" y2="23.56"/><line class="cls-1" x1="19.32" y1="17.73" x2="19.32" y2="23.56"/><line class="cls-1" x1="23.03" y1="15.61" x2="23.03" y2="23.56"/><line class="cls-1" x1="26.74" y1="12.96" x2="26.74" y2="23.56"/><polyline class="cls-1" points="8.19 14.55 15.61 8.72 19.32 14.55 26.75 8.72"/><rect class="cls-1" x="34.17" y="19.32" width="4.24" height="4.24"/><rect class="cls-1" x="34.17" y="11.9" width="4.24" height="4.24"/><line class="cls-1" x1="8.19" y1="33.64" x2="26.74" y2="33.64"/><line class="cls-1" x1="8.19" y1="38.94" x2="26.74" y2="38.94"/><line class="cls-1" x1="8.19" y1="44.24" x2="26.74" y2="44.24"/><line class="cls-1" x1="8.19" y1="49.54" x2="26.74" y2="49.54"/><path class="cls-1" d="M63.32,44.64a14.57,14.57,0,1,1-6.38-12.06"/><polyline class="cls-2" points="62.41 36.44 48.7 50.15 42.03 43.49"/></g></svg>