<svg xmlns="http://www.w3.org/2000/svg" viewBox="0 0 61.61 61.61"><defs><style>.cls-1{fill:#fff;}.cls-1,.cls-2,.cls-3{stroke:#17479b;stroke-linecap:round;stroke-linejoin:round;}.cls-1,.cls-3{stroke-width:1.7px;}.cls-2{fill:#92b3dc;stroke-width:1.8px;}.cls-3{fill:none;}</style></defs><title>icon-white</title><g id="Layer_1" data-name="Layer 1"><rect class="cls-1" x="0.85" y="0.85" width="59.9" height="59.9" rx="4.96"/><path class="cls-2" d="M45.84,10.14V41.69l4,6.08,4-6.08V10.14a1.87,1.87,0,0,0-1.87-1.87H47.71A1.86,1.86,0,0,0,45.84,10.14Z"/><line class="cls-1" x1="7.86" y1="52.36" x2="53.75" y2="52.36"/><line class="cls-1" x1="7.93" y1="45.64" x2="39.91" y2="45.64"/><path class="cls-2" d="M27.36,16.66a8.39,8.39,0,1,0-14.45,5.79,2.67,2.67,0,0,1,.73,1.84V26a2.27,2.27,0,0,0,2.27,2.27H22A2.27,2.27,0,0,0,24.31,26V24.29a2.72,2.72,0,0,1,.75-1.86A8.36,8.36,0,0,0,27.36,16.66Z"/><line class="cls-1" x1="15.08" y1="30.84" x2="22.87" y2="30.84"/><line class="cls-1" x1="15.74" y1="33.18" x2="22.21" y2="33.18"/><path class="cls-3" d="M13.21,14.93A6,6,0,0,1,19,10.64"/></g></svg>