<svg id="Layer_1" data-name="Layer 1" xmlns="http://www.w3.org/2000/svg" viewBox="0 0 47.38 72.8"><defs><style>.cls-1{fill:none;stroke:#fff;stroke-miterlimit:10;stroke-width:1.85px;}</style></defs><title>icon-6</title><line class="cls-1" x1="13.07" y1="59.38" x2="34.24" y2="59.38"/><line class="cls-1" x1="14.86" y1="63.46" x2="32.45" y2="63.46"/><path class="cls-1" d="M17,67.29a7.18,7.18,0,0,0,13.39,0Z" transform="translate(-0.07 0)"/><path class="cls-1" d="M43.14,35.67a22.69,22.69,0,0,0,3.39-12h0V22.2a3.08,3.08,0,0,0-.06-.74,1,1,0,0,1,0-.43l-.09-.66a3.5,3.5,0,0,0-.07-.45c0-.15-.07-.43-.12-.64S46,19,46,18.87a3.76,3.76,0,0,0-.15-.64c-.06-.22-.06-.28-.1-.42s-.13-.44-.19-.66-.07-.25-.11-.37l-.3-.87v-.14c-.12-.33-.25-.66-.39-1,0-.11-.11-.23-.16-.35s-.18-.41-.28-.61l-.2-.39c-.09-.19-.19-.37-.28-.55l-.23-.4-.3-.52-.24-.4-.33-.49c-.08-.13-.17-.26-.26-.38a5.74,5.74,0,0,0-.36-.5c-.08-.12-.17-.24-.26-.35s-.3-.39-.45-.57L41.1,9c-.2-.24-.4-.47-.61-.7L40.18,8c-.14-.14-.27-.29-.42-.43l-.35-.33L39,6.81l-.38-.33-.42-.35-.39-.32-.43-.33c-.14-.1-.27-.21-.41-.3l-.45-.32-.42-.28-.5-.31L35,3.92l-.67-.37-.45-.23-.49-.24-.48-.22-.49-.21-.5-.19-.49-.19-.51-.18-.5-.16-.52-.15-.53-.14-.52-.13-.57-.12A22.64,22.64,0,0,0,7.67,7.59l-.07.07c-.2.2-.4.41-.59.62a.93.93,0,0,1-.14.14L6.35,9l-.17.21c-.16.18-.31.38-.46.57a3.14,3.14,0,0,0-.2.26c-.06.09-.28.37-.41.56l-.21.3-.37.56-.21.34L4,12.36l-.21.38-.29.53-.21.42c-.09.17-.17.35-.25.53s-.14.29-.2.44-.16.35-.23.53l-.18.47c-.07.17-.13.34-.2.52s-.11.33-.16.5S2,17,1.9,17.19l-.15.53c-.05.17-.09.34-.14.51l-.12.56a3,3,0,0,1-.11.5c0,.17-.08.39-.11.59s-.06.32-.08.48-.06.42-.08.64L1,21.45v2.23a23.73,23.73,0,0,0,.19,2.92A22.79,22.79,0,0,0,7.24,39.48a7.17,7.17,0,0,1,2,5v4.69a6.14,6.14,0,0,0,5.53,6.13H32.69A6.35,6.35,0,0,0,35,54.6h0a6.18,6.18,0,0,0,3.22-5.42V44.46a7.17,7.17,0,0,1,1.11-3.82,7.37,7.37,0,0,1,1-1.23A23.41,23.41,0,0,0,43.14,35.67Z" transform="translate(-0.07 0)"/><path class="cls-1" d="M21.08,44.57l.25-4.22A41.41,41.41,0,0,1,15.1,39V33.26A22.58,22.58,0,0,0,22.65,35c2.36,0,3.54-.73,3.54-2.18,0-.74-.74-1.41-2.21-2l-4.19-1.69a8.49,8.49,0,0,1-3.43-2.46,6.79,6.79,0,0,1-1.54-4.4A6.59,6.59,0,0,1,17.25,17a9.19,9.19,0,0,1,4.54-2.11l-.14-3.23h4.87l-.25,3.23a26.41,26.41,0,0,1,4.15.68v5.11a24.22,24.22,0,0,0-5.42-.8q-3.72,0-3.72,2.19c0,.78.64,1.42,1.93,1.89l3.33,1.22q6.1,2.25,6.11,7.41a7.24,7.24,0,0,1-2.32,5.54,9.27,9.27,0,0,1-4.51,2.22L26,44.57Z" transform="translate(-0.07 0)"/></svg>