<svg xmlns="http://www.w3.org/2000/svg" viewBox="0 0 413.37 432"><defs><style>.cls-1{fill:#f5f9ff;}.cls-2,.cls-3,.cls-6{fill:none;stroke:#a9c9e8;stroke-miterlimit:10;stroke-width:1.44px;}.cls-3,.cls-4,.cls-5,.cls-6{stroke-linecap:round;}.cls-4{fill:#90b1da;}.cls-4,.cls-5{stroke:#174799;stroke-linejoin:round;stroke-width:5.67px;}.cls-5{fill:#fff;}.cls-6{stroke-dasharray:7.67 7.67;}</style></defs><title>icon-ttht</title><g id="Layer_1" data-name="Layer 1"><circle class="cls-1" cx="206.69" cy="206.69" r="206.69"/><circle class="cls-2" cx="299.13" cy="73.3" r="4.08"/><circle class="cls-2" cx="137.13" cy="49.3" r="4.08"/><line class="cls-3" x1="358.93" y1="101.38" x2="358.93" y2="106.66"/><line class="cls-3" x1="358.93" y1="109.3" x2="358.93" y2="114.58"/><line class="cls-3" x1="365.53" y1="107.98" x2="360.25" y2="107.98"/><line class="cls-3" x1="357.61" y1="107.98" x2="352.33" y2="107.98"/><line class="cls-3" x1="324.41" y1="165.78" x2="324.41" y2="171.06"/><line class="cls-3" x1="324.41" y1="173.7" x2="324.41" y2="178.98"/><line class="cls-3" x1="331.01" y1="172.38" x2="325.73" y2="172.38"/><line class="cls-3" x1="323.09" y1="172.38" x2="317.81" y2="172.38"/><line class="cls-3" x1="323.85" y1="290.42" x2="323.85" y2="295.7"/><line class="cls-3" x1="323.85" y1="298.34" x2="323.85" y2="303.62"/><line class="cls-3" x1="330.45" y1="297.02" x2="325.17" y2="297.02"/><line class="cls-3" x1="322.53" y1="297.02" x2="317.25" y2="297.02"/><rect class="cls-4" x="31.83" y="107.1" width="240.55" height="294"/><polygon class="cls-5" points="303.12 429.17 62.57 429.17 62.57 135.17 248.71 135.17 303.12 180.02 303.12 429.17"/><polygon class="cls-4" points="249.66 135.17 249.66 180.99 303.12 180.99 249.66 135.17"/><line class="cls-4" x1="93.12" y1="184.8" x2="162.8" y2="184.8"/><line class="cls-4" x1="93.12" y1="244.37" x2="270.66" y2="244.37"/><line class="cls-4" x1="93.12" y1="282.55" x2="272.38" y2="282.55"/><line class="cls-4" x1="93.12" y1="320.73" x2="274.48" y2="320.73"/><line class="cls-4" x1="213.58" y1="375.71" x2="274.48" y2="375.71"/><line class="cls-3" x1="348.07" y1="229.6" x2="354.07" y2="229.6"/><line class="cls-6" x1="361.73" y1="229.6" x2="373.23" y2="229.6"/><line class="cls-3" x1="377.07" y1="229.6" x2="383.07" y2="229.6"/><line class="cls-3" x1="198.07" y1="34.6" x2="204.07" y2="34.6"/><line class="cls-6" x1="211.73" y1="34.6" x2="223.23" y2="34.6"/><line class="cls-3" x1="227.07" y1="34.6" x2="233.07" y2="34.6"/></g></svg>