<svg xmlns="http://www.w3.org/2000/svg" viewBox="0 0 425.14 413.37"><defs><style>.cls-1{fill:#f5f9ff;}.cls-2,.cls-3,.cls-4{fill:none;stroke:#a9c9e8;stroke-miterlimit:10;stroke-width:1.44px;}.cls-3,.cls-4,.cls-5,.cls-6{stroke-linecap:round;}.cls-4{stroke-dasharray:7.67 7.67;}.cls-5{fill:#fff;}.cls-5,.cls-6{stroke:#174799;stroke-linejoin:round;stroke-width:5.67px;}.cls-6{fill:#90b1da;}.cls-7{fill:#174799;}</style></defs><title>icon-ttht</title><g id="Layer_1" data-name="Layer 1"><circle class="cls-1" cx="218.45" cy="206.69" r="206.69"/><circle class="cls-2" cx="148.89" cy="49.3" r="4.08"/><circle class="cls-2" cx="279.89" cy="299.3" r="4.08"/><circle class="cls-2" cx="385.89" cy="154.3" r="4.08"/><line class="cls-3" x1="295.69" y1="60.38" x2="295.69" y2="65.66"/><line class="cls-3" x1="295.69" y1="68.3" x2="295.69" y2="73.58"/><line class="cls-3" x1="302.29" y1="66.98" x2="297.01" y2="66.98"/><line class="cls-3" x1="294.37" y1="66.98" x2="289.09" y2="66.98"/><line class="cls-3" x1="105.69" y1="126.38" x2="105.69" y2="131.66"/><line class="cls-3" x1="105.69" y1="134.3" x2="105.69" y2="139.58"/><line class="cls-3" x1="112.29" y1="132.98" x2="107.01" y2="132.98"/><line class="cls-3" x1="104.37" y1="132.98" x2="99.09" y2="132.98"/><line class="cls-3" x1="381.61" y1="269.42" x2="381.61" y2="274.7"/><line class="cls-3" x1="381.61" y1="277.34" x2="381.61" y2="282.62"/><line class="cls-3" x1="388.21" y1="276.02" x2="382.93" y2="276.02"/><line class="cls-3" x1="380.29" y1="276.02" x2="375.01" y2="276.02"/><line class="cls-3" x1="218.83" y1="362.6" x2="224.83" y2="362.6"/><line class="cls-4" x1="232.5" y1="362.6" x2="244" y2="362.6"/><line class="cls-3" x1="247.84" y1="362.6" x2="253.83" y2="362.6"/><line class="cls-3" x1="209.83" y1="34.6" x2="215.83" y2="34.6"/><line class="cls-4" x1="223.5" y1="34.6" x2="235" y2="34.6"/><line class="cls-3" x1="238.84" y1="34.6" x2="244.83" y2="34.6"/><path class="cls-5" d="M170.14,249.27H274.82l43.62,34.9v-34.9h17.45a17.44,17.44,0,0,0,17.44-17.44V118.42A17.44,17.44,0,0,0,335.89,101H170.14a17.45,17.45,0,0,0-17.45,17.45V231.83A17.44,17.44,0,0,0,170.14,249.27Z"/><path class="cls-6" d="M186,333.21H81.35l-43.62,34.9v-34.9H20.28A17.45,17.45,0,0,1,2.83,315.77V202.36a17.45,17.45,0,0,1,17.45-17.45H186a17.45,17.45,0,0,1,17.45,17.45V315.77A17.44,17.44,0,0,1,186,333.21Z"/><path class="cls-7" d="M125.06,295.64l-9.24-7.38a25.61,25.61,0,0,1-17.23,6.35,26.65,26.65,0,0,1-13.28-3.49,24.3,24.3,0,0,1-9.59-9.64,20.25,20.25,0,0,1-2.46-7.07,131.86,131.86,0,0,1-.72-16.93,131.78,131.78,0,0,1,.72-16.92q1.55-9.94,10.87-16a26,26,0,0,1,14.47-4.21,26.76,26.76,0,0,1,13.28,3.49,24.36,24.36,0,0,1,9.59,9.64,20.25,20.25,0,0,1,2.46,7.07,131.56,131.56,0,0,1,.72,16.92c0,6.63,0,10.49-.1,11.58q-.51,7.38-2.55,11.28l9.64,7.7Zm-18.23-14.7-9.36-7.35,6.58-7.61,8.49,6.79q1-3.5,1-15.29,0-8.82-.2-10.77-.72-6.87-4.21-10.87a13.38,13.38,0,0,0-10.56-4.41q-6.67,0-10.57,4.41c-2.32,2.67-3.73,6.29-4.2,10.87q-.21,1.95-.21,10.77t.21,10.77q.72,6.87,4.21,10.87,3.9,4.41,10.57,4.41A13.12,13.12,0,0,0,106.83,280.94Z"/><path class="cls-7" d="M272.14,212.31,266.42,196H238.7l-5.65,16.31h-11.7l26.56-73h9.23l26.57,73Zm-30.28-26.15h21.33l-10.56-31.9h-.21Z"/></g></svg>