<svg xmlns="http://www.w3.org/2000/svg" viewBox="0 0 435.27 435.47"><defs><style>.cls-1{fill:#f5f9ff;}.cls-2,.cls-3,.cls-4,.cls-7{fill:none;}.cls-2,.cls-3,.cls-4{stroke:#a9c9e8;stroke-miterlimit:10;stroke-width:1.44px;}.cls-3,.cls-4,.cls-5,.cls-6,.cls-7{stroke-linecap:round;}.cls-4{stroke-dasharray:7.67 7.67;}.cls-5{fill:#90b1da;}.cls-5,.cls-6,.cls-7{stroke:#174799;stroke-linejoin:round;stroke-width:5.67px;}.cls-6{fill:#fff;}</style></defs><title>icon-ttht</title><g id="Layer_1" data-name="Layer 1"><circle class="cls-1" cx="228.58" cy="206.69" r="206.69"/><circle class="cls-2" cx="386.88" cy="277.84" r="4.08"/><circle class="cls-2" cx="348.88" cy="62.84" r="4.08"/><circle class="cls-2" cx="163.88" cy="52.84" r="4.08"/><circle class="cls-2" cx="296.88" cy="202.84" r="4.08"/><line class="cls-3" x1="260.16" y1="42.32" x2="260.16" y2="47.6"/><line class="cls-3" x1="260.16" y1="50.24" x2="260.16" y2="55.52"/><line class="cls-3" x1="266.76" y1="48.92" x2="261.48" y2="48.92"/><line class="cls-3" x1="258.84" y1="48.92" x2="253.56" y2="48.92"/><line class="cls-3" x1="296.6" y1="340.96" x2="296.6" y2="346.24"/><line class="cls-3" x1="296.6" y1="348.88" x2="296.6" y2="354.16"/><line class="cls-3" x1="303.2" y1="347.56" x2="297.92" y2="347.56"/><line class="cls-3" x1="295.28" y1="347.56" x2="290" y2="347.56"/><line class="cls-3" x1="378.6" y1="124.96" x2="378.6" y2="130.24"/><line class="cls-3" x1="378.6" y1="132.88" x2="378.6" y2="138.16"/><line class="cls-3" x1="385.2" y1="131.56" x2="379.92" y2="131.56"/><line class="cls-3" x1="377.28" y1="131.56" x2="372" y2="131.56"/><line class="cls-3" x1="341.82" y1="235.14" x2="347.82" y2="235.14"/><line class="cls-4" x1="355.49" y1="235.14" x2="366.99" y2="235.14"/><line class="cls-3" x1="370.82" y1="235.14" x2="376.82" y2="235.14"/><line class="cls-3" x1="96.82" y1="113.14" x2="102.82" y2="113.14"/><line class="cls-4" x1="110.49" y1="113.14" x2="121.99" y2="113.14"/><line class="cls-3" x1="125.82" y1="113.14" x2="131.82" y2="113.14"/><rect class="cls-5" x="188.15" y="95.12" width="128.46" height="22.48" transform="translate(355.63 360.02) rotate(-135)"/><path class="cls-6" d="M244.24,114.11l.38.38,38.6,38.61-20.29,20.29a28.59,28.59,0,0,1-31.63,6l-1-.42a21.38,21.38,0,0,0-23.65,4.48l-12.41,12.41-15.52-15.51-.38-.38-15.51-15.52L175.28,152a21.37,21.37,0,0,0,4.48-23.65l-.42-1a28.61,28.61,0,0,1,6-31.63l20.29-20.29Z"/><path class="cls-5" d="M242.74,28.44H262a0,0,0,0,1,0,0V70.18a9.63,9.63,0,0,1-9.63,9.63h0a9.63,9.63,0,0,1-9.63-9.63V28.44a0,0,0,0,1,0,0Z" transform="translate(392.56 270.86) rotate(-135)"/><path class="cls-5" d="M295,80.66h19.27a0,0,0,0,1,0,0v41.75A9.63,9.63,0,0,1,304.6,132h0a9.63,9.63,0,0,1-9.63-9.63V80.66A0,0,0,0,1,295,80.66Z" transform="translate(444.79 396.95) rotate(-135)"/><path class="cls-7" d="M178.21,180h0a160.81,160.81,0,0,0-47.1,113.72v139"/><path class="cls-6" d="M24.73,258c29,29,84.13,20.85,84.13,20.85S117,223.68,88,194.69,3.89,173.85,3.89,173.85-4.25,229,24.73,258Z"/><path class="cls-7" d="M79.45,249.41,107,276.92a76.38,76.38,0,0,1,18.67,30.52l5.79,17.89"/><path class="cls-6" d="M238.51,332.27c-32.4,15.22-75.28-7.82-75.28-7.82s9.66-47.7,42.07-62.91,75.27,7.82,75.27,7.82S270.91,317.06,238.51,332.27Z"/><path class="cls-7" d="M196.1,309l-30.75,14.44A66.69,66.69,0,0,0,141,343l-10.06,13"/></g></svg>