<svg xmlns="http://www.w3.org/2000/svg" viewBox="0 0 113.43 75.49"><defs><style>.cls-1{fill:none;}.cls-1,.cls-2,.cls-3{stroke:#174799;stroke-linecap:round;stroke-linejoin:round;stroke-width:2.27px;}.cls-2{fill:#fff;}.cls-3{fill:#90b1da;}</style></defs><title>icon-lien-he</title><g id="Layer_1" data-name="Layer 1"><path class="cls-1" d="M112.3,59.4c-3.89,0-3.89-6.66-7.77-6.66s-3.89,6.66-7.78,6.66S92.87,52.74,89,52.74s-3.89,6.66-7.77,6.66-3.89-6.66-7.78-6.66-3.89,6.66-7.78,6.66"/><path class="cls-2" d="M24.05,16.94,8.24,1.13A40.46,40.46,0,0,0,4.42,8.22L18.6,22.39Z"/><path class="cls-2" d="M74.36,67.25,58.55,51.44,53.1,56.89,67.27,71.07A40.46,40.46,0,0,0,74.36,67.25Z"/><path class="cls-3" d="M36.76,56.89,18.6,38.73a11.56,11.56,0,0,1,0-16.34h0L4.42,8.22c-6.88,16.46-2.92,37,11.45,51.4s34.94,18.32,51.4,11.45L53.1,56.89h0A11.56,11.56,0,0,1,36.76,56.89Z"/></g></svg>