<svg xmlns="http://www.w3.org/2000/svg" viewBox="0 0 98.84 86.73"><defs><style>.cls-1{fill:none;stroke:#fff;stroke-linecap:round;stroke-linejoin:round;stroke-width:1.73px;}</style></defs><title>Asset 5</title><g id="Layer_2" data-name="Layer 2"><g id="Layer_1-2" data-name="Layer 1"><path class="cls-1" d="M66.34.86H4.81A3.85,3.85,0,0,0,1,4.71l-.1,45V82a3.85,3.85,0,0,0,3.85,3.84H66.25A3.84,3.84,0,0,0,70.09,82l.1-38.84V4.71A3.85,3.85,0,0,0,66.34.86Z"/><line class="cls-1" x1="11.54" y1="48.36" x2="29.71" y2="48.36"/><line class="cls-1" x1="11.54" y1="41.44" x2="29.71" y2="41.44"/><line class="cls-1" x1="31.54" y1="13.56" x2="60.09" y2="13.56"/><line class="cls-1" x1="31.54" y1="21.25" x2="60.09" y2="21.25"/><line class="cls-1" x1="31.54" y1="28.94" x2="60.09" y2="28.94"/><line class="cls-1" x1="11.54" y1="56.06" x2="29.71" y2="56.06"/><line class="cls-1" x1="11.54" y1="63.75" x2="29.71" y2="63.75"/><line class="cls-1" x1="11.54" y1="71.44" x2="29.71" y2="71.44"/><path class="cls-1" d="M94.28,37.9H40.57a3.71,3.71,0,0,0-3.71,3.7V73.74a3.7,3.7,0,0,0,3.71,3.7H94.28a3.7,3.7,0,0,0,3.7-3.7V41.6A3.7,3.7,0,0,0,94.28,37.9Z"/><rect class="cls-1" x="42.68" y="53.15" width="13.37" height="9.38" rx="1.78" ry="1.78"/><line class="cls-1" x1="42.68" y1="70.4" x2="51.52" y2="70.4"/><line class="cls-1" x1="56.16" y1="70.4" x2="65" y2="70.4"/><line class="cls-1" x1="69.63" y1="70.4" x2="78.47" y2="70.4"/><line class="cls-1" x1="83.1" y1="70.4" x2="91.94" y2="70.4"/><line class="cls-1" x1="91.94" y1="44.96" x2="60.58" y2="44.96"/><polygon class="cls-1" points="18.88 19.48 24.72 10.86 16.75 10.86 11.54 23.12 20.97 23.14 15.91 35.09 26.48 19.48 18.88 19.48"/></g></g></svg>