<svg xmlns="http://www.w3.org/2000/svg" viewBox="0 0 85.64 91.73"><defs><style>.cls-1{fill:none;stroke:#fff;stroke-linecap:round;stroke-linejoin:round;stroke-width:1.73px;}</style></defs><title>Asset 10</title><g id="Layer_2" data-name="Layer 2"><g id="Layer_1-2" data-name="Layer 1"><rect class="cls-1" x="20.7" y="42.5" width="8.16" height="22.41"/><rect class="cls-1" x="32.72" y="32.79" width="8.16" height="32.13"/><rect class="cls-1" x="44.74" y="38.77" width="8.16" height="26.15"/><rect class="cls-1" x="56.77" y="26.81" width="8.16" height="38.1"/><path class="cls-1" d="M67.67,12.05A42,42,0,0,0,9,70.71"/><polyline class="cls-1" points="66.2 0.86 68.39 12.54 56.72 14.72"/><path class="cls-1" d="M14.56,66.38A34.93,34.93,0,0,1,51.22,12"/><path class="cls-1" d="M18,79.68A42,42,0,0,0,76.63,21"/><polyline class="cls-1" points="19.45 90.86 17.26 79.19 28.93 77.01"/><path class="cls-1" d="M71.09,25.35A34.93,34.93,0,0,1,34.43,79.77"/></g></g></svg>