<svg xmlns="http://www.w3.org/2000/svg" viewBox="0 0 59.57 91.73"><defs><style>.cls-1{fill:none;stroke:#fff;stroke-linecap:round;stroke-linejoin:round;stroke-width:1.73px;}</style></defs><title>Asset 9</title><g id="Layer_2" data-name="Layer 2"><g id="Layer_1-2" data-name="Layer 1"><line class="cls-1" x1="16.36" y1="75.01" x2="43.2" y2="75.01"/><line class="cls-1" x1="18.63" y1="80.18" x2="40.93" y2="80.18"/><path class="cls-1" d="M21.29,85a9.1,9.1,0,0,0,17,0Z"/><path class="cls-1" d="M54.41,44.94A28.78,28.78,0,0,0,58.7,29.78v0c0-.46,0-.93,0-1.39,0-.16,0-.31,0-.47,0-.31,0-.63-.07-.94l-.06-.55c0-.28-.07-.56-.11-.84L58.3,25q-.06-.42-.15-.81c0-.19-.07-.38-.11-.57s-.12-.53-.19-.8-.09-.36-.13-.53-.16-.57-.25-.85-.09-.31-.14-.47c-.11-.37-.24-.73-.37-1.1a1.34,1.34,0,0,1-.07-.18c-.15-.42-.32-.83-.49-1.24-.07-.14-.14-.29-.2-.44l-.36-.78c-.08-.17-.17-.33-.25-.5L55.23,16c-.09-.17-.19-.34-.29-.51s-.25-.44-.38-.65-.2-.34-.31-.51-.27-.42-.41-.63l-.33-.48q-.23-.33-.45-.63l-.33-.45-.58-.72-.32-.39-.78-.89-.39-.4-.53-.55-.45-.42c-.17-.16-.34-.33-.52-.48a6.14,6.14,0,0,0-.47-.42l-.53-.45-.5-.4c-.18-.15-.36-.28-.55-.42l-.51-.38L46,5.86c-.17-.12-.34-.24-.52-.35l-.64-.4-.75-.45c-.28-.16-.56-.32-.85-.47l-.57-.29-.63-.3-.61-.28-.61-.26-.64-.25-.62-.24-.65-.22-.64-.21L37.63,2,37,1.77l-.66-.16c-.23-.06-.48-.1-.72-.15A28.69,28.69,0,0,0,9.42,9.32l-.09.08c-.25.26-.51.53-.75.8a1.45,1.45,0,0,0-.17.18c-.23.24-.45.5-.66.75l-.22.26-.59.73-.25.33c-.18.23-.35.47-.52.71l-.27.39c-.15.23-.31.46-.46.7l-.27.43c-.14.23-.28.46-.41.69s-.19.32-.28.48l-.36.68-.27.52c-.11.22-.22.45-.32.67s-.17.38-.25.57-.2.44-.29.66-.16.4-.23.6-.17.44-.25.66l-.21.64-.21.65c-.07.22-.13.45-.19.67s-.12.43-.17.65-.12.47-.17.7-.09.42-.14.64-.09.49-.13.74-.08.41-.11.62-.07.53-.1.8S1,26.71,1,26.9s-.05.61-.07.91,0,.33,0,.5c0,.44,0,.89,0,1.34,0,0,0,.05,0,.08a30.12,30.12,0,0,0,.24,3.7A28.73,28.73,0,0,0,8.88,49.76a9.15,9.15,0,0,1,2.52,6.32V62a7.82,7.82,0,0,0,4.77,7.2,7.93,7.93,0,0,0,2.24.57,7,7,0,0,0,.8,0H40.36a6.85,6.85,0,0,0,.79,0,7.73,7.73,0,0,0,2.9-.89h0A7.81,7.81,0,0,0,48.16,62V56.08a9.14,9.14,0,0,1,1.41-4.84,10.7,10.7,0,0,1,1.2-1.57A28.89,28.89,0,0,0,54.41,44.94Z"/><path class="cls-1" d="M26.42,56.22l.32-5.35a53.91,53.91,0,0,1-7.89-1.68V41.88a28.4,28.4,0,0,0,9.57,2.18q4.5,0,4.5-2.77c0-.94-.94-1.78-2.82-2.54l-5.31-2.13a10.77,10.77,0,0,1-4.35-3.13,8.58,8.58,0,0,1-2-5.58,8.4,8.4,0,0,1,3.09-6.68,11.64,11.64,0,0,1,5.76-2.67l-.18-4.09h6.17L33,18.56a35,35,0,0,1,5.27.86v6.49a30.55,30.55,0,0,0-6.9-1c-3.14,0-4.72.92-4.72,2.77,0,1,.82,1.8,2.45,2.4l4.22,1.55q7.77,2.85,7.76,9.39a9.2,9.2,0,0,1-2.95,7,11.58,11.58,0,0,1-5.72,2.82l.19,5.35Z"/></g></g></svg>