<svg xmlns="http://www.w3.org/2000/svg" viewBox="0 0 46.75 34.34"><defs><style>.cls-1{fill:#fff;stroke-width:1.7px;}.cls-1,.cls-2{stroke:#174799;stroke-linecap:round;stroke-linejoin:round;}.cls-2{fill:#90b1da;stroke-width:1.8px;}</style></defs><title>icon</title><g id="Layer_1" data-name="Layer 1"><path class="cls-1" d="M40.42.85H3.18A2.33,2.33,0,0,0,.85,3.18V28"/><path class="cls-1" d="M27.23,24.13,39.64,13.27l6.21,6.2V6.28A2.33,2.33,0,0,0,43.52,4H6.28A2.34,2.34,0,0,0,4,6.28V27l14-9Z"/><path class="cls-2" d="M39.64,13.27,27.23,24.13l-9.31-6.21L4,27v4.14a2.33,2.33,0,0,0,2.33,2.33H43.52a2.33,2.33,0,0,0,2.33-2.33V19.47Z"/><circle class="cls-2" cx="13.27" cy="11.71" r="3.1"/></g></svg>