<svg id="Layer_1" data-name="Layer 1" xmlns="http://www.w3.org/2000/svg" viewBox="0 0 77.34 87.27"><defs><style>.cls-1{fill:#fff;}.cls-1,.cls-2,.cls-3{stroke:#17479d;stroke-linecap:round;stroke-linejoin:round;stroke-width:2.27px;}.cls-2{fill:#94b5de;}.cls-3{fill:none;}</style></defs><title>icon-tra-cuu</title><path class="cls-1" d="M66.61,1.13H5.08A3.85,3.85,0,0,0,1.23,5l-.1,45V82.29A3.85,3.85,0,0,0,5,86.13H66.52a3.84,3.84,0,0,0,3.84-3.84l.1-38.84V5A3.85,3.85,0,0,0,66.61,1.13Z"/><line class="cls-1" x1="11.71" y1="45.56" x2="55.87" y2="45.56"/><line class="cls-1" x1="11.71" y1="52.61" x2="55.87" y2="52.61"/><line class="cls-1" x1="11.71" y1="59.66" x2="55.87" y2="59.66"/><line class="cls-1" x1="11.71" y1="66.71" x2="30.31" y2="66.71"/><rect class="cls-2" x="11.97" y="27.93" width="10.58" height="10.58"/><rect class="cls-2" x="28.5" y="27.93" width="10.58" height="10.58"/><rect class="cls-2" x="45.29" y="27.93" width="10.58" height="10.58"/><rect class="cls-2" x="11.97" y="11.71" width="10.58" height="10.58"/><rect class="cls-2" x="28.5" y="11.71" width="10.58" height="10.58"/><rect class="cls-2" x="45.29" y="11.71" width="10.58" height="10.58"/><path class="cls-2" d="M64.55,32V77.39l5.83,8.74,5.82-8.74V32a2.69,2.69,0,0,0-2.69-2.7H67.24A2.69,2.69,0,0,0,64.55,32Z"/><line class="cls-3" x1="75.76" y1="36.27" x2="69.61" y2="36.27"/></svg>