<svg id="Layer_1" data-name="Layer 1" xmlns="http://www.w3.org/2000/svg" viewBox="0 0 86.18 92.27"><defs><style>.cls-1{fill:#94b5de;}.cls-1,.cls-2{stroke:#17479d;stroke-linecap:round;stroke-linejoin:round;stroke-width:2.27px;}.cls-2{fill:none;}</style></defs><title>icon-tra-cuu</title><rect class="cls-1" x="20.97" y="42.77" width="8.16" height="22.41"/><rect class="cls-1" x="32.99" y="33.06" width="8.16" height="32.13"/><rect class="cls-1" x="45.01" y="39.04" width="8.16" height="26.15"/><rect class="cls-1" x="57.04" y="27.08" width="8.16" height="38.1"/><path class="cls-2" d="M67.94,12.32A42,42,0,0,0,9.28,71"/><polyline class="cls-2" points="66.47 1.13 68.66 12.8 56.99 14.99"/><path class="cls-2" d="M14.83,66.65A34.93,34.93,0,0,1,51.49,12.23"/><path class="cls-2" d="M18.24,80A42,42,0,0,0,76.9,21.29"/><polyline class="cls-2" points="19.71 91.13 17.53 79.46 29.2 77.28"/><path class="cls-2" d="M71.36,25.62A34.93,34.93,0,0,1,34.7,80"/></svg>