<svg xmlns="http://www.w3.org/2000/svg" viewBox="0 0 92.72 86.73"><defs><style>.cls-1{fill:none;stroke:#fff;stroke-linecap:round;stroke-linejoin:round;stroke-width:1.73px;}</style></defs><title>Asset 2</title><g id="Layer_2" data-name="Layer 2"><g id="Layer_1-2" data-name="Layer 1"><circle class="cls-1" cx="70.6" cy="64.61" r="21.25"/><path class="cls-1" d="M49.35,64.61A21.24,21.24,0,0,1,70.41,43.37V4.73A3.86,3.86,0,0,0,66.55.86H4.73A3.87,3.87,0,0,0,.86,4.73V82a3.86,3.86,0,0,0,3.87,3.86H70.41A21.25,21.25,0,0,1,49.35,64.61Z"/><line class="cls-1" x1="11.49" y1="48.58" x2="38.53" y2="48.58"/><line class="cls-1" x1="11.49" y1="13.61" x2="60.27" y2="13.61"/><line class="cls-1" x1="11.49" y1="21.34" x2="60.27" y2="21.34"/><line class="cls-1" x1="11.49" y1="29.07" x2="60.27" y2="29.07"/><line class="cls-1" x1="11.49" y1="56.31" x2="38.53" y2="56.31"/><line class="cls-1" x1="11.49" y1="64.03" x2="38.53" y2="64.03"/><line class="cls-1" x1="11.49" y1="71.76" x2="38.53" y2="71.76"/><path class="cls-1" d="M68.68,76.59l.18-3.07a30.62,30.62,0,0,1-4.53-1v-4.2a16.23,16.23,0,0,0,5.49,1.25c1.72,0,2.58-.53,2.58-1.58,0-.54-.54-1-1.62-1.46l-3-1.23a6.07,6.07,0,0,1-2.5-1.79,4.93,4.93,0,0,1-1.12-3.21,4.8,4.8,0,0,1,1.77-3.82A6.73,6.73,0,0,1,69.2,55l-.11-2.34h3.54L72.45,55a19.33,19.33,0,0,1,3,.5V59.2a17.75,17.75,0,0,0-4-.57c-1.8,0-2.7.53-2.7,1.58,0,.58.47,1,1.4,1.38l2.42.89q4.45,1.64,4.46,5.39a5.27,5.27,0,0,1-1.7,4,6.57,6.57,0,0,1-3.28,1.62l.11,3.07Z"/></g></g></svg>