<svg id="Layer_1" data-name="Layer 1" xmlns="http://www.w3.org/2000/svg" viewBox="0 0 92.27 92.27"><defs><style>.cls-1{fill:none;stroke:#17479e;stroke-linecap:round;stroke-linejoin:round;stroke-width:2.27px;}</style></defs><title>icon-tra-cuu</title><path class="cls-1" d="M40.31,14.88H60.86L45.8,37.11h4.05l3.56-3.56,3.4-3.39L69.27,17.7A36.66,36.66,0,0,0,17.7,69.27L39.43,47.53l1-1-13.58,0Z"/><path class="cls-1" d="M74.57,23,60.46,37.11H65.4L38.15,77.38l13-30.83H51L47,50.6l-6.15,6.15-7.14,7.14L23,74.57A36.66,36.66,0,0,0,74.57,23Z"/><polygon class="cls-1" points="49.85 37.11 45.8 37.11 60.86 14.88 40.31 14.88 26.86 46.49 40.44 46.52 46.87 40.1 49.85 37.11"/><polygon class="cls-1" points="38.15 77.38 65.4 37.11 60.46 37.11 54.34 43.23 51.02 46.55 51.19 46.55 38.15 77.38"/><path class="cls-1" d="M46.13,1.13a45,45,0,1,0,45,45A45,45,0,0,0,46.13,1.13Zm-36.66,45A36.66,36.66,0,0,1,69.27,17.7L56.81,30.16l-3.4,3.39-3.56,3.56-3,3-6.43,6.42-1,1-7,7L17.7,69.27A36.51,36.51,0,0,1,9.47,46.13ZM46.13,82.79A36.49,36.49,0,0,1,23,74.57L33.68,63.89l7.14-7.14L47,50.6,51,46.55l3.32-3.32,6.12-6.12L74.57,23A36.66,36.66,0,0,1,46.13,82.79Z"/></svg>