<svg xmlns="http://www.w3.org/2000/svg" viewBox="0 0 91.73 91.73"><defs><style>.cls-1{fill:none;stroke:#fff;stroke-linecap:round;stroke-linejoin:round;stroke-width:1.73px;}</style></defs><title>Asset 4</title><g id="Layer_2" data-name="Layer 2"><g id="Layer_1-2" data-name="Layer 1"><path class="cls-1" d="M44.15,56.82q5.66,0,5.65-3.48c0-1.1-1-2.1-3.1-3l-6.15,6.15A21.86,21.86,0,0,0,44.15,56.82Z"/><path class="cls-1" d="M32.11,54.08l.17.06,6.88-6.88a13.38,13.38,0,0,1-5-3.74,10.77,10.77,0,0,1-2.46-7,10.54,10.54,0,0,1,3.89-8.39,14.72,14.72,0,0,1,7.24-3.37l-.23-5.14h7.77l-.4,5.14a45.56,45.56,0,0,1,6.62,1.08v4.06L69,17.43A36.66,36.66,0,0,0,17.43,69L32.11,54.31Z"/><path class="cls-1" d="M41.93,36.22c0,1.26,1,2.26,3.08,3l1.59.59,6.54-6.55a30.63,30.63,0,0,0-5.28-.54C43.9,32.74,41.93,33.9,41.93,36.22Z"/><path class="cls-1" d="M74.3,22.73,54.07,43q6,3.6,6,10a11.58,11.58,0,0,1-3.71,8.84,14.49,14.49,0,0,1-7.19,3.54l.23,6.73H41.64l.4-6.73a65.15,65.15,0,0,1-8.63-1.76L22.73,74.3A36.66,36.66,0,0,0,74.3,22.73Z"/><path class="cls-1" d="M45,39.24c-2.06-.76-3.08-1.76-3.08-3,0-2.32,2-3.48,5.93-3.48a30.63,30.63,0,0,1,5.28.54l3.4-3.39V25.83a45.56,45.56,0,0,0-6.62-1.08l.4-5.14H42.55l.23,5.14a14.72,14.72,0,0,0-7.24,3.37,10.54,10.54,0,0,0-3.89,8.39,10.77,10.77,0,0,0,2.46,7,13.38,13.38,0,0,0,5,3.74l7.44-7.43Z"/><path class="cls-1" d="M49.8,53.34q0,3.48-5.65,3.48a21.86,21.86,0,0,1-3.6-.34l-7.14,7.14A65.15,65.15,0,0,0,42,65.38l-.4,6.73H49.4l-.23-6.73a14.49,14.49,0,0,0,7.19-3.54A11.58,11.58,0,0,0,60.07,53q0-6.45-6-10L46.7,50.33C48.76,51.24,49.8,52.24,49.8,53.34Z"/><path class="cls-1" d="M32.11,54.08v.23l.17-.17Z"/><path class="cls-1" d="M45.86.86a45,45,0,1,0,45,45A45,45,0,0,0,45.86.86ZM9.2,45.86A36.66,36.66,0,0,1,69,17.43L56.54,29.89l-3.4,3.39L46.6,39.83l-7.44,7.43-6.88,6.88-.17.17L17.43,69A36.51,36.51,0,0,1,9.2,45.86ZM45.86,82.52A36.49,36.49,0,0,1,22.73,74.3L33.41,63.62l7.14-7.14,6.15-6.15L54.07,43,74.3,22.73A36.66,36.66,0,0,1,45.86,82.52Z"/></g></g></svg>