<svg id="Layer_1" data-name="Layer 1" xmlns="http://www.w3.org/2000/svg" viewBox="0 0 99.38 87.27"><defs><style>.cls-1{fill:#fff;}.cls-1,.cls-2,.cls-3{stroke:#17479d;stroke-linecap:round;stroke-linejoin:round;stroke-width:2.27px;}.cls-2{fill:none;}.cls-3{fill:#94b5de;}.cls-4{fill:#17479d;}</style></defs><title>icon-tra-cuu</title><path class="cls-1" d="M66.61,1.13H5.08A3.85,3.85,0,0,0,1.23,5l-.1,45V82.29A3.85,3.85,0,0,0,5,86.13H66.52a3.84,3.84,0,0,0,3.84-3.84l.1-38.84V5A3.85,3.85,0,0,0,66.61,1.13Z"/><line class="cls-2" x1="11.81" y1="48.63" x2="29.98" y2="48.63"/><line class="cls-2" x1="11.81" y1="41.71" x2="29.98" y2="41.71"/><line class="cls-2" x1="31.81" y1="13.83" x2="60.36" y2="13.83"/><line class="cls-2" x1="31.81" y1="21.52" x2="60.36" y2="21.52"/><line class="cls-2" x1="31.81" y1="29.21" x2="60.36" y2="29.21"/><line class="cls-2" x1="11.81" y1="56.33" x2="29.98" y2="56.33"/><line class="cls-2" x1="11.81" y1="64.02" x2="29.98" y2="64.02"/><line class="cls-2" x1="11.81" y1="71.71" x2="29.98" y2="71.71"/><path class="cls-3" d="M94.55,38.17H40.84a3.71,3.71,0,0,0-3.71,3.7V74a3.7,3.7,0,0,0,3.71,3.7H94.55a3.7,3.7,0,0,0,3.7-3.7V41.87A3.7,3.7,0,0,0,94.55,38.17Z"/><rect class="cls-3" x="42.95" y="53.42" width="13.37" height="9.38" rx="1.78"/><line class="cls-3" x1="42.95" y1="70.67" x2="51.79" y2="70.67"/><line class="cls-3" x1="56.43" y1="70.67" x2="65.27" y2="70.67"/><line class="cls-3" x1="69.9" y1="70.67" x2="78.74" y2="70.67"/><line class="cls-3" x1="83.37" y1="70.67" x2="92.21" y2="70.67"/><line class="cls-3" x1="92.21" y1="45.23" x2="60.85" y2="45.23"/><polygon class="cls-4" points="19.15 19.75 24.99 11.13 17.02 11.13 11.81 23.39 21.24 23.41 16.18 35.37 26.75 19.75 19.15 19.75"/></svg>