<svg id="Layer_1" data-name="Layer 1" xmlns="http://www.w3.org/2000/svg" viewBox="0 0 111.2 82.27"><defs><style>.cls-1{fill:#94b5de;}.cls-1,.cls-2{stroke:#17479d;stroke-linecap:round;stroke-linejoin:round;stroke-width:2.27px;}.cls-2{fill:#fff;}.cls-3{fill:#17479d;}</style></defs><title>icon-tra-cuu</title><rect class="cls-1" x="14.38" y="27.04" width="82.44" height="50.05" rx="1.47"/><path class="cls-1" d="M1.13,77.09H110.07a0,0,0,0,1,0,0v0a4,4,0,0,1-4,4H5.18a4,4,0,0,1-4-4v0A0,0,0,0,1,1.13,77.09Z"/><path class="cls-2" d="M35.78,66.09V8.74a7.61,7.61,0,0,0-7.61-7.61H68.45a7.61,7.61,0,0,1,7.61,7.61V66.09Z"/><path class="cls-1" d="M28.17,1.13h0a7.61,7.61,0,0,1,7.61,7.61v8.89a0,0,0,0,1,0,0H20.57a0,0,0,0,1,0,0V8.74a7.61,7.61,0,0,1,7.61-7.61Z"/><line class="cls-1" x1="42.22" y1="49.06" x2="69.83" y2="49.06"/><line class="cls-1" x1="42.22" y1="55.55" x2="69.83" y2="55.55"/><line class="cls-1" x1="42.22" y1="42.56" x2="69.83" y2="42.56"/><line class="cls-1" x1="42.22" y1="36.07" x2="69.83" y2="36.07"/><line class="cls-1" x1="42.22" y1="29.57" x2="69.83" y2="29.57"/><circle class="cls-1" cx="56.03" cy="15" r="7"/><path class="cls-3" d="M55.34,19.26l.07-1.09a11,11,0,0,1-1.61-.34V16.34a6,6,0,0,0,2,.44c.61,0,.91-.19.91-.56,0-.19-.19-.37-.57-.52L55,15.26a2.09,2.09,0,0,1-.89-.64,1.79,1.79,0,0,1,.23-2.49,2.35,2.35,0,0,1,1.18-.55l0-.83h1.26l-.07.83a7.29,7.29,0,0,1,1.08.18v1.32a6.06,6.06,0,0,0-1.41-.2c-.64,0-1,.18-1,.56,0,.2.16.37.5.49l.86.32a2,2,0,0,1,1.58,1.91,1.86,1.86,0,0,1-.6,1.43,2.4,2.4,0,0,1-1.17.58l0,1.09Z"/></svg>