<svg xmlns="http://www.w3.org/2000/svg" viewBox="0 0 110.66 81.73"><defs><style>.cls-1{fill:none;stroke:#fff;stroke-linecap:round;stroke-linejoin:round;stroke-width:1.73px;}</style></defs><title>Asset 3</title><g id="Layer_2" data-name="Layer 2"><g id="Layer_1-2" data-name="Layer 1"><rect class="cls-1" x="14.11" y="26.77" width="82.44" height="50.05" rx="1.47" ry="1.47"/><path class="cls-1" d="M.86,76.82H109.8a0,0,0,0,1,0,0v0a4,4,0,0,1-4,4H4.91a4,4,0,0,1-4-4v0a0,0,0,0,1,0,0Z"/><path class="cls-1" d="M35.51,65.82V8.47A7.61,7.61,0,0,0,27.9.86H68.18a7.61,7.61,0,0,1,7.61,7.61V65.82Z"/><path class="cls-1" d="M27.9.86h0a7.61,7.61,0,0,1,7.61,7.61v8.89a0,0,0,0,1,0,0H20.3a0,0,0,0,1,0,0V8.47A7.61,7.61,0,0,1,27.9.86Z"/><line class="cls-1" x1="41.95" y1="48.79" x2="69.56" y2="48.79"/><line class="cls-1" x1="41.95" y1="55.28" x2="69.56" y2="55.28"/><line class="cls-1" x1="41.95" y1="42.29" x2="69.56" y2="42.29"/><line class="cls-1" x1="41.95" y1="35.8" x2="69.56" y2="35.8"/><line class="cls-1" x1="41.95" y1="29.3" x2="69.56" y2="29.3"/><circle class="cls-1" cx="55.76" cy="14.73" r="7"/><path class="cls-1" d="M55.07,19l.07-1.09a11,11,0,0,1-1.61-.34V16.07a6,6,0,0,0,1.95.44c.61,0,.91-.19.91-.56,0-.19-.19-.37-.57-.52L54.74,15a2.15,2.15,0,0,1-.89-.63,1.74,1.74,0,0,1-.4-1.14,1.7,1.7,0,0,1,.63-1.36,2.35,2.35,0,0,1,1.18-.55l0-.83h1.26l-.07.83a7.29,7.29,0,0,1,1.08.18v1.32a6.06,6.06,0,0,0-1.41-.2c-.64,0-1,.18-1,.56,0,.2.16.37.5.49l.86.32a2,2,0,0,1,1.58,1.91,1.86,1.86,0,0,1-.6,1.43,2.4,2.4,0,0,1-1.17.58l0,1.09Z"/></g></g></svg>