<svg id="Layer_1" data-name="Layer 1" xmlns="http://www.w3.org/2000/svg" viewBox="0 0 93.26 87.27"><defs><style>.cls-1,.cls-4{fill:#94b5de;}.cls-2{fill:#fff;}.cls-2,.cls-3,.cls-4{stroke:#17479d;stroke-linecap:round;stroke-linejoin:round;stroke-width:2.27px;}.cls-3{fill:none;}</style></defs><title>icon-tra-cuu</title><circle class="cls-1" cx="70.87" cy="64.88" r="21.25"/><path class="cls-2" d="M49.62,64.88A21.24,21.24,0,0,1,70.68,43.64V5a3.86,3.86,0,0,0-3.86-3.87H5A3.87,3.87,0,0,0,1.13,5V82.27A3.86,3.86,0,0,0,5,86.13H70.68A21.25,21.25,0,0,1,49.62,64.88Z"/><line class="cls-3" x1="11.76" y1="25.67" x2="11.76" y2="34.17"/><line class="cls-3" x1="17.17" y1="22.58" x2="17.17" y2="34.17"/><line class="cls-3" x1="22.58" y1="21.03" x2="22.58" y2="34.17"/><line class="cls-3" x1="27.99" y1="25.67" x2="27.99" y2="34.17"/><line class="cls-3" x1="33.4" y1="22.58" x2="33.4" y2="34.17"/><line class="cls-3" x1="38.8" y1="18.71" x2="38.8" y2="34.17"/><polyline class="cls-3" points="11.76 21.03 22.58 12.53 27.99 21.03 38.8 12.53"/><rect class="cls-4" x="49.62" y="27.99" width="6.18" height="6.18"/><rect class="cls-4" x="49.62" y="17.17" width="6.18" height="6.18"/><line class="cls-3" x1="11.76" y1="48.85" x2="38.8" y2="48.85"/><line class="cls-3" x1="11.76" y1="56.58" x2="38.8" y2="56.58"/><line class="cls-3" x1="11.76" y1="64.3" x2="38.8" y2="64.3"/><line class="cls-3" x1="11.76" y1="72.03" x2="38.8" y2="72.03"/><path class="cls-3" d="M92.12,64.88A21.25,21.25,0,1,1,82.81,47.3"/><polyline class="cls-3" points="90.8 52.93 70.8 72.93 61.09 63.22"/></svg>