<svg id="Layer_1" data-name="Layer 1" xmlns="http://www.w3.org/2000/svg" viewBox="0 0 93.26 87.27"><defs><style>.cls-1{fill:#94b5de;}.cls-1,.cls-2,.cls-3{stroke:#17479d;stroke-linecap:round;stroke-linejoin:round;stroke-width:2.27px;}.cls-2{fill:#fff;}.cls-3{fill:none;}.cls-4{fill:#17479d;}</style></defs><title>icon-tra-cuu</title><circle class="cls-1" cx="70.87" cy="64.88" r="21.25"/><path class="cls-2" d="M49.62,64.88A21.24,21.24,0,0,1,70.68,43.64V5a3.86,3.86,0,0,0-3.86-3.87H5A3.87,3.87,0,0,0,1.13,5V82.27A3.86,3.86,0,0,0,5,86.13H70.68A21.25,21.25,0,0,1,49.62,64.88Z"/><line class="cls-3" x1="11.76" y1="48.85" x2="38.8" y2="48.85"/><line class="cls-3" x1="11.76" y1="13.88" x2="60.54" y2="13.88"/><line class="cls-3" x1="11.76" y1="21.61" x2="60.54" y2="21.61"/><line class="cls-3" x1="11.76" y1="29.34" x2="60.54" y2="29.34"/><line class="cls-3" x1="11.76" y1="56.58" x2="38.8" y2="56.58"/><line class="cls-3" x1="11.76" y1="64.3" x2="38.8" y2="64.3"/><line class="cls-3" x1="11.76" y1="72.03" x2="38.8" y2="72.03"/><path class="cls-4" d="M69,76.86l.18-3.07a30.62,30.62,0,0,1-4.53-1v-4.2a16.23,16.23,0,0,0,5.49,1.25c1.72,0,2.58-.53,2.58-1.58,0-.54-.54-1-1.62-1.46l-3-1.23a6.07,6.07,0,0,1-2.5-1.79,4.93,4.93,0,0,1-1.12-3.21,4.8,4.8,0,0,1,1.77-3.82,6.73,6.73,0,0,1,3.31-1.54l-.11-2.34H72.9l-.18,2.34a20.39,20.39,0,0,1,3,.49v3.73a17.75,17.75,0,0,0-4-.57c-1.8,0-2.7.53-2.7,1.58,0,.58.46,1,1.4,1.38l2.42.89q4.45,1.64,4.46,5.39a5.27,5.27,0,0,1-1.7,4,6.57,6.57,0,0,1-3.28,1.62l.11,3.07Z"/></svg>