<svg id="Layer_1" data-name="Layer 1" xmlns="http://www.w3.org/2000/svg" viewBox="0 0 60.11 92.27"><defs><style>.cls-1{fill:#fff;}.cls-1,.cls-2{stroke:#17479d;stroke-linecap:round;stroke-linejoin:round;stroke-width:2.27px;}.cls-2{fill:#94b5de;}</style></defs><title>icon-tra-cuu</title><line class="cls-1" x1="16.63" y1="75.28" x2="43.47" y2="75.28"/><line class="cls-1" x1="18.9" y1="80.45" x2="41.2" y2="80.45"/><path class="cls-2" d="M21.56,85.3a9.1,9.1,0,0,0,17,0Z"/><path class="cls-1" d="M54.68,45.21A28.78,28.78,0,0,0,59,30.05v0c0-.46,0-.93,0-1.39,0-.16,0-.31,0-.47s0-.63-.07-.94l-.06-.55c0-.28-.07-.56-.11-.84l-.09-.57c0-.27-.09-.54-.15-.8s-.07-.38-.11-.57-.12-.53-.19-.8-.09-.36-.13-.54-.16-.56-.25-.84-.09-.31-.14-.47c-.11-.37-.24-.73-.37-1.1a1.34,1.34,0,0,1-.07-.18c-.15-.42-.32-.83-.49-1.24-.07-.15-.14-.29-.2-.44l-.36-.78c-.08-.17-.17-.33-.25-.5l-.36-.69-.29-.51c-.12-.22-.25-.44-.38-.65s-.2-.34-.31-.51-.27-.42-.41-.63l-.33-.48q-.22-.33-.45-.63L53,12.45l-.58-.72-.32-.39-.78-.89-.39-.4L50.4,9.5,50,9.08c-.17-.16-.34-.33-.52-.48A6.14,6.14,0,0,0,49,8.18l-.53-.45-.5-.4c-.18-.15-.36-.28-.55-.42l-.51-.38-.58-.4c-.17-.12-.34-.24-.52-.35l-.64-.4-.75-.45-.85-.47L43,4.17l-.63-.3-.61-.28-.61-.26-.64-.25-.62-.24-.65-.22-.64-.21-.66-.19L37.24,2l-.66-.16c-.24-.06-.48-.1-.72-.15A28.69,28.69,0,0,0,9.69,9.59l-.09.08c-.25.26-.51.53-.75.8a1.45,1.45,0,0,0-.17.18c-.23.24-.45.5-.66.75l-.22.26-.59.73L7,12.72c-.18.23-.35.47-.52.71l-.27.39c-.15.23-.31.46-.46.7L5.44,15c-.14.23-.28.46-.41.69s-.19.32-.28.48l-.36.68-.27.52c-.11.22-.22.45-.32.67s-.17.38-.25.57-.2.44-.29.66-.16.4-.23.6-.17.44-.25.66l-.21.64c-.07.21-.15.43-.21.65s-.13.45-.19.67L2,23.09c-.05.23-.11.47-.16.7s-.09.42-.14.64-.09.49-.13.74-.08.41-.11.62-.07.53-.1.8-.05.39-.07.58-.05.61-.07.91,0,.33,0,.5c0,.44,0,.89,0,1.34,0,0,0,0,0,.08a30.12,30.12,0,0,0,.24,3.7A28.73,28.73,0,0,0,9.15,50a9.15,9.15,0,0,1,2.52,6.32v5.94a7.82,7.82,0,0,0,4.77,7.2,7.93,7.93,0,0,0,2.24.57,7,7,0,0,0,.8,0H40.63a7,7,0,0,0,.79,0,7.73,7.73,0,0,0,2.9-.89h0a7.81,7.81,0,0,0,4.08-6.87V56.35a9.14,9.14,0,0,1,1.41-4.84A10.7,10.7,0,0,1,51,49.94,28.89,28.89,0,0,0,54.68,45.21Z"/><path class="cls-2" d="M26.69,56.49,27,51.14a53.91,53.91,0,0,1-7.89-1.68V42.15a28.4,28.4,0,0,0,9.57,2.18c3,0,4.49-.92,4.49-2.77,0-.94-.93-1.78-2.81-2.54l-5.31-2.13a10.77,10.77,0,0,1-4.35-3.13,8.58,8.58,0,0,1-2-5.58,8.4,8.4,0,0,1,3.09-6.68,11.64,11.64,0,0,1,5.76-2.67l-.18-4.09h6.17l-.32,4.09a35,35,0,0,1,5.27.86v6.49a30.55,30.55,0,0,0-6.9-1c-3.14,0-4.72.92-4.72,2.77,0,1,.82,1.8,2.45,2.4l4.22,1.55q7.77,2.85,7.76,9.39a9.2,9.2,0,0,1-3,7,11.58,11.58,0,0,1-5.72,2.82l.19,5.35Z"/></svg>