<svg xmlns="http://www.w3.org/2000/svg" viewBox="0 0 91.73 91.73"><defs><style>.cls-1{fill:none;stroke:#fff;stroke-linecap:round;stroke-linejoin:round;stroke-width:1.73px;}</style></defs><title>Asset 6</title><g id="Layer_2" data-name="Layer 2"><g id="Layer_1-2" data-name="Layer 1"><path class="cls-1" d="M40,14.61H60.59L45.53,36.84h4l3.56-3.56,3.4-3.39L69,17.43A36.66,36.66,0,0,0,17.43,69L39.16,47.26l1-1-13.58,0Z"/><path class="cls-1" d="M74.3,22.73,60.19,36.84h4.94L37.88,77.11l13-30.83h-.17l-4,4-6.15,6.15-7.14,7.14L22.73,74.3A36.66,36.66,0,0,0,74.3,22.73Z"/><polygon class="cls-1" points="49.59 36.84 45.53 36.84 60.59 14.61 40.04 14.61 26.59 46.22 40.17 46.25 46.6 39.83 49.59 36.84"/><polygon class="cls-1" points="37.88 77.11 65.13 36.84 60.19 36.84 54.07 42.96 50.75 46.28 50.92 46.28 37.88 77.11"/><path class="cls-1" d="M45.86.86a45,45,0,1,0,45,45A45,45,0,0,0,45.86.86ZM9.2,45.86A36.66,36.66,0,0,1,69,17.43L56.54,29.89l-3.4,3.39-3.56,3.56-3,3-6.43,6.42-1,1-7,7.05L17.43,69A36.51,36.51,0,0,1,9.2,45.86ZM45.86,82.52A36.49,36.49,0,0,1,22.73,74.3L33.41,63.62l7.14-7.14,6.15-6.15,4-4L54.07,43l6.12-6.12L74.3,22.73A36.66,36.66,0,0,1,45.86,82.52Z"/></g></g></svg>