<svg xmlns="http://www.w3.org/2000/svg" viewBox="0 0 76.8 86.73"><defs><style>.cls-1{fill:none;stroke:#fff;stroke-linecap:round;stroke-linejoin:round;stroke-width:1.73px;}</style></defs><title>Asset 7</title><g id="Layer_2" data-name="Layer 2"><g id="Layer_1-2" data-name="Layer 1"><path class="cls-1" d="M66.34.86H4.81A3.85,3.85,0,0,0,1,4.71l-.1,45V82a3.85,3.85,0,0,0,3.85,3.84H66.25A3.84,3.84,0,0,0,70.09,82l.1-38.84V4.71A3.85,3.85,0,0,0,66.34.86Z"/><line class="cls-1" x1="11.44" y1="45.29" x2="55.6" y2="45.29"/><line class="cls-1" x1="11.44" y1="52.34" x2="55.6" y2="52.34"/><line class="cls-1" x1="11.44" y1="59.39" x2="55.6" y2="59.39"/><line class="cls-1" x1="11.44" y1="66.44" x2="30.04" y2="66.44"/><rect class="cls-1" x="11.71" y="27.66" width="10.58" height="10.58"/><rect class="cls-1" x="28.23" y="27.66" width="10.58" height="10.58"/><rect class="cls-1" x="45.02" y="27.66" width="10.58" height="10.58"/><rect class="cls-1" x="11.71" y="11.44" width="10.58" height="10.58"/><rect class="cls-1" x="28.23" y="11.44" width="10.58" height="10.58"/><rect class="cls-1" x="45.02" y="11.44" width="10.58" height="10.58"/><path class="cls-1" d="M64.28,31.73V77.12l5.83,8.74,5.83-8.74V31.73a2.7,2.7,0,0,0-2.7-2.7H67A2.69,2.69,0,0,0,64.28,31.73Z"/><line class="cls-1" x1="75.5" y1="36" x2="69.34" y2="36"/></g></g></svg>