<svg id="Layer_1" data-name="Layer 1" xmlns="http://www.w3.org/2000/svg" viewBox="0 0 92.27 92.27"><defs><style>.cls-1{fill:#fff;}.cls-1,.cls-2{stroke:#17479d;stroke-linecap:round;stroke-linejoin:round;stroke-width:2.27px;}.cls-2{fill:#94b5de;}</style></defs><title>icon-tra-cuu</title><path class="cls-1" d="M44.42,57.09q5.65,0,5.65-3.48c0-1.1-1-2.1-3.1-3l-6.15,6.15A21.86,21.86,0,0,0,44.42,57.09Z"/><path class="cls-1" d="M32.38,54.35l.17.06,6.88-6.88a13.38,13.38,0,0,1-5-3.74,10.77,10.77,0,0,1-2.46-7,10.54,10.54,0,0,1,3.89-8.39A14.72,14.72,0,0,1,43.05,25l-.23-5.14h7.76L50.19,25a44.22,44.22,0,0,1,6.62,1.08v4.06L69.27,17.7A36.66,36.66,0,0,0,17.7,69.27L32.38,54.58Z"/><path class="cls-1" d="M42.2,36.49c0,1.26,1,2.26,3.08,3l1.59.59,6.54-6.55A30.63,30.63,0,0,0,48.13,33C44.17,33,42.2,34.17,42.2,36.49Z"/><path class="cls-1" d="M74.57,23,54.34,43.23q6,3.6,6,10a11.58,11.58,0,0,1-3.71,8.84,14.49,14.49,0,0,1-7.19,3.54l.23,6.73H41.91l.4-6.73a65.15,65.15,0,0,1-8.63-1.76L23,74.57A36.66,36.66,0,0,0,74.57,23Z"/><path class="cls-2" d="M45.28,39.51c-2.06-.76-3.08-1.76-3.08-3,0-2.32,2-3.48,5.93-3.48a30.63,30.63,0,0,1,5.28.54l3.4-3.39V26.1A44.22,44.22,0,0,0,50.19,25l.39-5.14H42.82L43.05,25a14.72,14.72,0,0,0-7.24,3.37,10.54,10.54,0,0,0-3.89,8.39,10.77,10.77,0,0,0,2.46,7,13.38,13.38,0,0,0,5,3.74l7.44-7.43Z"/><path class="cls-2" d="M50.07,53.61q0,3.48-5.65,3.48a21.86,21.86,0,0,1-3.6-.34l-7.14,7.14a65.15,65.15,0,0,0,8.63,1.76l-.4,6.73h7.76l-.23-6.73a14.49,14.49,0,0,0,7.19-3.54,11.58,11.58,0,0,0,3.71-8.84q0-6.45-6-10L47,50.6C49,51.51,50.07,52.51,50.07,53.61Z"/><path class="cls-1" d="M32.38,54.35v.23l.17-.17Z"/><path class="cls-1" d="M46.13,1.13a45,45,0,1,0,45,45A45,45,0,0,0,46.13,1.13Zm-36.66,45A36.66,36.66,0,0,1,69.27,17.7L56.81,30.16l-3.4,3.39L46.87,40.1l-7.44,7.43-6.88,6.88-.17.17L17.7,69.27A36.51,36.51,0,0,1,9.47,46.13ZM46.13,82.79A36.49,36.49,0,0,1,23,74.57L33.68,63.89l7.14-7.14L47,50.6l7.37-7.37L74.57,23A36.66,36.66,0,0,1,46.13,82.79Z"/></svg>