<svg xmlns="http://www.w3.org/2000/svg" viewBox="0 0 114.26 66.73"><defs><style>.cls-1{fill:none;stroke:#fff;stroke-linecap:round;stroke-linejoin:round;stroke-width:1.73px;}</style></defs><title>Asset 12</title><g id="Layer_2" data-name="Layer 2"><g id="Layer_1-2" data-name="Layer 1"><path class="cls-1" d="M63.35,11.84H4.89a4,4,0,0,0-4,4v35a4,4,0,0,0,4,4H63.35a4,4,0,0,0,4-4v-35A4,4,0,0,0,63.35,11.84Z"/><rect class="cls-1" x="7.2" y="28.44" width="14.55" height="10.21" rx="1.94" ry="1.94"/><line class="cls-1" x1="7.2" y1="47.21" x2="16.82" y2="47.21"/><line class="cls-1" x1="21.86" y1="47.21" x2="31.48" y2="47.21"/><line class="cls-1" x1="36.53" y1="47.21" x2="46.15" y2="47.21"/><line class="cls-1" x1="51.19" y1="47.21" x2="60.81" y2="47.21"/><line class="cls-1" x1="60.81" y1="19.53" x2="26.67" y2="19.53"/><circle class="cls-1" cx="80.9" cy="33.36" r="32.5"/><path class="cls-1" d="M78,51.68l.28-4.7a46.75,46.75,0,0,1-6.93-1.47V39.1A25.22,25.22,0,0,0,79.7,41q3.94,0,4-2.43c0-.82-.83-1.57-2.47-2.23l-4.66-1.87a9.39,9.39,0,0,1-3.82-2.75A7.52,7.52,0,0,1,71,26.83,7.35,7.35,0,0,1,73.69,21a10.31,10.31,0,0,1,5.06-2.35l-.16-3.58H84l-.27,3.58a29.94,29.94,0,0,1,4.62.76v5.69a27.29,27.29,0,0,0-6.06-.87q-4.14,0-4.14,2.42c0,.88.72,1.58,2.15,2.11L84,30.1q6.81,2.5,6.81,8.24a8.08,8.08,0,0,1-2.58,6.17,10.13,10.13,0,0,1-5,2.47l.16,4.7Z"/></g></g></svg>