<svg xmlns="http://www.w3.org/2000/svg" viewBox="0 0 92.78 99.73"><defs><style>.cls-1{fill:none;stroke:#fff;stroke-linecap:round;stroke-linejoin:round;stroke-width:1.73px;}.cls-2{fill:#fff;}</style></defs><title>Asset 7</title><g id="Layer_2" data-name="Layer 2"><g id="Layer_1-2" data-name="Layer 1"><rect class="cls-1" x="13.21" y="9.43" width="60.74" height="74.24"/><polygon class="cls-1" points="81.72 90.75 20.98 90.75 20.98 16.51 67.98 16.51 81.72 27.84 81.72 90.75"/><polygon class="cls-1" points="68.22 16.51 68.22 28.08 81.72 28.08 68.22 16.51"/><line class="cls-1" x1="28.69" y1="29.05" x2="46.28" y2="29.05"/><line class="cls-1" x1="28.69" y1="44.09" x2="73.52" y2="44.09"/><line class="cls-1" x1="28.69" y1="53.73" x2="73.95" y2="53.73"/><line class="cls-1" x1="28.69" y1="63.37" x2="74.49" y2="63.37"/><line class="cls-1" x1="59.11" y1="77.25" x2="74.49" y2="77.25"/><path class="cls-1" d="M67.62.86H85.81a4,4,0,0,1,4,4V19.47"/><polygon class="cls-2" points="86.75 18.58 89.77 23.81 92.78 18.58 86.75 18.58"/><path class="cls-1" d="M25.17,98.86H7a4,4,0,0,1-3.95-4V80.26"/><polygon class="cls-2" points="6.03 81.14 3.02 75.92 0 81.14 6.03 81.14"/></g></g></svg>