<svg xmlns="http://www.w3.org/2000/svg" viewBox="0 0 72.66 91.73"><defs><style>.cls-1{fill:none;stroke:#fff;stroke-linecap:round;stroke-linejoin:round;stroke-width:1.73px;}</style></defs><title>Asset 8</title><g id="Layer_2" data-name="Layer 2"><g id="Layer_1-2" data-name="Layer 1"><path class="cls-1" d="M59.92,90.86H12.73A4.84,4.84,0,0,1,7.89,86l-4-26.78A4.83,4.83,0,0,1,8.72,54.4H63.94a4.84,4.84,0,0,1,4.84,4.84L64.77,86A4.84,4.84,0,0,1,59.92,90.86Z"/><circle class="cls-1" cx="36.33" cy="36.33" r="35.46"/><path class="cls-1" d="M36.33,12.57A23.75,23.75,0,0,0,20.16,53.73H52.5A23.76,23.76,0,0,0,36.33,12.57Z"/><path class="cls-1" d="M53.73,35.48a17.4,17.4,0,0,0-34.8,0"/><circle class="cls-1" cx="36.66" cy="54.06" r="4.35"/><line class="cls-1" x1="39.23" y1="50.14" x2="49.51" y2="34.48"/></g></g></svg>