<svg xmlns="http://www.w3.org/2000/svg" viewBox="0 0 91.73 74.85"><defs><style>.cls-1{fill:none;stroke:#fff;stroke-linecap:round;stroke-linejoin:round;stroke-width:1.73px;}</style></defs><title>Asset 19</title><g id="Layer_2" data-name="Layer 2"><g id="Layer_1-2" data-name="Layer 1"><path class="cls-1" d="M59.93,62.74H26.18L12.11,74V62.74H6.49A5.63,5.63,0,0,1,.86,57.11V20.55a5.62,5.62,0,0,1,5.63-5.62H59.93a5.62,5.62,0,0,1,5.62,5.62V57.11A5.63,5.63,0,0,1,59.93,62.74Z"/><path class="cls-1" d="M31.8,48.68H65.55L79.61,59.93V48.68h5.63a5.62,5.62,0,0,0,5.62-5.63V6.49A5.62,5.62,0,0,0,85.24.86H31.8a5.62,5.62,0,0,0-5.62,5.63V43.05A5.62,5.62,0,0,0,31.8,48.68Z"/><path class="cls-1" d="M58.64,10.71c4.17,0,8,2.2,8,6.8,0,3.28-2,4.87-3.8,6.32-2.24,1.73-3.08,2.4-3.08,4.62v1.13H56.08l0-1.52c-.07-2.83,1.66-4.53,3.65-6,1.81-1.4,3-2.3,3-4.28,0-2.67-2-3.75-4.23-3.75-2.92,0-4.36,1.93-4.38,4.45H50.35C50.27,12.62,54.72,10.71,58.64,10.71ZM58,33.54a2.37,2.37,0,1,1-2.51,2.39A2.36,2.36,0,0,1,58,33.54Z"/></g></g></svg>