<svg xmlns="http://www.w3.org/2000/svg" viewBox="0 0 85.51 94.5"><defs><style>.cls-1{fill:none;stroke:#fff;stroke-linecap:round;stroke-linejoin:round;stroke-width:1.73px;}</style></defs><title>Asset 5</title><g id="Layer_2" data-name="Layer 2"><g id="Layer_1-2" data-name="Layer 1"><line class="cls-1" x1="13.63" y1="61.93" x2="35.74" y2="61.93"/><line class="cls-1" x1="15.5" y1="66.19" x2="33.87" y2="66.19"/><path class="cls-1" d="M17.69,70.19a7.5,7.5,0,0,0,14,0Z"/><path class="cls-1" d="M45,37.17A23.8,23.8,0,0,0,48.5,24.68v0c0-.39,0-.77,0-1.15,0-.13,0-.26,0-.39l-.06-.77c0-.15,0-.3,0-.45l-.09-.69c0-.16,0-.32-.08-.47s-.08-.45-.12-.67L48,19.61c-.05-.22-.1-.44-.16-.66s-.07-.3-.11-.44-.13-.47-.2-.7-.07-.26-.11-.38c-.1-.31-.21-.61-.32-.91a.88.88,0,0,0-.05-.15c-.13-.34-.26-.68-.41-1L46.44,15c-.1-.22-.19-.43-.3-.65l-.2-.41-.3-.57-.23-.42-.32-.54L44.84,12c-.11-.18-.23-.35-.34-.52l-.27-.4-.38-.52-.27-.36c-.15-.21-.32-.4-.48-.6a4,4,0,0,0-.26-.32c-.21-.25-.42-.49-.64-.73l-.32-.33c-.15-.15-.29-.31-.44-.45s-.24-.24-.37-.35L40.65,7l-.4-.35-.43-.36L39.41,6,39,5.62l-.43-.31c-.15-.12-.31-.22-.47-.33l-.43-.29-.53-.33c-.2-.13-.41-.25-.62-.37l-.7-.39-.47-.23-.51-.25-.51-.23-.5-.22-.52-.21-.52-.19-.53-.18-.53-.17-.54-.16-.54-.15-.55-.13-.59-.13A24.31,24.31,0,0,0,24.11.87a23.7,23.7,0,0,0-16.2,7l-.07.07c-.21.21-.42.43-.62.65l-.14.15c-.19.2-.37.41-.55.62l-.18.22-.48.6-.21.27L5.24,11,5,11.31l-.39.58-.22.35c-.12.19-.23.38-.34.57l-.23.4-.3.56-.22.43c-.09.18-.18.36-.26.55l-.21.46c-.08.19-.16.37-.23.55l-.2.5-.2.54c-.06.17-.12.35-.17.52l-.18.54-.15.55-.15.53c-.05.2-.09.39-.13.59l-.12.52c0,.2-.07.41-.11.61s-.06.34-.08.51-.06.44-.09.66L1,22.31c0,.25,0,.5,0,.75s0,.27,0,.41c0,.36,0,.73,0,1.1,0,0,0,0,0,.07a24,24,0,0,0,6.6,16.5,7.51,7.51,0,0,1,2.08,5.2v4.9a6.46,6.46,0,0,0,5.78,6.4q.31,0,.66,0H33.39l.66,0a6.48,6.48,0,0,0,2.39-.74h0a6.43,6.43,0,0,0,3.36-5.65v-4.9a7.6,7.6,0,0,1,1.16-4,8.75,8.75,0,0,1,1-1.28A24.22,24.22,0,0,0,45,37.17Z"/><rect class="cls-1" x="63.98" y="81.75" width="20.66" height="3.62" transform="translate(148.63 167.12) rotate(180)"/><path class="cls-1" d="M74.27,81.75h8.87V77.14a4.6,4.6,0,0,0-2.92-4.28l-.15-.06a3.44,3.44,0,0,1-2.18-3.2V66.77H70.74V69.6a3.44,3.44,0,0,1-2.18,3.2l-.16.06a4.61,4.61,0,0,0-2.91,4.28v4.61Z"/><path class="cls-1" d="M68.37,85.37h0a1.55,1.55,0,0,1,1.55,1.55v6.71a0,0,0,0,1,0,0h-3.1a0,0,0,0,1,0,0V86.92A1.55,1.55,0,0,1,68.37,85.37Z" transform="translate(136.75 179) rotate(180)"/><path class="cls-1" d="M80.25,85.37h0a1.55,1.55,0,0,1,1.55,1.55v6.71a0,0,0,0,1,0,0H78.7a0,0,0,0,1,0,0V86.92a1.55,1.55,0,0,1,1.55-1.55Z" transform="translate(160.51 179) rotate(180)"/><path class="cls-1" d="M24.68,79.2v6.61a7.82,7.82,0,0,0,7.82,7.82h9a7.82,7.82,0,0,0,7.82-7.82V60a7.82,7.82,0,0,1,7.82-7.82h9.41A7.82,7.82,0,0,1,74.36,60v2.18"/></g></g></svg>