<svg xmlns="http://www.w3.org/2000/svg" viewBox="0 0 83.81 86.73"><defs><style>.cls-1{fill:none;stroke:#fff;stroke-linecap:round;stroke-linejoin:round;stroke-width:1.73px;}</style></defs><title>Asset 21</title><g id="Layer_2" data-name="Layer 2"><g id="Layer_1-2" data-name="Layer 1"><path class="cls-1" d="M66.34.86H4.81A3.85,3.85,0,0,0,1,4.71l-.1,45V82a3.85,3.85,0,0,0,3.85,3.84H66.25A3.84,3.84,0,0,0,70.09,82l.1-38.84V4.71A3.85,3.85,0,0,0,66.34.86Z"/><line class="cls-1" x1="11.44" y1="40.48" x2="55.6" y2="40.48"/><line class="cls-1" x1="11.44" y1="57.79" x2="34.55" y2="57.79"/><line class="cls-1" x1="11.44" y1="14.52" x2="34.55" y2="14.52"/><line class="cls-1" x1="11.44" y1="23.17" x2="55.6" y2="23.17"/><line class="cls-1" x1="11.44" y1="31.83" x2="55.6" y2="31.83"/><path class="cls-1" d="M73.92,32.57l-32.1,32.1L39.76,75l10.3-2.06,32.1-32.1a2.7,2.7,0,0,0,0-3.81l-4.44-4.44A2.69,2.69,0,0,0,73.92,32.57Z"/><line class="cls-1" x1="78.83" y1="43.53" x2="74.48" y2="39.18"/><path class="cls-1" d="M11.48,73.79l2.89-1.45a3.48,3.48,0,0,1,4,.65h0A1.13,1.13,0,0,0,20,73l3.55-3.55a3.87,3.87,0,0,1,6,.59l.28.41A7.51,7.51,0,0,0,36,73.79h1.11"/></g></g></svg>