<svg xmlns="http://www.w3.org/2000/svg" viewBox="0 0 92.76 93.73"><defs><style>.cls-1{fill:none;stroke:#fff;stroke-linecap:round;stroke-linejoin:round;stroke-width:1.73px;}</style></defs><title>Asset 17</title><g id="Layer_2" data-name="Layer 2"><g id="Layer_1-2" data-name="Layer 1"><path class="cls-1" d="M16.33,60.46s11.89-17.23,30-8.33l19.87.41a14.77,14.77,0,0,0,8.23-2.3l8.42-5.37a10.35,10.35,0,0,1,5.73-1.6h.57a2.84,2.84,0,0,1,2.38,4.27l-7,11.81a27.41,27.41,0,0,1-4.67,5.89L69.31,75.38A9.54,9.54,0,0,1,62.5,78l-29.18-.61"/><path class="cls-1" d="M46.3,52.13l18.25.38a6.09,6.09,0,0,1,6,6.21h0a6.09,6.09,0,0,1-6.21,6L46.05,64.3"/><rect class="cls-1" x="0.28" y="66.54" width="37.53" height="16.3" rx="2.06" ry="2.06" transform="translate(58.35 8.38) rotate(44.96)"/><path class="cls-1" d="M68.85,15.35a14.49,14.49,0,1,0-24.95,10,4.57,4.57,0,0,1,1.26,3.16v3a3.91,3.91,0,0,0,3.91,3.91H59.66a3.91,3.91,0,0,0,3.92-3.91v-3a4.69,4.69,0,0,1,1.3-3.21A14.42,14.42,0,0,0,68.85,15.35Z"/><line class="cls-1" x1="47.65" y1="39.83" x2="61.09" y2="39.83"/><line class="cls-1" x1="48.78" y1="43.88" x2="59.95" y2="43.88"/><path class="cls-1" d="M44.41,12.36a10.41,10.41,0,0,1,10-7.4"/></g></g></svg>