<svg xmlns="http://www.w3.org/2000/svg" viewBox="0 0 58.05 93.73"><defs><style>.cls-1{fill:none;stroke:#fff;stroke-linecap:round;stroke-linejoin:round;stroke-width:1.73px;}</style></defs><title>Asset 4</title><g id="Layer_2" data-name="Layer 2"><g id="Layer_1-2" data-name="Layer 1"><rect class="cls-1" x="0.86" y="0.86" width="56.33" height="92" rx="3.76" ry="3.76"/><rect class="cls-1" x="6.5" y="6.31" width="45.06" height="37.93" rx="3" ry="3"/><path class="cls-1" d="M29,30.9A45.77,45.77,0,0,0,6.5,36.8v4.43a3,3,0,0,0,3,3H48.55a3,3,0,0,0,3-3V36.8A45.77,45.77,0,0,0,29,30.9Z"/><line class="cls-1" x1="22.25" y1="30.91" x2="14.5" y2="18.04"/><circle class="cls-1" cx="11.19" cy="54.37" r="4.69"/><circle class="cls-1" cx="29.03" cy="54.37" r="4.69"/><circle class="cls-1" cx="46.86" cy="54.37" r="4.69"/><circle class="cls-1" cx="29.03" cy="75.97" r="11.27"/></g></g></svg>