<svg xmlns="http://www.w3.org/2000/svg" viewBox="0 0 92.72 86.73"><defs><style>.cls-1{fill:none;stroke:#fff;stroke-linecap:round;stroke-linejoin:round;stroke-width:1.73px;}</style></defs><title>Asset 1</title><g id="Layer_2" data-name="Layer 2"><g id="Layer_1-2" data-name="Layer 1"><circle class="cls-1" cx="70.6" cy="64.61" r="21.25"/><path class="cls-1" d="M49.35,64.61A21.24,21.24,0,0,1,70.41,43.37V4.73A3.86,3.86,0,0,0,66.55.86H4.73A3.87,3.87,0,0,0,.86,4.73V82a3.86,3.86,0,0,0,3.87,3.86H70.41A21.25,21.25,0,0,1,49.35,64.61Z"/><line class="cls-1" x1="11.49" y1="48.58" x2="38.53" y2="48.58"/><line class="cls-1" x1="11.49" y1="56.31" x2="38.53" y2="56.31"/><line class="cls-1" x1="11.49" y1="64.03" x2="38.53" y2="64.03"/><line class="cls-1" x1="11.49" y1="71.76" x2="38.53" y2="71.76"/><path class="cls-1" d="M91.85,64.61A21.25,21.25,0,1,1,82.54,47"/><polyline class="cls-1" points="90.53 52.66 70.53 72.66 60.82 62.95"/><rect class="cls-1" x="11.59" y="9.54" width="18.03" height="23.18"/><line class="cls-1" x1="37.34" y1="9.54" x2="60.53" y2="9.54"/><line class="cls-1" x1="37.34" y1="17.26" x2="50.22" y2="17.26"/></g></g></svg>