<svg xmlns="http://www.w3.org/2000/svg" viewBox="0 0 112.89 74.95"><defs><style>.cls-1{fill:none;stroke:#fff;stroke-linecap:round;stroke-linejoin:round;stroke-width:1.73px;}</style></defs><title>Asset 5</title><g id="Layer_2" data-name="Layer 2"><g id="Layer_1-2" data-name="Layer 1"><path class="cls-1" d="M112,59.13c-3.89,0-3.89-6.66-7.77-6.66s-3.89,6.66-7.77,6.66-3.89-6.66-7.78-6.66-3.89,6.66-7.77,6.66-3.89-6.66-7.78-6.66-3.89,6.66-7.78,6.66"/><path class="cls-1" d="M23.78,16.67,8,.86A40.46,40.46,0,0,0,4.15,8L18.33,22.12Z"/><path class="cls-1" d="M74.09,67,58.28,51.17l-5.45,5.45L67,70.8A40.46,40.46,0,0,0,74.09,67Z"/><path class="cls-1" d="M36.49,56.62,18.33,38.46a11.56,11.56,0,0,1,0-16.34h0L4.15,8C-2.72,24.41,1.23,45,15.6,59.35S50.54,77.68,67,70.8L52.83,56.62h0A11.56,11.56,0,0,1,36.49,56.62Z"/></g></g></svg>