<svg xmlns="http://www.w3.org/2000/svg" viewBox="0 0 104.63 56.73"><defs><style>.cls-1{fill:none;stroke:#fff;stroke-linecap:round;stroke-linejoin:round;stroke-width:1.73px;}</style></defs><title>Asset 6</title><g id="Layer_2" data-name="Layer 2"><g id="Layer_1-2" data-name="Layer 1"><path class="cls-1" d="M103.77,51.52a51.46,51.46,0,0,0-102.91,0Z"/><path class="cls-1" d="M56.36,11.49V25.83a25.79,25.79,0,0,1,11.26,4.66L77.76,20.36A40,40,0,0,0,56.36,11.49Z"/><path class="cls-1" d="M73.34,36.21a25.86,25.86,0,0,1,5,15.31h14.2a40.12,40.12,0,0,0-9.07-25.45Z"/><path class="cls-1" d="M37,30.49a25.88,25.88,0,0,1,11.27-4.66V11.49a40,40,0,0,0-21.4,8.87Z"/><path class="cls-1" d="M21.15,26.07a40.07,40.07,0,0,0-9.07,25.45h14.2a25.86,25.86,0,0,1,5-15.31Z"/><line class="cls-1" x1="52.31" y1="51" x2="36.88" y2="20.64"/><circle class="cls-1" cx="52.31" cy="51" r="4.87"/></g></g></svg>