<svg xmlns="http://www.w3.org/2000/svg" viewBox="0 0 95.23 91.73"><defs><style>.cls-1{fill:none;stroke:#fff;stroke-linecap:round;stroke-linejoin:round;stroke-width:1.73px;}</style></defs><title>Asset 14</title><g id="Layer_2" data-name="Layer 2"><g id="Layer_1-2" data-name="Layer 1"><rect class="cls-1" x="0.86" y="0.86" width="67.22" height="82.16"/><polygon class="cls-1" points="76.67 90.86 9.45 90.86 9.45 8.71 61.47 8.71 76.67 21.24 76.67 90.86"/><polygon class="cls-1" points="61.73 8.71 61.73 21.51 76.67 21.51 61.73 8.71"/><line class="cls-1" x1="17.99" y1="22.58" x2="37.46" y2="22.58"/><line class="cls-1" x1="17.99" y1="39.22" x2="67.6" y2="39.22"/><line class="cls-1" x1="17.99" y1="49.89" x2="68.08" y2="49.89"/><line class="cls-1" x1="17.99" y1="60.56" x2="68.67" y2="60.56"/><circle class="cls-1" cx="74.11" cy="70.61" r="20.25"/><path class="cls-1" d="M74.11,82.19A11.58,11.58,0,1,1,85.69,70.61a11.43,11.43,0,0,1-1.2,5.13"/><polyline class="cls-1" points="88.96 74.56 84.16 75.96 82.76 71.16"/></g></g></svg>