<svg xmlns="http://www.w3.org/2000/svg" viewBox="0 0 83.67 86.73"><defs><style>.cls-1{fill:none;stroke:#fff;stroke-linecap:round;stroke-linejoin:round;stroke-width:1.73px;}</style></defs><title>Asset 16</title><g id="Layer_2" data-name="Layer 2"><g id="Layer_1-2" data-name="Layer 1"><path class="cls-1" d="M28.78,56V27.58a3.26,3.26,0,0,1,3.27-3.27H49.31V6.63A5.77,5.77,0,0,0,43.54.86H6.63A5.77,5.77,0,0,0,.86,6.63V80.1a5.76,5.76,0,0,0,5.77,5.76H43.54a5.76,5.76,0,0,0,5.77-5.76V59.27H32.05A3.27,3.27,0,0,1,28.78,56Z"/><path class="cls-1" d="M79.53,24.31H32.05a3.26,3.26,0,0,0-3.27,3.27V56a3.27,3.27,0,0,0,3.27,3.28H79.53A3.27,3.27,0,0,0,82.8,56V27.58A3.26,3.26,0,0,0,79.53,24.31Z"/><rect class="cls-1" x="33.92" y="37.79" width="11.82" height="8.29" rx="1.57" ry="1.57"/><line class="cls-1" x1="33.92" y1="53.04" x2="41.74" y2="53.04"/><line class="cls-1" x1="45.83" y1="53.04" x2="53.65" y2="53.04"/><line class="cls-1" x1="57.74" y1="53.04" x2="65.56" y2="53.04"/><line class="cls-1" x1="69.65" y1="53.04" x2="77.47" y2="53.04"/><line class="cls-1" x1="77.47" y1="30.55" x2="49.74" y2="30.55"/><line class="cls-1" x1="0.86" y1="7.71" x2="49.31" y2="7.71"/><line class="cls-1" x1="0.86" y1="75.06" x2="49.31" y2="75.06"/><line class="cls-1" x1="19.68" y1="80.28" x2="30.49" y2="80.28"/></g></g></svg>