<svg xmlns="http://www.w3.org/2000/svg" viewBox="0 0 92.72 86.73"><defs><style>.cls-1{fill:none;stroke:#fff;stroke-linecap:round;stroke-linejoin:round;stroke-width:1.73px;}</style></defs><title>Asset 10</title><g id="Layer_2" data-name="Layer 2"><g id="Layer_1-2" data-name="Layer 1"><circle class="cls-1" cx="70.6" cy="64.61" r="21.25"/><path class="cls-1" d="M49.35,64.61A21.24,21.24,0,0,1,70.41,43.37V4.73A3.86,3.86,0,0,0,66.55.86H4.73A3.87,3.87,0,0,0,.86,4.73V82a3.86,3.86,0,0,0,3.87,3.86H70.41A21.25,21.25,0,0,1,49.35,64.61Z"/><line class="cls-1" x1="28.33" y1="13.61" x2="60.27" y2="13.61"/><line class="cls-1" x1="28.33" y1="21.34" x2="60.27" y2="21.34"/><line class="cls-1" x1="28.33" y1="29.07" x2="60.27" y2="29.07"/><line class="cls-1" x1="28.33" y1="36.8" x2="60.27" y2="36.8"/><line class="cls-1" x1="28.33" y1="65.13" x2="45.07" y2="65.13"/><line class="cls-1" x1="21.89" y1="71.76" x2="46.04" y2="71.76"/><path class="cls-1" d="M11.61,16.34v46l4.49,8.86,4.5-8.86v-46c0-1.51-.93-2.73-2.08-2.73H13.68C12.54,13.61,11.61,14.83,11.61,16.34Z"/><path class="cls-1" d="M59.33,67.3a11.59,11.59,0,0,0,22.55,0"/><polyline class="cls-1" points="56.79 71.01 58.66 66.37 63.29 68.24"/><path class="cls-1" d="M81.88,61.92a11.59,11.59,0,0,0-22.55,0"/><polyline class="cls-1" points="84.42 58.22 82.55 62.86 77.91 60.99"/></g></g></svg>