<svg xmlns="http://www.w3.org/2000/svg" viewBox="0 0 77.54 91.73"><defs><style>.cls-1{fill:none;stroke:#fff;stroke-linecap:round;stroke-linejoin:round;stroke-width:1.73px;}</style></defs><title>Asset 15</title><g id="Layer_2" data-name="Layer 2"><g id="Layer_1-2" data-name="Layer 1"><rect class="cls-1" x="0.86" y="0.86" width="67.22" height="82.16"/><polygon class="cls-1" points="76.67 90.86 9.45 90.86 9.45 8.71 36.59 8.71 35.03 25.61 40.01 40.55 37.52 53 44.99 40.55 42.5 28.11 47.02 8.71 61.47 8.71 76.67 21.24 76.67 90.86"/><polygon class="cls-1" points="61.73 8.71 61.73 21.51 76.67 21.51 61.73 8.71"/><line class="cls-1" x1="17.99" y1="22.58" x2="30.05" y2="22.58"/><line class="cls-1" x1="52.67" y1="39.22" x2="67.6" y2="39.22"/><line class="cls-1" x1="17.99" y1="39.22" x2="33.17" y2="39.22"/><line class="cls-1" x1="49.97" y1="49.89" x2="68.08" y2="49.89"/><line class="cls-1" x1="17.99" y1="49.89" x2="32.54" y2="49.89"/><line class="cls-1" x1="17.99" y1="60.56" x2="68.67" y2="60.56"/><line class="cls-1" x1="51.65" y1="75.93" x2="68.67" y2="75.93"/></g></g></svg>