<svg xmlns="http://www.w3.org/2000/svg" viewBox="0 0 59.66 91.73"><defs><style>.cls-1{fill:none;stroke:#fff;stroke-linecap:round;stroke-linejoin:round;stroke-width:1.73px;}</style></defs><title>Asset 13</title><g id="Layer_2" data-name="Layer 2"><g id="Layer_1-2" data-name="Layer 1"><line class="cls-1" x1="16.39" y1="74.98" x2="43.27" y2="74.98"/><line class="cls-1" x1="18.66" y1="80.16" x2="41" y2="80.16"/><path class="cls-1" d="M21.33,85a9.11,9.11,0,0,0,17,0Z"/><path class="cls-1" d="M35,1.18l-4.17,16L37,30.28,29.21,58l2.47-22.63-9-16.06L27,.86A29,29,0,0,0,8.89,49.7,9.11,9.11,0,0,1,11.42,56v6a7.82,7.82,0,0,0,7.82,7.82H40.42A7.82,7.82,0,0,0,48.24,62V56a9.33,9.33,0,0,1,2.62-6.41A29,29,0,0,0,35,1.18Z"/></g></g></svg>