<svg xmlns="http://www.w3.org/2000/svg" viewBox="0 0 114.73 87.85"><defs><style>.cls-1{fill:none;stroke:#fff;stroke-linecap:round;stroke-linejoin:round;stroke-width:1.73px;}</style></defs><title>Asset 3</title><g id="Layer_2" data-name="Layer 2"><g id="Layer_1-2" data-name="Layer 1"><path class="cls-1" d="M54.8,48.68H88.55l14.06,11.25V48.68h5.63a5.62,5.62,0,0,0,5.62-5.63V6.49A5.62,5.62,0,0,0,108.24.86H54.8a5.62,5.62,0,0,0-5.62,5.63V43.05A5.62,5.62,0,0,0,54.8,48.68Z"/><path class="cls-1" d="M59.93,75.74H26.18L12.11,87V75.74H6.49A5.63,5.63,0,0,1,.86,70.11V33.55a5.62,5.62,0,0,1,5.63-5.62H59.93a5.62,5.62,0,0,1,5.62,5.62V70.11A5.63,5.63,0,0,1,59.93,75.74Z"/><path class="cls-1" d="M40.27,63.62l-3-2.38a8.24,8.24,0,0,1-5.55,2,8.64,8.64,0,0,1-4.29-1.12,7.9,7.9,0,0,1-3.09-3.11,6.53,6.53,0,0,1-.79-2.28,43.46,43.46,0,0,1-.23-5.46,43.38,43.38,0,0,1,.23-5.45,7.33,7.33,0,0,1,3.5-5.16,8.42,8.42,0,0,1,4.67-1.36A8.59,8.59,0,0,1,36,40.48a7.87,7.87,0,0,1,3.09,3.1,6.53,6.53,0,0,1,.79,2.28,41.25,41.25,0,0,1,.24,5.46c0,2.14,0,3.38,0,3.73a9.46,9.46,0,0,1-.82,3.64l3.11,2.48Zm-5.88-4.74-3-2.36,2.12-2.46,2.74,2.19a22.34,22.34,0,0,0,.33-4.93c0-1.89,0-3-.06-3.47a6.21,6.21,0,0,0-1.36-3.5,4.29,4.29,0,0,0-3.4-1.43,4.32,4.32,0,0,0-3.41,1.43A6.14,6.14,0,0,0,27,47.85c-.05.42-.07,1.58-.07,3.47s0,3.06.07,3.48a6.14,6.14,0,0,0,1.35,3.5,4.32,4.32,0,0,0,3.41,1.42A4.22,4.22,0,0,0,34.39,58.88Z"/><path class="cls-1" d="M87.69,36.76,85.84,31.5H76.91l-1.82,5.26H71.31l8.57-23.54h3l8.57,23.54Zm-9.77-8.43H84.8L81.4,18h-.07Z"/></g></g></svg>