<svg xmlns="http://www.w3.org/2000/svg" viewBox="0 0 95.34 81.73"><defs><style>.cls-1{fill:none;stroke:#fff;stroke-linecap:round;stroke-linejoin:round;stroke-width:1.73px;}</style></defs><title>Asset 20</title><g id="Layer_2" data-name="Layer 2"><g id="Layer_1-2" data-name="Layer 1"><path class="cls-1" d="M47.82,1.6a33,33,0,0,1,40,32.31h6.66L80.86,47.52,67.25,33.91h6.66a33,33,0,1,0-66.09,0"/><path class="cls-1" d="M21.73,33.91A33.06,33.06,0,0,1,47.82,1.6"/><path class="cls-1" d="M47.52,80.13a33.09,33.09,0,0,1-40-32.31H.86L14.48,34.21,28.09,47.82H21.44a33,33,0,0,0,66.08,0"/><path class="cls-1" d="M73.61,47.82A33.06,33.06,0,0,1,47.52,80.13"/><path class="cls-1" d="M43.47,67l.4-6.69A66.92,66.92,0,0,1,34,58.16V49q7.26,2.73,12,2.72c3.74,0,5.62-1.15,5.62-3.46,0-1.17-1.18-2.23-3.52-3.17l-6.64-2.67A13.4,13.4,0,0,1,36,38.54a10.72,10.72,0,0,1-2.44-7,10.45,10.45,0,0,1,3.86-8.33,14.56,14.56,0,0,1,7.2-3.35l-.23-5.1h7.71l-.39,5.1A43.62,43.62,0,0,1,58.28,21v8.11a38.66,38.66,0,0,0-8.62-1.25c-3.94,0-5.9,1.16-5.9,3.46q0,1.88,3.06,3l5.27,1.92Q61.8,39.8,61.79,48a11.53,11.53,0,0,1-3.68,8.79A14.5,14.5,0,0,1,51,60.26L51.19,67Z"/></g></g></svg>