<svg xmlns="http://www.w3.org/2000/svg" viewBox="0 0 91.73 91.73"><defs><style>.cls-1{fill:none;stroke:#fff;stroke-linecap:round;stroke-linejoin:round;stroke-width:1.73px;}.cls-2{fill:#fff;}</style></defs><title>Asset 9</title><g id="Layer_2" data-name="Layer 2"><g id="Layer_1-2" data-name="Layer 1"><rect class="cls-1" x="33.67" y="42.65" width="36.68" height="6.42" transform="translate(97.88 -6.15) rotate(90)"/><path class="cls-1" d="M48.8,45.94V30.2H40.61A8.16,8.16,0,0,0,33,35.37l-.11.28a6.1,6.1,0,0,1-5.68,3.87h-5V52.21h5a6.1,6.1,0,0,1,5.68,3.87l.11.28a8.16,8.16,0,0,0,7.6,5.17H48.8Z"/><path class="cls-1" d="M62.56,49.07h0a2.75,2.75,0,0,1,2.75,2.75V63.75a0,0,0,0,1,0,0h-5.5a0,0,0,0,1,0,0V51.83A2.75,2.75,0,0,1,62.56,49.07Z" transform="translate(118.97 -6.15) rotate(90)"/><path class="cls-1" d="M62.56,28h0a2.75,2.75,0,0,1,2.75,2.75V42.65a0,0,0,0,1,0,0h-5.5a0,0,0,0,1,0,0V30.73A2.75,2.75,0,0,1,62.56,28Z" transform="translate(97.88 -27.24) rotate(90)"/><polygon class="cls-1" points="39.46 45.78 44.67 49.32 44.67 44.5 36.42 40.42 36.41 45.48 30 43.99 39.46 50.39 39.46 45.78"/><path class="cls-1" d="M18.71,10A45,45,0,1,1,.86,45.86h14"/><polygon class="cls-2" points="27.52 12.53 27.76 10.82 19.31 9.68 21.07 1.34 19.38 0.98 17.24 11.14 27.52 12.53"/></g></g></svg>